<?xml version="1.0" encoding="utf-8" standalone="no"?>
<!DOCTYPE svg PUBLIC "-//W3C//DTD SVG 1.1//EN"
  "http://www.w3.org/Graphics/SVG/1.1/DTD/svg11.dtd">
<svg xmlns:xlink="http://www.w3.org/1999/xlink" width="460.8pt" height="345.6pt" viewBox="0 0 460.8 345.6" xmlns="http://www.w3.org/2000/svg" version="1.1">
 <metadata>
  <rdf:RDF xmlns:dc="http://purl.org/dc/elements/1.1/" xmlns:cc="http://creativecommons.org/ns#" xmlns:rdf="http://www.w3.org/1999/02/22-rdf-syntax-ns#">
   <cc:Work>
    <dc:type rdf:resource="http://purl.org/dc/dcmitype/StillImage"/>
    <dc:date>2023-02-10T19:24:21.812029</dc:date>
    <dc:format>image/svg+xml</dc:format>
    <dc:creator>
     <cc:Agent>
      <dc:title>Matplotlib v3.6.2, https://matplotlib.org/</dc:title>
     </cc:Agent>
    </dc:creator>
   </cc:Work>
  </rdf:RDF>
 </metadata>
 <defs>
  <style type="text/css">*{stroke-linejoin: round; stroke-linecap: butt}</style>
 </defs>
 <g id="figure_1">
  <g id="patch_1">
   <path d="M 0 345.6 
L 460.8 345.6 
L 460.8 0 
L 0 0 
z
" style="fill: #ffffff"/>
  </g>
  <g id="axes_1">
   <g id="patch_2">
    <path d="M 101.376 269.568 
L 414.72 269.568 
L 414.72 41.472 
L 101.376 41.472 
z
" style="fill: #ffffff"/>
   </g>
   <g id="matplotlib.axis_1">
    <g id="xtick_1">
     <g id="line2d_1">
      <path d="M 101.376 269.568 
L 101.376 41.472 
" clip-path="url(#p23a647b4b2)" style="fill: none; stroke: #cccccc; stroke-opacity: 0; stroke-width: 0.8; stroke-linecap: round"/>
     </g>
     <g id="line2d_2"/>
     <g id="text_1">
      <!-- 0 -->
      <g style="fill: #444444" transform="translate(96.376 288.4555) scale(0.2 -0.2)">
       <defs>
        <path id="TimesNewRomanPSMT-30" d="M 231 2094 
Q 231 2819 450 3342 
Q 669 3866 1031 4122 
Q 1313 4325 1613 4325 
Q 2100 4325 2488 3828 
Q 2972 3213 2972 2159 
Q 2972 1422 2759 906 
Q 2547 391 2217 158 
Q 1888 -75 1581 -75 
Q 975 -75 572 641 
Q 231 1244 231 2094 
z
M 844 2016 
Q 844 1141 1059 588 
Q 1238 122 1591 122 
Q 1759 122 1940 273 
Q 2122 425 2216 781 
Q 2359 1319 2359 2297 
Q 2359 3022 2209 3506 
Q 2097 3866 1919 4016 
Q 1791 4119 1609 4119 
Q 1397 4119 1231 3928 
Q 1006 3669 925 3112 
Q 844 2556 844 2016 
z
" transform="scale(0.015625)"/>
       </defs>
       <use xlink:href="#TimesNewRomanPSMT-30"/>
      </g>
     </g>
    </g>
    <g id="xtick_2">
     <g id="line2d_3">
      <path d="M 164.0448 269.568 
L 164.0448 41.472 
" clip-path="url(#p23a647b4b2)" style="fill: none; stroke: #cccccc; stroke-opacity: 0; stroke-width: 0.8; stroke-linecap: round"/>
     </g>
     <g id="line2d_4"/>
     <g id="text_2">
      <!-- 20 -->
      <g style="fill: #444444" transform="translate(154.0448 288.4555) scale(0.2 -0.2)">
       <defs>
        <path id="TimesNewRomanPSMT-32" d="M 2934 816 
L 2638 0 
L 138 0 
L 138 116 
Q 1241 1122 1691 1759 
Q 2141 2397 2141 2925 
Q 2141 3328 1894 3587 
Q 1647 3847 1303 3847 
Q 991 3847 742 3664 
Q 494 3481 375 3128 
L 259 3128 
Q 338 3706 661 4015 
Q 984 4325 1469 4325 
Q 1984 4325 2329 3994 
Q 2675 3663 2675 3213 
Q 2675 2891 2525 2569 
Q 2294 2063 1775 1497 
Q 997 647 803 472 
L 1909 472 
Q 2247 472 2383 497 
Q 2519 522 2628 598 
Q 2738 675 2819 816 
L 2934 816 
z
" transform="scale(0.015625)"/>
       </defs>
       <use xlink:href="#TimesNewRomanPSMT-32"/>
       <use xlink:href="#TimesNewRomanPSMT-30" x="50"/>
      </g>
     </g>
    </g>
    <g id="xtick_3">
     <g id="line2d_5">
      <path d="M 226.7136 269.568 
L 226.7136 41.472 
" clip-path="url(#p23a647b4b2)" style="fill: none; stroke: #cccccc; stroke-opacity: 0; stroke-width: 0.8; stroke-linecap: round"/>
     </g>
     <g id="line2d_6"/>
     <g id="text_3">
      <!-- 40 -->
      <g style="fill: #444444" transform="translate(216.7136 288.4555) scale(0.2 -0.2)">
       <defs>
        <path id="TimesNewRomanPSMT-34" d="M 2978 1563 
L 2978 1119 
L 2409 1119 
L 2409 0 
L 1894 0 
L 1894 1119 
L 100 1119 
L 100 1519 
L 2066 4325 
L 2409 4325 
L 2409 1563 
L 2978 1563 
z
M 1894 1563 
L 1894 3666 
L 406 1563 
L 1894 1563 
z
" transform="scale(0.015625)"/>
       </defs>
       <use xlink:href="#TimesNewRomanPSMT-34"/>
       <use xlink:href="#TimesNewRomanPSMT-30" x="50"/>
      </g>
     </g>
    </g>
    <g id="xtick_4">
     <g id="line2d_7">
      <path d="M 289.3824 269.568 
L 289.3824 41.472 
" clip-path="url(#p23a647b4b2)" style="fill: none; stroke: #cccccc; stroke-opacity: 0; stroke-width: 0.8; stroke-linecap: round"/>
     </g>
     <g id="line2d_8"/>
     <g id="text_4">
      <!-- 60 -->
      <g style="fill: #444444" transform="translate(279.3824 288.4555) scale(0.2 -0.2)">
       <defs>
        <path id="TimesNewRomanPSMT-36" d="M 2869 4325 
L 2869 4209 
Q 2456 4169 2195 4045 
Q 1934 3922 1679 3669 
Q 1425 3416 1258 3105 
Q 1091 2794 978 2366 
Q 1428 2675 1881 2675 
Q 2316 2675 2634 2325 
Q 2953 1975 2953 1425 
Q 2953 894 2631 456 
Q 2244 -75 1606 -75 
Q 1172 -75 869 213 
Q 275 772 275 1663 
Q 275 2231 503 2743 
Q 731 3256 1154 3653 
Q 1578 4050 1965 4187 
Q 2353 4325 2688 4325 
L 2869 4325 
z
M 925 2138 
Q 869 1716 869 1456 
Q 869 1156 980 804 
Q 1091 453 1309 247 
Q 1469 100 1697 100 
Q 1969 100 2183 356 
Q 2397 613 2397 1088 
Q 2397 1622 2184 2012 
Q 1972 2403 1581 2403 
Q 1463 2403 1327 2353 
Q 1191 2303 925 2138 
z
" transform="scale(0.015625)"/>
       </defs>
       <use xlink:href="#TimesNewRomanPSMT-36"/>
       <use xlink:href="#TimesNewRomanPSMT-30" x="50"/>
      </g>
     </g>
    </g>
    <g id="xtick_5">
     <g id="line2d_9">
      <path d="M 352.0512 269.568 
L 352.0512 41.472 
" clip-path="url(#p23a647b4b2)" style="fill: none; stroke: #cccccc; stroke-opacity: 0; stroke-width: 0.8; stroke-linecap: round"/>
     </g>
     <g id="line2d_10"/>
     <g id="text_5">
      <!-- 80 -->
      <g style="fill: #444444" transform="translate(342.0512 288.4555) scale(0.2 -0.2)">
       <defs>
        <path id="TimesNewRomanPSMT-38" d="M 1228 2134 
Q 725 2547 579 2797 
Q 434 3047 434 3316 
Q 434 3728 753 4026 
Q 1072 4325 1600 4325 
Q 2113 4325 2425 4047 
Q 2738 3769 2738 3413 
Q 2738 3175 2569 2928 
Q 2400 2681 1866 2347 
Q 2416 1922 2594 1678 
Q 2831 1359 2831 1006 
Q 2831 559 2490 242 
Q 2150 -75 1597 -75 
Q 994 -75 656 303 
Q 388 606 388 966 
Q 388 1247 577 1523 
Q 766 1800 1228 2134 
z
M 1719 2469 
Q 2094 2806 2194 3001 
Q 2294 3197 2294 3444 
Q 2294 3772 2109 3958 
Q 1925 4144 1606 4144 
Q 1288 4144 1088 3959 
Q 888 3775 888 3528 
Q 888 3366 970 3203 
Q 1053 3041 1206 2894 
L 1719 2469 
z
M 1375 2016 
Q 1116 1797 991 1539 
Q 866 1281 866 981 
Q 866 578 1086 336 
Q 1306 94 1647 94 
Q 1984 94 2187 284 
Q 2391 475 2391 747 
Q 2391 972 2272 1150 
Q 2050 1481 1375 2016 
z
" transform="scale(0.015625)"/>
       </defs>
       <use xlink:href="#TimesNewRomanPSMT-38"/>
       <use xlink:href="#TimesNewRomanPSMT-30" x="50"/>
      </g>
     </g>
    </g>
    <g id="xtick_6">
     <g id="line2d_11">
      <path d="M 414.72 269.568 
L 414.72 41.472 
" clip-path="url(#p23a647b4b2)" style="fill: none; stroke: #cccccc; stroke-opacity: 0; stroke-width: 0.8; stroke-linecap: round"/>
     </g>
     <g id="line2d_12"/>
     <g id="text_6">
      <!-- 100 -->
      <g style="fill: #444444" transform="translate(399.72 288.4555) scale(0.2 -0.2)">
       <defs>
        <path id="TimesNewRomanPSMT-31" d="M 750 3822 
L 1781 4325 
L 1884 4325 
L 1884 747 
Q 1884 391 1914 303 
Q 1944 216 2037 169 
Q 2131 122 2419 116 
L 2419 0 
L 825 0 
L 825 116 
Q 1125 122 1212 167 
Q 1300 213 1334 289 
Q 1369 366 1369 747 
L 1369 3034 
Q 1369 3497 1338 3628 
Q 1316 3728 1258 3775 
Q 1200 3822 1119 3822 
Q 1003 3822 797 3725 
L 750 3822 
z
" transform="scale(0.015625)"/>
       </defs>
       <use xlink:href="#TimesNewRomanPSMT-31"/>
       <use xlink:href="#TimesNewRomanPSMT-30" x="50"/>
       <use xlink:href="#TimesNewRomanPSMT-30" x="100"/>
      </g>
     </g>
    </g>
    <g id="text_7">
     <!-- Timesteps -->
     <g style="fill: #444444" transform="translate(207.104641 322.093) scale(0.25 -0.25)">
      <defs>
       <path id="TimesNewRomanPSMT-54" d="M 3703 4238 
L 3750 3244 
L 3631 3244 
Q 3597 3506 3538 3619 
Q 3441 3800 3280 3886 
Q 3119 3972 2856 3972 
L 2259 3972 
L 2259 734 
Q 2259 344 2344 247 
Q 2463 116 2709 116 
L 2856 116 
L 2856 0 
L 1059 0 
L 1059 116 
L 1209 116 
Q 1478 116 1591 278 
Q 1659 378 1659 734 
L 1659 3972 
L 1150 3972 
Q 853 3972 728 3928 
Q 566 3869 450 3700 
Q 334 3531 313 3244 
L 194 3244 
L 244 4238 
L 3703 4238 
z
" transform="scale(0.015625)"/>
       <path id="TimesNewRomanPSMT-69" d="M 928 4444 
Q 1059 4444 1151 4351 
Q 1244 4259 1244 4128 
Q 1244 3997 1151 3903 
Q 1059 3809 928 3809 
Q 797 3809 703 3903 
Q 609 3997 609 4128 
Q 609 4259 701 4351 
Q 794 4444 928 4444 
z
M 1188 2947 
L 1188 647 
Q 1188 378 1227 289 
Q 1266 200 1342 156 
Q 1419 113 1622 113 
L 1622 0 
L 231 0 
L 231 113 
Q 441 113 512 153 
Q 584 194 626 287 
Q 669 381 669 647 
L 669 1750 
Q 669 2216 641 2353 
Q 619 2453 572 2492 
Q 525 2531 444 2531 
Q 356 2531 231 2484 
L 188 2597 
L 1050 2947 
L 1188 2947 
z
" transform="scale(0.015625)"/>
       <path id="TimesNewRomanPSMT-6d" d="M 1050 2338 
Q 1363 2650 1419 2697 
Q 1559 2816 1721 2881 
Q 1884 2947 2044 2947 
Q 2313 2947 2506 2790 
Q 2700 2634 2766 2338 
Q 3088 2713 3309 2830 
Q 3531 2947 3766 2947 
Q 3994 2947 4170 2830 
Q 4347 2713 4450 2447 
Q 4519 2266 4519 1878 
L 4519 647 
Q 4519 378 4559 278 
Q 4591 209 4675 161 
Q 4759 113 4950 113 
L 4950 0 
L 3538 0 
L 3538 113 
L 3597 113 
Q 3781 113 3884 184 
Q 3956 234 3988 344 
Q 4000 397 4000 647 
L 4000 1878 
Q 4000 2228 3916 2372 
Q 3794 2572 3525 2572 
Q 3359 2572 3192 2489 
Q 3025 2406 2788 2181 
L 2781 2147 
L 2788 2013 
L 2788 647 
Q 2788 353 2820 281 
Q 2853 209 2943 161 
Q 3034 113 3253 113 
L 3253 0 
L 1806 0 
L 1806 113 
Q 2044 113 2133 169 
Q 2222 225 2256 338 
Q 2272 391 2272 647 
L 2272 1878 
Q 2272 2228 2169 2381 
Q 2031 2581 1784 2581 
Q 1616 2581 1450 2491 
Q 1191 2353 1050 2181 
L 1050 647 
Q 1050 366 1089 281 
Q 1128 197 1204 155 
Q 1281 113 1516 113 
L 1516 0 
L 100 0 
L 100 113 
Q 297 113 375 155 
Q 453 197 493 289 
Q 534 381 534 647 
L 534 1741 
Q 534 2213 506 2350 
Q 484 2453 437 2492 
Q 391 2531 309 2531 
Q 222 2531 100 2484 
L 53 2597 
L 916 2947 
L 1050 2947 
L 1050 2338 
z
" transform="scale(0.015625)"/>
       <path id="TimesNewRomanPSMT-65" d="M 681 1784 
Q 678 1147 991 784 
Q 1303 422 1725 422 
Q 2006 422 2214 576 
Q 2422 731 2563 1106 
L 2659 1044 
Q 2594 616 2278 264 
Q 1963 -88 1488 -88 
Q 972 -88 605 314 
Q 238 716 238 1394 
Q 238 2128 614 2539 
Q 991 2950 1559 2950 
Q 2041 2950 2350 2633 
Q 2659 2316 2659 1784 
L 681 1784 
z
M 681 1966 
L 2006 1966 
Q 1991 2241 1941 2353 
Q 1863 2528 1708 2628 
Q 1553 2728 1384 2728 
Q 1125 2728 920 2526 
Q 716 2325 681 1966 
z
" transform="scale(0.015625)"/>
       <path id="TimesNewRomanPSMT-73" d="M 2050 2947 
L 2050 1972 
L 1947 1972 
Q 1828 2431 1642 2597 
Q 1456 2763 1169 2763 
Q 950 2763 815 2647 
Q 681 2531 681 2391 
Q 681 2216 781 2091 
Q 878 1963 1175 1819 
L 1631 1597 
Q 2266 1288 2266 781 
Q 2266 391 1970 151 
Q 1675 -88 1309 -88 
Q 1047 -88 709 6 
Q 606 38 541 38 
Q 469 38 428 -44 
L 325 -44 
L 325 978 
L 428 978 
Q 516 541 762 319 
Q 1009 97 1316 97 
Q 1531 97 1667 223 
Q 1803 350 1803 528 
Q 1803 744 1651 891 
Q 1500 1038 1047 1263 
Q 594 1488 453 1669 
Q 313 1847 313 2119 
Q 313 2472 555 2709 
Q 797 2947 1181 2947 
Q 1350 2947 1591 2875 
Q 1750 2828 1803 2828 
Q 1853 2828 1881 2850 
Q 1909 2872 1947 2947 
L 2050 2947 
z
" transform="scale(0.015625)"/>
       <path id="TimesNewRomanPSMT-74" d="M 1031 3803 
L 1031 2863 
L 1700 2863 
L 1700 2644 
L 1031 2644 
L 1031 788 
Q 1031 509 1111 412 
Q 1191 316 1316 316 
Q 1419 316 1516 380 
Q 1613 444 1666 569 
L 1788 569 
Q 1678 263 1478 108 
Q 1278 -47 1066 -47 
Q 922 -47 784 33 
Q 647 113 581 261 
Q 516 409 516 719 
L 516 2644 
L 63 2644 
L 63 2747 
Q 234 2816 414 2980 
Q 594 3144 734 3369 
Q 806 3488 934 3803 
L 1031 3803 
z
" transform="scale(0.015625)"/>
       <path id="TimesNewRomanPSMT-70" d="M -6 2578 
L 875 2934 
L 994 2934 
L 994 2266 
Q 1216 2644 1439 2795 
Q 1663 2947 1909 2947 
Q 2341 2947 2628 2609 
Q 2981 2197 2981 1534 
Q 2981 794 2556 309 
Q 2206 -88 1675 -88 
Q 1444 -88 1275 -22 
Q 1150 25 994 166 
L 994 -706 
Q 994 -1000 1030 -1079 
Q 1066 -1159 1155 -1206 
Q 1244 -1253 1478 -1253 
L 1478 -1369 
L -22 -1369 
L -22 -1253 
L 56 -1253 
Q 228 -1256 350 -1188 
Q 409 -1153 442 -1076 
Q 475 -1000 475 -688 
L 475 2019 
Q 475 2297 450 2372 
Q 425 2447 370 2484 
Q 316 2522 222 2522 
Q 147 2522 31 2478 
L -6 2578 
z
M 994 2081 
L 994 1013 
Q 994 666 1022 556 
Q 1066 375 1236 237 
Q 1406 100 1666 100 
Q 1978 100 2172 344 
Q 2425 663 2425 1241 
Q 2425 1897 2138 2250 
Q 1938 2494 1663 2494 
Q 1513 2494 1366 2419 
Q 1253 2363 994 2081 
z
" transform="scale(0.015625)"/>
      </defs>
      <use xlink:href="#TimesNewRomanPSMT-54"/>
      <use xlink:href="#TimesNewRomanPSMT-69" x="57.583984"/>
      <use xlink:href="#TimesNewRomanPSMT-6d" x="85.367188"/>
      <use xlink:href="#TimesNewRomanPSMT-65" x="163.150391"/>
      <use xlink:href="#TimesNewRomanPSMT-73" x="207.535156"/>
      <use xlink:href="#TimesNewRomanPSMT-74" x="246.451172"/>
      <use xlink:href="#TimesNewRomanPSMT-65" x="274.234375"/>
      <use xlink:href="#TimesNewRomanPSMT-70" x="318.619141"/>
      <use xlink:href="#TimesNewRomanPSMT-73" x="368.619141"/>
     </g>
    </g>
   </g>
   <g id="matplotlib.axis_2">
    <g id="ytick_1">
     <g id="line2d_13">
      <path d="M 101.376 228.039371 
L 414.72 228.039371 
" clip-path="url(#p23a647b4b2)" style="fill: none; stroke: #cccccc; stroke-opacity: 0.4; stroke-width: 1.5; stroke-linecap: round"/>
     </g>
     <g id="line2d_14"/>
     <g id="text_8">
      <!-- −20 -->
      <g style="fill: #444444" transform="translate(65.097875 234.983121) scale(0.2 -0.2)">
       <defs>
        <path id="TimesNewRomanPSMT-2212" d="M 3484 2000 
L 116 2000 
L 116 2256 
L 3484 2256 
L 3484 2000 
z
" transform="scale(0.015625)"/>
       </defs>
       <use xlink:href="#TimesNewRomanPSMT-2212"/>
       <use xlink:href="#TimesNewRomanPSMT-32" x="56.396484"/>
       <use xlink:href="#TimesNewRomanPSMT-30" x="106.396484"/>
      </g>
     </g>
    </g>
    <g id="ytick_2">
     <g id="line2d_15">
      <path d="M 101.376 178.821669 
L 414.72 178.821669 
" clip-path="url(#p23a647b4b2)" style="fill: none; stroke: #cccccc; stroke-opacity: 0.4; stroke-width: 1.5; stroke-linecap: round"/>
     </g>
     <g id="line2d_16"/>
     <g id="text_9">
      <!-- −10 -->
      <g style="fill: #444444" transform="translate(65.097875 185.765419) scale(0.2 -0.2)">
       <use xlink:href="#TimesNewRomanPSMT-2212"/>
       <use xlink:href="#TimesNewRomanPSMT-31" x="56.396484"/>
       <use xlink:href="#TimesNewRomanPSMT-30" x="106.396484"/>
      </g>
     </g>
    </g>
    <g id="ytick_3">
     <g id="line2d_17">
      <path d="M 101.376 129.603968 
L 414.72 129.603968 
" clip-path="url(#p23a647b4b2)" style="fill: none; stroke: #cccccc; stroke-opacity: 0.4; stroke-width: 1.5; stroke-linecap: round"/>
     </g>
     <g id="line2d_18"/>
     <g id="text_10">
      <!-- 0 -->
      <g style="fill: #444444" transform="translate(86.376 136.547718) scale(0.2 -0.2)">
       <use xlink:href="#TimesNewRomanPSMT-30"/>
      </g>
     </g>
    </g>
    <g id="ytick_4">
     <g id="line2d_19">
      <path d="M 101.376 80.386267 
L 414.72 80.386267 
" clip-path="url(#p23a647b4b2)" style="fill: none; stroke: #cccccc; stroke-opacity: 0.4; stroke-width: 1.5; stroke-linecap: round"/>
     </g>
     <g id="line2d_20"/>
     <g id="text_11">
      <!-- 10 -->
      <g style="fill: #444444" transform="translate(76.376 87.330017) scale(0.2 -0.2)">
       <use xlink:href="#TimesNewRomanPSMT-31"/>
       <use xlink:href="#TimesNewRomanPSMT-30" x="50"/>
      </g>
     </g>
    </g>
    <g id="text_12">
     <!-- Pressure (kPa) -->
     <g style="fill: #444444" transform="translate(47.750219 228.072734) rotate(-90) scale(0.25 -0.25)">
      <defs>
       <path id="TimesNewRomanPSMT-50" d="M 1313 1984 
L 1313 750 
Q 1313 350 1400 253 
Q 1519 116 1759 116 
L 1922 116 
L 1922 0 
L 106 0 
L 106 116 
L 266 116 
Q 534 116 650 291 
Q 713 388 713 750 
L 713 3488 
Q 713 3888 628 3984 
Q 506 4122 266 4122 
L 106 4122 
L 106 4238 
L 1659 4238 
Q 2228 4238 2556 4120 
Q 2884 4003 3109 3725 
Q 3334 3447 3334 3066 
Q 3334 2547 2992 2222 
Q 2650 1897 2025 1897 
Q 1872 1897 1694 1919 
Q 1516 1941 1313 1984 
z
M 1313 2163 
Q 1478 2131 1606 2115 
Q 1734 2100 1825 2100 
Q 2150 2100 2386 2351 
Q 2622 2603 2622 3003 
Q 2622 3278 2509 3514 
Q 2397 3750 2190 3867 
Q 1984 3984 1722 3984 
Q 1563 3984 1313 3925 
L 1313 2163 
z
" transform="scale(0.015625)"/>
       <path id="TimesNewRomanPSMT-72" d="M 1038 2947 
L 1038 2303 
Q 1397 2947 1775 2947 
Q 1947 2947 2059 2842 
Q 2172 2738 2172 2600 
Q 2172 2478 2090 2393 
Q 2009 2309 1897 2309 
Q 1788 2309 1652 2417 
Q 1516 2525 1450 2525 
Q 1394 2525 1328 2463 
Q 1188 2334 1038 2041 
L 1038 669 
Q 1038 431 1097 309 
Q 1138 225 1241 169 
Q 1344 113 1538 113 
L 1538 0 
L 72 0 
L 72 113 
Q 291 113 397 181 
Q 475 231 506 341 
Q 522 394 522 644 
L 522 1753 
Q 522 2253 501 2348 
Q 481 2444 426 2487 
Q 372 2531 291 2531 
Q 194 2531 72 2484 
L 41 2597 
L 906 2947 
L 1038 2947 
z
" transform="scale(0.015625)"/>
       <path id="TimesNewRomanPSMT-75" d="M 2709 2863 
L 2709 1128 
Q 2709 631 2732 520 
Q 2756 409 2807 365 
Q 2859 322 2928 322 
Q 3025 322 3147 375 
L 3191 266 
L 2334 -88 
L 2194 -88 
L 2194 519 
Q 1825 119 1631 15 
Q 1438 -88 1222 -88 
Q 981 -88 804 51 
Q 628 191 559 409 
Q 491 628 491 1028 
L 491 2306 
Q 491 2509 447 2587 
Q 403 2666 317 2708 
Q 231 2750 6 2747 
L 6 2863 
L 1009 2863 
L 1009 947 
Q 1009 547 1148 422 
Q 1288 297 1484 297 
Q 1619 297 1789 381 
Q 1959 466 2194 703 
L 2194 2325 
Q 2194 2569 2105 2655 
Q 2016 2741 1734 2747 
L 1734 2863 
L 2709 2863 
z
" transform="scale(0.015625)"/>
       <path id="TimesNewRomanPSMT-20" transform="scale(0.015625)"/>
       <path id="TimesNewRomanPSMT-28" d="M 1988 -1253 
L 1988 -1369 
Q 1516 -1131 1200 -813 
Q 750 -359 506 256 
Q 263 872 263 1534 
Q 263 2503 741 3301 
Q 1219 4100 1988 4444 
L 1988 4313 
Q 1603 4100 1356 3731 
Q 1109 3363 987 2797 
Q 866 2231 866 1616 
Q 866 947 969 400 
Q 1050 -31 1165 -292 
Q 1281 -553 1476 -793 
Q 1672 -1034 1988 -1253 
z
" transform="scale(0.015625)"/>
       <path id="TimesNewRomanPSMT-6b" d="M 1047 4444 
L 1047 1594 
L 1775 2259 
Q 2006 2472 2044 2528 
Q 2069 2566 2069 2603 
Q 2069 2666 2017 2711 
Q 1966 2756 1847 2763 
L 1847 2863 
L 3091 2863 
L 3091 2763 
Q 2834 2756 2664 2684 
Q 2494 2613 2291 2428 
L 1556 1750 
L 2291 822 
Q 2597 438 2703 334 
Q 2853 188 2966 144 
Q 3044 113 3238 113 
L 3238 0 
L 1847 0 
L 1847 113 
Q 1966 116 2008 148 
Q 2050 181 2050 241 
Q 2050 313 1925 472 
L 1047 1594 
L 1047 644 
Q 1047 366 1086 278 
Q 1125 191 1197 153 
Q 1269 116 1509 113 
L 1509 0 
L 53 0 
L 53 113 
Q 272 113 381 166 
Q 447 200 481 272 
Q 528 375 528 628 
L 528 3234 
Q 528 3731 506 3842 
Q 484 3953 434 3995 
Q 384 4038 303 4038 
Q 238 4038 106 3984 
L 53 4094 
L 903 4444 
L 1047 4444 
z
" transform="scale(0.015625)"/>
       <path id="TimesNewRomanPSMT-61" d="M 1822 413 
Q 1381 72 1269 19 
Q 1100 -59 909 -59 
Q 613 -59 420 144 
Q 228 347 228 678 
Q 228 888 322 1041 
Q 450 1253 767 1440 
Q 1084 1628 1822 1897 
L 1822 2009 
Q 1822 2438 1686 2597 
Q 1550 2756 1291 2756 
Q 1094 2756 978 2650 
Q 859 2544 859 2406 
L 866 2225 
Q 866 2081 792 2003 
Q 719 1925 600 1925 
Q 484 1925 411 2006 
Q 338 2088 338 2228 
Q 338 2497 613 2722 
Q 888 2947 1384 2947 
Q 1766 2947 2009 2819 
Q 2194 2722 2281 2516 
Q 2338 2381 2338 1966 
L 2338 994 
Q 2338 584 2353 492 
Q 2369 400 2405 369 
Q 2441 338 2488 338 
Q 2538 338 2575 359 
Q 2641 400 2828 588 
L 2828 413 
Q 2478 -56 2159 -56 
Q 2006 -56 1915 50 
Q 1825 156 1822 413 
z
M 1822 616 
L 1822 1706 
Q 1350 1519 1213 1441 
Q 966 1303 859 1153 
Q 753 1003 753 825 
Q 753 600 887 451 
Q 1022 303 1197 303 
Q 1434 303 1822 616 
z
" transform="scale(0.015625)"/>
       <path id="TimesNewRomanPSMT-29" d="M 144 4313 
L 144 4444 
Q 619 4209 934 3891 
Q 1381 3434 1625 2820 
Q 1869 2206 1869 1541 
Q 1869 572 1392 -226 
Q 916 -1025 144 -1369 
L 144 -1253 
Q 528 -1038 776 -670 
Q 1025 -303 1145 264 
Q 1266 831 1266 1447 
Q 1266 2113 1163 2663 
Q 1084 3094 967 3353 
Q 850 3613 656 3853 
Q 463 4094 144 4313 
z
" transform="scale(0.015625)"/>
      </defs>
      <use xlink:href="#TimesNewRomanPSMT-50"/>
      <use xlink:href="#TimesNewRomanPSMT-72" x="55.615234"/>
      <use xlink:href="#TimesNewRomanPSMT-65" x="88.916016"/>
      <use xlink:href="#TimesNewRomanPSMT-73" x="133.300781"/>
      <use xlink:href="#TimesNewRomanPSMT-73" x="172.216797"/>
      <use xlink:href="#TimesNewRomanPSMT-75" x="211.132812"/>
      <use xlink:href="#TimesNewRomanPSMT-72" x="261.132812"/>
      <use xlink:href="#TimesNewRomanPSMT-65" x="294.433594"/>
      <use xlink:href="#TimesNewRomanPSMT-20" x="338.818359"/>
      <use xlink:href="#TimesNewRomanPSMT-28" x="363.818359"/>
      <use xlink:href="#TimesNewRomanPSMT-6b" x="397.119141"/>
      <use xlink:href="#TimesNewRomanPSMT-50" x="447.119141"/>
      <use xlink:href="#TimesNewRomanPSMT-61" x="502.734375"/>
      <use xlink:href="#TimesNewRomanPSMT-29" x="547.119141"/>
     </g>
    </g>
   </g>
   <g id="line2d_21">
    <path d="M 104.50944 65.128779 
L 107.64288 129.111791 
L 110.77632 128.127437 
L 113.90976 83.831506 
L 117.0432 83.339329 
L 120.17664 84.323683 
L 123.31008 95.643754 
L 126.44352 97.612462 
L 129.57696 97.612462 
L 132.7104 86.784568 
L 135.84384 87.276745 
L 138.97728 87.276745 
L 142.11072 73.495789 
L 145.24416 73.495789 
L 148.3776 73.495789 
L 151.51104 69.066195 
L 154.64448 75.956674 
L 157.77792 75.956674 
L 160.91136 88.261099 
L 164.0448 90.721984 
L 167.17824 90.721984 
L 170.31168 84.323683 
L 173.44512 85.308037 
L 176.57856 85.308037 
L 179.712 78.417559 
L 182.84544 77.925382 
L 185.97888 78.417559 
L 189.11232 71.034904 
L 192.24576 71.527081 
L 195.3792 71.527081 
L 198.51264 80.878444 
L 201.64608 79.401913 
L 204.77952 79.401913 
L 207.91296 79.401913 
L 211.0464 79.401913 
L 214.17984 79.401913 
L 217.31328 84.323683 
L 220.44672 85.308037 
L 223.58016 85.308037 
L 226.7136 109.424711 
L 229.84704 135.017915 
L 232.98048 147.814518 
L 236.11392 157.658058 
L 239.24736 157.165881 
L 242.3808 165.040713 
L 245.51424 167.501598 
L 248.64768 167.501598 
L 251.78112 157.658058 
L 254.91456 158.150235 
L 258.048 158.150235 
L 261.18144 167.993775 
L 264.31488 167.501598 
L 267.44832 167.009421 
L 270.58176 159.134589 
L 273.7152 159.626766 
L 276.84864 160.61112 
L 279.98208 171.931191 
L 283.11552 171.931191 
L 286.24896 177.837315 
L 289.3824 182.266908 
L 292.51584 181.774731 
L 295.64928 174.392076 
L 298.78272 175.37643 
L 301.91616 175.868607 
L 305.0496 184.235617 
L 308.18304 182.759085 
L 311.31648 185.712148 
L 314.44992 189.649564 
L 317.58336 189.157387 
L 320.7168 189.157387 
L 323.85024 188.66521 
L 326.98368 188.66521 
L 330.11712 206.875759 
L 333.25056 207.860113 
L 336.384 207.367936 
L 339.51744 203.43052 
L 342.65088 202.446166 
L 345.78432 202.938343 
L 348.91776 167.993775 
L 352.0512 148.306695 
L 355.18464 150.275403 
L 358.31808 108.440357 
L 361.45152 96.628108 
L 364.58496 98.596816 
L 367.7184 119.268251 
L 370.85184 119.268251 
L 373.98528 118.776074 
L 377.11872 111.393419 
L 380.25216 112.377773 
L 383.3856 112.377773 
L 386.51904 124.190021 
L 389.65248 124.190021 
L 392.78592 123.697844 
L 395.91936 116.807366 
L 399.0528 117.79172 
L 402.18624 117.79172 
L 405.31968 122.221313 
L 408.45312 123.205667 
L 411.58656 122.71349 
L 414.72 120.252605 
" clip-path="url(#p23a647b4b2)" style="fill: none; stroke-dasharray: 9.25,4; stroke-dashoffset: 0; stroke: #82b0d2; stroke-width: 2.5"/>
   </g>
   <g id="line2d_22">
    <path d="M 107.64288 70.42508 
L 110.77632 70.134351 
L 113.90976 69.843623 
L 117.0432 69.552894 
L 120.17664 69.262165 
L 123.31008 68.971436 
L 126.44352 68.680708 
L 129.57696 68.389979 
L 132.7104 68.09925 
L 135.84384 67.808522 
L 138.97728 67.517793 
L 142.11072 67.227064 
L 145.24416 66.936336 
L 148.3776 66.645607 
L 151.51104 66.354878 
L 154.64448 66.06415 
L 157.77792 65.773421 
L 160.91136 65.482692 
L 164.0448 65.191964 
L 167.17824 64.901235 
L 170.31168 64.610506 
L 173.44512 64.319778 
L 176.57856 64.029049 
L 179.712 63.73832 
L 182.84544 63.447592 
L 185.97888 63.156863 
L 189.11232 62.866134 
L 192.24576 62.575406 
L 195.3792 62.284677 
L 198.51264 61.993948 
L 201.64608 61.70322 
L 204.77952 61.412491 
L 207.91296 61.121762 
L 211.0464 60.831033 
L 214.17984 60.540305 
L 217.31328 60.249576 
L 220.44672 59.958847 
L 223.58016 59.668119 
L 226.7136 59.37739 
L 229.84704 182.904456 
L 232.98048 182.613728 
L 236.11392 182.322999 
L 239.24736 182.03227 
L 242.3808 181.741542 
L 245.51424 181.450813 
L 248.64768 181.160084 
L 251.78112 180.869356 
L 254.91456 180.578627 
L 258.048 180.287898 
L 261.18144 179.99717 
L 264.31488 179.706441 
L 267.44832 179.415712 
L 270.58176 179.124984 
L 273.7152 178.834255 
L 276.84864 178.543526 
L 279.98208 178.252798 
L 283.11552 219.41603 
L 286.24896 219.125302 
L 289.3824 218.834573 
L 292.51584 218.543844 
L 295.64928 218.253116 
L 298.78272 217.962387 
L 301.91616 217.671658 
L 305.0496 217.38093 
L 308.18304 235.442954 
L 311.31648 235.152225 
L 314.44992 234.861496 
L 317.58336 234.570768 
L 320.7168 234.280039 
L 323.85024 233.98931 
L 326.98368 233.698582 
L 330.11712 233.407853 
L 333.25056 233.117124 
L 336.384 232.826396 
L 339.51744 232.535667 
L 342.65088 232.244938 
L 345.78432 231.954209 
L 348.91776 107.845686 
L 352.0512 107.554957 
L 355.18464 107.264228 
L 358.31808 106.9735 
L 361.45152 106.682771 
L 364.58496 106.392042 
L 367.7184 106.101314 
L 370.85184 105.810585 
L 373.98528 105.519856 
L 377.11872 105.229128 
L 380.25216 104.938399 
L 383.3856 104.64767 
L 386.51904 104.356942 
L 389.65248 104.066213 
L 392.78592 103.775484 
L 395.91936 103.484756 
L 399.0528 103.194027 
L 402.18624 102.903298 
L 405.31968 102.61257 
L 408.45312 102.321841 
L 411.58656 102.031112 
L 414.72 101.740384 
L 417.85344 101.449655 
L 420.98688 101.158926 
L 424.12032 100.868197 
" clip-path="url(#p23a647b4b2)" style="fill: none; stroke: #82b0d2; stroke-width: 2.5; stroke-linecap: round"/>
   </g>
   <g id="line2d_23">
    <path d="M 104.50944 51.84 
L 107.64288 129.603968 
L 110.77632 178.329492 
L 113.90976 196.047865 
L 117.0432 195.063511 
L 120.17664 201.953989 
L 123.31008 202.446166 
L 126.44352 201.953989 
L 129.57696 213.27406 
L 132.7104 214.258419 
L 135.84384 213.766237 
L 138.97728 213.27406 
L 142.11072 213.27406 
L 145.24416 212.781883 
L 148.3776 202.446166 
L 151.51104 200.969635 
L 154.64448 200.969635 
L 157.77792 181.774731 
L 160.91136 179.806023 
L 164.0448 180.2982 
L 167.17824 167.993775 
L 170.31168 164.056359 
L 173.44512 164.056359 
L 176.57856 153.228465 
L 179.712 152.244111 
L 182.84544 152.244111 
L 185.97888 150.275403 
L 189.11232 149.783226 
L 192.24576 150.275403 
L 195.3792 140.924039 
L 198.51264 138.955331 
L 201.64608 139.447508 
L 204.77952 134.033561 
L 207.91296 133.541384 
L 211.0464 133.541384 
L 214.17984 133.541384 
L 217.31328 133.541384 
L 220.44672 133.541384 
L 223.58016 144.861455 
L 226.7136 148.306695 
L 229.84704 148.306695 
L 232.98048 147.814518 
L 236.11392 148.306695 
L 239.24736 155.68935 
L 242.3808 158.150235 
L 245.51424 158.150235 
L 248.64768 169.470306 
L 251.78112 174.392076 
L 254.91456 173.899899 
L 258.048 176.852961 
L 261.18144 177.345138 
L 264.31488 177.345138 
L 267.44832 177.345138 
L 270.58176 176.360784 
L 273.7152 176.852961 
L 276.84864 188.173033 
L 279.98208 193.094803 
L 283.11552 192.602626 
L 286.24896 192.602626 
L 289.3824 192.110449 
L 292.51584 197.524396 
L 295.64928 199.493104 
L 298.78272 199.493104 
L 301.91616 208.35229 
L 305.0496 209.336649 
L 308.18304 209.336649 
L 311.31648 209.336649 
L 314.44992 208.844467 
L 317.58336 208.844467 
L 320.7168 208.844467 
L 323.85024 208.35229 
L 326.98368 221.148893 
L 330.11712 222.133242 
L 333.25056 221.641074 
L 336.384 223.609778 
L 339.51744 223.609778 
L 342.65088 223.609778 
L 345.78432 222.133242 
L 348.91776 221.641074 
L 352.0512 221.641074 
L 355.18464 221.641074 
L 358.31808 221.641074 
L 361.45152 221.641074 
L 364.58496 205.399228 
L 367.7184 203.43052 
L 370.85184 203.922697 
L 373.98528 205.399228 
L 377.11872 205.399228 
L 380.25216 205.399228 
L 383.3856 187.680856 
L 386.51904 178.821669 
L 389.65248 178.821669 
L 392.78592 176.360784 
L 395.91936 175.868607 
L 399.0528 175.868607 
L 402.18624 162.087651 
L 405.31968 160.118943 
L 408.45312 160.118943 
L 411.58656 151.259757 
L 414.72 150.275403 
" clip-path="url(#p23a647b4b2)" style="fill: none; stroke-dasharray: 9.25,4; stroke-dashoffset: 0; stroke: #fa9f6f; stroke-width: 2.5"/>
   </g>
   <g id="line2d_24">
    <path d="M 107.64288 259.2 
L 110.77632 254.856557 
L 113.90976 250.334532 
L 117.0432 245.65462 
L 120.17664 240.838365 
L 123.31008 235.908049 
L 126.44352 230.886567 
L 129.57696 225.797306 
L 132.7104 220.664023 
L 135.84384 215.51071 
L 138.97728 210.361473 
L 142.11072 205.240397 
L 145.24416 200.171419 
L 148.3776 195.1782 
L 151.51104 190.283994 
L 154.64448 185.51153 
L 157.77792 180.882883 
L 160.91136 176.419359 
L 164.0448 172.14138 
L 167.17824 168.068374 
L 170.31168 164.21867 
L 173.44512 160.6094 
L 176.57856 157.256407 
L 179.712 154.17416 
L 182.84544 151.375676 
L 185.97888 148.87245 
L 189.11232 146.674391 
L 192.24576 144.789774 
L 195.3792 143.225187 
L 198.51264 141.985507 
L 201.64608 141.073861 
L 204.77952 140.491619 
L 207.91296 140.238381 
L 211.0464 140.311982 
L 214.17984 140.7085 
L 217.31328 141.422281 
L 220.44672 142.445967 
L 223.58016 143.770535 
L 226.7136 145.385346 
L 229.84704 147.278202 
L 232.98048 149.435411 
L 236.11392 151.841862 
L 239.24736 154.481102 
L 242.3808 157.33543 
L 245.51424 160.385987 
L 248.64768 163.612859 
L 251.78112 166.995185 
L 254.91456 170.511265 
L 258.048 174.138683 
L 261.18144 177.85442 
L 264.31488 181.634984 
L 267.44832 185.45653 
L 270.58176 189.294993 
L 273.7152 193.126214 
L 276.84864 196.926073 
L 279.98208 200.670614 
L 283.11552 204.336177 
L 286.24896 207.899524 
L 289.3824 211.337964 
L 292.51584 214.629472 
L 295.64928 217.752815 
L 298.78272 220.687655 
L 301.91616 223.414669 
L 305.0496 225.915645 
L 308.18304 228.173584 
L 311.31648 230.172788 
L 314.44992 231.89895 
L 317.58336 233.339224 
L 320.7168 234.482298 
L 323.85024 235.318454 
L 326.98368 235.839622 
L 330.11712 236.03942 
L 333.25056 235.91319 
L 336.384 235.458023 
L 339.51744 234.672776 
L 342.65088 233.558076 
L 345.78432 232.116319 
L 348.91776 230.351655 
L 352.0512 228.269966 
L 355.18464 225.878837 
L 358.31808 223.187513 
L 361.45152 220.20685 
L 364.58496 216.949258 
L 367.7184 213.428631 
L 370.85184 209.660278 
L 373.98528 205.660835 
L 377.11872 201.448181 
L 380.25216 197.041338 
L 383.3856 192.460371 
L 386.51904 187.726282 
L 389.65248 182.860891 
L 392.78592 177.886727 
L 395.91936 172.826903 
L 399.0528 167.704991 
L 402.18624 162.544898 
L 405.31968 157.370735 
L 408.45312 152.206692 
L 411.58656 147.076903 
L 414.72 142.00532 
L 417.85344 137.015582 
L 420.98688 132.130893 
L 424.12032 127.37389 
" clip-path="url(#p23a647b4b2)" style="fill: none; stroke: #fa9f6f; stroke-width: 2.5; stroke-linecap: round"/>
   </g>
   <g id="patch_3">
    <path d="M 101.376 269.568 
L 101.376 41.472 
" style="fill: none; stroke: #cccccc; stroke-linejoin: miter; stroke-linecap: square"/>
   </g>
   <g id="patch_4">
    <path d="M 414.72 269.568 
L 414.72 41.472 
" style="fill: none; stroke: #cccccc; stroke-linejoin: miter; stroke-linecap: square"/>
   </g>
   <g id="patch_5">
    <path d="M 101.376 269.568 
L 414.72 269.568 
" style="fill: none; stroke: #cccccc; stroke-linejoin: miter; stroke-linecap: square"/>
   </g>
   <g id="patch_6">
    <path d="M 101.376 41.472 
L 414.72 41.472 
" style="fill: none; stroke: #cccccc; stroke-linejoin: miter; stroke-linecap: square"/>
   </g>
  </g>
 </g>
 <defs>
  <clipPath id="p23a647b4b2">
   <rect x="101.376" y="41.472" width="313.344" height="228.096"/>
  </clipPath>
 </defs>
</svg>
