<?xml version="1.0" encoding="utf-8" standalone="no"?>
<!DOCTYPE svg PUBLIC "-//W3C//DTD SVG 1.1//EN"
  "http://www.w3.org/Graphics/SVG/1.1/DTD/svg11.dtd">
<svg xmlns:xlink="http://www.w3.org/1999/xlink" width="460.8pt" height="345.6pt" viewBox="0 0 460.8 345.6" xmlns="http://www.w3.org/2000/svg" version="1.1">
 <metadata>
  <rdf:RDF xmlns:dc="http://purl.org/dc/elements/1.1/" xmlns:cc="http://creativecommons.org/ns#" xmlns:rdf="http://www.w3.org/1999/02/22-rdf-syntax-ns#">
   <cc:Work>
    <dc:type rdf:resource="http://purl.org/dc/dcmitype/StillImage"/>
    <dc:date>2023-02-13T10:13:36.152463</dc:date>
    <dc:format>image/svg+xml</dc:format>
    <dc:creator>
     <cc:Agent>
      <dc:title>Matplotlib v3.6.2, https://matplotlib.org/</dc:title>
     </cc:Agent>
    </dc:creator>
   </cc:Work>
  </rdf:RDF>
 </metadata>
 <defs>
  <style type="text/css">*{stroke-linejoin: round; stroke-linecap: butt}</style>
 </defs>
 <g id="figure_1">
  <g id="patch_1">
   <path d="M 0 345.6 
L 460.8 345.6 
L 460.8 0 
L 0 0 
z
" style="fill: #ffffff"/>
  </g>
  <g id="axes_1">
   <g id="patch_2">
    <path d="M 101.376 269.568 
L 414.72 269.568 
L 414.72 41.472 
L 101.376 41.472 
z
" style="fill: #ffffff"/>
   </g>
   <g id="matplotlib.axis_1">
    <g id="xtick_1">
     <g id="line2d_1">
      <path d="M 101.376 269.568 
L 101.376 41.472 
" clip-path="url(#pcb921716b5)" style="fill: none; stroke: #cccccc; stroke-opacity: 0; stroke-width: 0.8; stroke-linecap: round"/>
     </g>
     <g id="line2d_2"/>
     <g id="text_1">
      <!-- 0 -->
      <g style="fill: #444444" transform="translate(96.376 288.4555) scale(0.2 -0.2)">
       <defs>
        <path id="TimesNewRomanPSMT-30" d="M 231 2094 
Q 231 2819 450 3342 
Q 669 3866 1031 4122 
Q 1313 4325 1613 4325 
Q 2100 4325 2488 3828 
Q 2972 3213 2972 2159 
Q 2972 1422 2759 906 
Q 2547 391 2217 158 
Q 1888 -75 1581 -75 
Q 975 -75 572 641 
Q 231 1244 231 2094 
z
M 844 2016 
Q 844 1141 1059 588 
Q 1238 122 1591 122 
Q 1759 122 1940 273 
Q 2122 425 2216 781 
Q 2359 1319 2359 2297 
Q 2359 3022 2209 3506 
Q 2097 3866 1919 4016 
Q 1791 4119 1609 4119 
Q 1397 4119 1231 3928 
Q 1006 3669 925 3112 
Q 844 2556 844 2016 
z
" transform="scale(0.015625)"/>
       </defs>
       <use xlink:href="#TimesNewRomanPSMT-30"/>
      </g>
     </g>
    </g>
    <g id="xtick_2">
     <g id="line2d_3">
      <path d="M 164.0448 269.568 
L 164.0448 41.472 
" clip-path="url(#pcb921716b5)" style="fill: none; stroke: #cccccc; stroke-opacity: 0; stroke-width: 0.8; stroke-linecap: round"/>
     </g>
     <g id="line2d_4"/>
     <g id="text_2">
      <!-- 20 -->
      <g style="fill: #444444" transform="translate(154.0448 288.4555) scale(0.2 -0.2)">
       <defs>
        <path id="TimesNewRomanPSMT-32" d="M 2934 816 
L 2638 0 
L 138 0 
L 138 116 
Q 1241 1122 1691 1759 
Q 2141 2397 2141 2925 
Q 2141 3328 1894 3587 
Q 1647 3847 1303 3847 
Q 991 3847 742 3664 
Q 494 3481 375 3128 
L 259 3128 
Q 338 3706 661 4015 
Q 984 4325 1469 4325 
Q 1984 4325 2329 3994 
Q 2675 3663 2675 3213 
Q 2675 2891 2525 2569 
Q 2294 2063 1775 1497 
Q 997 647 803 472 
L 1909 472 
Q 2247 472 2383 497 
Q 2519 522 2628 598 
Q 2738 675 2819 816 
L 2934 816 
z
" transform="scale(0.015625)"/>
       </defs>
       <use xlink:href="#TimesNewRomanPSMT-32"/>
       <use xlink:href="#TimesNewRomanPSMT-30" x="50"/>
      </g>
     </g>
    </g>
    <g id="xtick_3">
     <g id="line2d_5">
      <path d="M 226.7136 269.568 
L 226.7136 41.472 
" clip-path="url(#pcb921716b5)" style="fill: none; stroke: #cccccc; stroke-opacity: 0; stroke-width: 0.8; stroke-linecap: round"/>
     </g>
     <g id="line2d_6"/>
     <g id="text_3">
      <!-- 40 -->
      <g style="fill: #444444" transform="translate(216.7136 288.4555) scale(0.2 -0.2)">
       <defs>
        <path id="TimesNewRomanPSMT-34" d="M 2978 1563 
L 2978 1119 
L 2409 1119 
L 2409 0 
L 1894 0 
L 1894 1119 
L 100 1119 
L 100 1519 
L 2066 4325 
L 2409 4325 
L 2409 1563 
L 2978 1563 
z
M 1894 1563 
L 1894 3666 
L 406 1563 
L 1894 1563 
z
" transform="scale(0.015625)"/>
       </defs>
       <use xlink:href="#TimesNewRomanPSMT-34"/>
       <use xlink:href="#TimesNewRomanPSMT-30" x="50"/>
      </g>
     </g>
    </g>
    <g id="xtick_4">
     <g id="line2d_7">
      <path d="M 289.3824 269.568 
L 289.3824 41.472 
" clip-path="url(#pcb921716b5)" style="fill: none; stroke: #cccccc; stroke-opacity: 0; stroke-width: 0.8; stroke-linecap: round"/>
     </g>
     <g id="line2d_8"/>
     <g id="text_4">
      <!-- 60 -->
      <g style="fill: #444444" transform="translate(279.3824 288.4555) scale(0.2 -0.2)">
       <defs>
        <path id="TimesNewRomanPSMT-36" d="M 2869 4325 
L 2869 4209 
Q 2456 4169 2195 4045 
Q 1934 3922 1679 3669 
Q 1425 3416 1258 3105 
Q 1091 2794 978 2366 
Q 1428 2675 1881 2675 
Q 2316 2675 2634 2325 
Q 2953 1975 2953 1425 
Q 2953 894 2631 456 
Q 2244 -75 1606 -75 
Q 1172 -75 869 213 
Q 275 772 275 1663 
Q 275 2231 503 2743 
Q 731 3256 1154 3653 
Q 1578 4050 1965 4187 
Q 2353 4325 2688 4325 
L 2869 4325 
z
M 925 2138 
Q 869 1716 869 1456 
Q 869 1156 980 804 
Q 1091 453 1309 247 
Q 1469 100 1697 100 
Q 1969 100 2183 356 
Q 2397 613 2397 1088 
Q 2397 1622 2184 2012 
Q 1972 2403 1581 2403 
Q 1463 2403 1327 2353 
Q 1191 2303 925 2138 
z
" transform="scale(0.015625)"/>
       </defs>
       <use xlink:href="#TimesNewRomanPSMT-36"/>
       <use xlink:href="#TimesNewRomanPSMT-30" x="50"/>
      </g>
     </g>
    </g>
    <g id="xtick_5">
     <g id="line2d_9">
      <path d="M 352.0512 269.568 
L 352.0512 41.472 
" clip-path="url(#pcb921716b5)" style="fill: none; stroke: #cccccc; stroke-opacity: 0; stroke-width: 0.8; stroke-linecap: round"/>
     </g>
     <g id="line2d_10"/>
     <g id="text_5">
      <!-- 80 -->
      <g style="fill: #444444" transform="translate(342.0512 288.4555) scale(0.2 -0.2)">
       <defs>
        <path id="TimesNewRomanPSMT-38" d="M 1228 2134 
Q 725 2547 579 2797 
Q 434 3047 434 3316 
Q 434 3728 753 4026 
Q 1072 4325 1600 4325 
Q 2113 4325 2425 4047 
Q 2738 3769 2738 3413 
Q 2738 3175 2569 2928 
Q 2400 2681 1866 2347 
Q 2416 1922 2594 1678 
Q 2831 1359 2831 1006 
Q 2831 559 2490 242 
Q 2150 -75 1597 -75 
Q 994 -75 656 303 
Q 388 606 388 966 
Q 388 1247 577 1523 
Q 766 1800 1228 2134 
z
M 1719 2469 
Q 2094 2806 2194 3001 
Q 2294 3197 2294 3444 
Q 2294 3772 2109 3958 
Q 1925 4144 1606 4144 
Q 1288 4144 1088 3959 
Q 888 3775 888 3528 
Q 888 3366 970 3203 
Q 1053 3041 1206 2894 
L 1719 2469 
z
M 1375 2016 
Q 1116 1797 991 1539 
Q 866 1281 866 981 
Q 866 578 1086 336 
Q 1306 94 1647 94 
Q 1984 94 2187 284 
Q 2391 475 2391 747 
Q 2391 972 2272 1150 
Q 2050 1481 1375 2016 
z
" transform="scale(0.015625)"/>
       </defs>
       <use xlink:href="#TimesNewRomanPSMT-38"/>
       <use xlink:href="#TimesNewRomanPSMT-30" x="50"/>
      </g>
     </g>
    </g>
    <g id="xtick_6">
     <g id="line2d_11">
      <path d="M 414.72 269.568 
L 414.72 41.472 
" clip-path="url(#pcb921716b5)" style="fill: none; stroke: #cccccc; stroke-opacity: 0; stroke-width: 0.8; stroke-linecap: round"/>
     </g>
     <g id="line2d_12"/>
     <g id="text_6">
      <!-- 100 -->
      <g style="fill: #444444" transform="translate(399.72 288.4555) scale(0.2 -0.2)">
       <defs>
        <path id="TimesNewRomanPSMT-31" d="M 750 3822 
L 1781 4325 
L 1884 4325 
L 1884 747 
Q 1884 391 1914 303 
Q 1944 216 2037 169 
Q 2131 122 2419 116 
L 2419 0 
L 825 0 
L 825 116 
Q 1125 122 1212 167 
Q 1300 213 1334 289 
Q 1369 366 1369 747 
L 1369 3034 
Q 1369 3497 1338 3628 
Q 1316 3728 1258 3775 
Q 1200 3822 1119 3822 
Q 1003 3822 797 3725 
L 750 3822 
z
" transform="scale(0.015625)"/>
       </defs>
       <use xlink:href="#TimesNewRomanPSMT-31"/>
       <use xlink:href="#TimesNewRomanPSMT-30" x="50"/>
       <use xlink:href="#TimesNewRomanPSMT-30" x="100"/>
      </g>
     </g>
    </g>
    <g id="text_7">
     <!-- Timesteps -->
     <g style="fill: #444444" transform="translate(207.104641 322.093) scale(0.25 -0.25)">
      <defs>
       <path id="TimesNewRomanPSMT-54" d="M 3703 4238 
L 3750 3244 
L 3631 3244 
Q 3597 3506 3538 3619 
Q 3441 3800 3280 3886 
Q 3119 3972 2856 3972 
L 2259 3972 
L 2259 734 
Q 2259 344 2344 247 
Q 2463 116 2709 116 
L 2856 116 
L 2856 0 
L 1059 0 
L 1059 116 
L 1209 116 
Q 1478 116 1591 278 
Q 1659 378 1659 734 
L 1659 3972 
L 1150 3972 
Q 853 3972 728 3928 
Q 566 3869 450 3700 
Q 334 3531 313 3244 
L 194 3244 
L 244 4238 
L 3703 4238 
z
" transform="scale(0.015625)"/>
       <path id="TimesNewRomanPSMT-69" d="M 928 4444 
Q 1059 4444 1151 4351 
Q 1244 4259 1244 4128 
Q 1244 3997 1151 3903 
Q 1059 3809 928 3809 
Q 797 3809 703 3903 
Q 609 3997 609 4128 
Q 609 4259 701 4351 
Q 794 4444 928 4444 
z
M 1188 2947 
L 1188 647 
Q 1188 378 1227 289 
Q 1266 200 1342 156 
Q 1419 113 1622 113 
L 1622 0 
L 231 0 
L 231 113 
Q 441 113 512 153 
Q 584 194 626 287 
Q 669 381 669 647 
L 669 1750 
Q 669 2216 641 2353 
Q 619 2453 572 2492 
Q 525 2531 444 2531 
Q 356 2531 231 2484 
L 188 2597 
L 1050 2947 
L 1188 2947 
z
" transform="scale(0.015625)"/>
       <path id="TimesNewRomanPSMT-6d" d="M 1050 2338 
Q 1363 2650 1419 2697 
Q 1559 2816 1721 2881 
Q 1884 2947 2044 2947 
Q 2313 2947 2506 2790 
Q 2700 2634 2766 2338 
Q 3088 2713 3309 2830 
Q 3531 2947 3766 2947 
Q 3994 2947 4170 2830 
Q 4347 2713 4450 2447 
Q 4519 2266 4519 1878 
L 4519 647 
Q 4519 378 4559 278 
Q 4591 209 4675 161 
Q 4759 113 4950 113 
L 4950 0 
L 3538 0 
L 3538 113 
L 3597 113 
Q 3781 113 3884 184 
Q 3956 234 3988 344 
Q 4000 397 4000 647 
L 4000 1878 
Q 4000 2228 3916 2372 
Q 3794 2572 3525 2572 
Q 3359 2572 3192 2489 
Q 3025 2406 2788 2181 
L 2781 2147 
L 2788 2013 
L 2788 647 
Q 2788 353 2820 281 
Q 2853 209 2943 161 
Q 3034 113 3253 113 
L 3253 0 
L 1806 0 
L 1806 113 
Q 2044 113 2133 169 
Q 2222 225 2256 338 
Q 2272 391 2272 647 
L 2272 1878 
Q 2272 2228 2169 2381 
Q 2031 2581 1784 2581 
Q 1616 2581 1450 2491 
Q 1191 2353 1050 2181 
L 1050 647 
Q 1050 366 1089 281 
Q 1128 197 1204 155 
Q 1281 113 1516 113 
L 1516 0 
L 100 0 
L 100 113 
Q 297 113 375 155 
Q 453 197 493 289 
Q 534 381 534 647 
L 534 1741 
Q 534 2213 506 2350 
Q 484 2453 437 2492 
Q 391 2531 309 2531 
Q 222 2531 100 2484 
L 53 2597 
L 916 2947 
L 1050 2947 
L 1050 2338 
z
" transform="scale(0.015625)"/>
       <path id="TimesNewRomanPSMT-65" d="M 681 1784 
Q 678 1147 991 784 
Q 1303 422 1725 422 
Q 2006 422 2214 576 
Q 2422 731 2563 1106 
L 2659 1044 
Q 2594 616 2278 264 
Q 1963 -88 1488 -88 
Q 972 -88 605 314 
Q 238 716 238 1394 
Q 238 2128 614 2539 
Q 991 2950 1559 2950 
Q 2041 2950 2350 2633 
Q 2659 2316 2659 1784 
L 681 1784 
z
M 681 1966 
L 2006 1966 
Q 1991 2241 1941 2353 
Q 1863 2528 1708 2628 
Q 1553 2728 1384 2728 
Q 1125 2728 920 2526 
Q 716 2325 681 1966 
z
" transform="scale(0.015625)"/>
       <path id="TimesNewRomanPSMT-73" d="M 2050 2947 
L 2050 1972 
L 1947 1972 
Q 1828 2431 1642 2597 
Q 1456 2763 1169 2763 
Q 950 2763 815 2647 
Q 681 2531 681 2391 
Q 681 2216 781 2091 
Q 878 1963 1175 1819 
L 1631 1597 
Q 2266 1288 2266 781 
Q 2266 391 1970 151 
Q 1675 -88 1309 -88 
Q 1047 -88 709 6 
Q 606 38 541 38 
Q 469 38 428 -44 
L 325 -44 
L 325 978 
L 428 978 
Q 516 541 762 319 
Q 1009 97 1316 97 
Q 1531 97 1667 223 
Q 1803 350 1803 528 
Q 1803 744 1651 891 
Q 1500 1038 1047 1263 
Q 594 1488 453 1669 
Q 313 1847 313 2119 
Q 313 2472 555 2709 
Q 797 2947 1181 2947 
Q 1350 2947 1591 2875 
Q 1750 2828 1803 2828 
Q 1853 2828 1881 2850 
Q 1909 2872 1947 2947 
L 2050 2947 
z
" transform="scale(0.015625)"/>
       <path id="TimesNewRomanPSMT-74" d="M 1031 3803 
L 1031 2863 
L 1700 2863 
L 1700 2644 
L 1031 2644 
L 1031 788 
Q 1031 509 1111 412 
Q 1191 316 1316 316 
Q 1419 316 1516 380 
Q 1613 444 1666 569 
L 1788 569 
Q 1678 263 1478 108 
Q 1278 -47 1066 -47 
Q 922 -47 784 33 
Q 647 113 581 261 
Q 516 409 516 719 
L 516 2644 
L 63 2644 
L 63 2747 
Q 234 2816 414 2980 
Q 594 3144 734 3369 
Q 806 3488 934 3803 
L 1031 3803 
z
" transform="scale(0.015625)"/>
       <path id="TimesNewRomanPSMT-70" d="M -6 2578 
L 875 2934 
L 994 2934 
L 994 2266 
Q 1216 2644 1439 2795 
Q 1663 2947 1909 2947 
Q 2341 2947 2628 2609 
Q 2981 2197 2981 1534 
Q 2981 794 2556 309 
Q 2206 -88 1675 -88 
Q 1444 -88 1275 -22 
Q 1150 25 994 166 
L 994 -706 
Q 994 -1000 1030 -1079 
Q 1066 -1159 1155 -1206 
Q 1244 -1253 1478 -1253 
L 1478 -1369 
L -22 -1369 
L -22 -1253 
L 56 -1253 
Q 228 -1256 350 -1188 
Q 409 -1153 442 -1076 
Q 475 -1000 475 -688 
L 475 2019 
Q 475 2297 450 2372 
Q 425 2447 370 2484 
Q 316 2522 222 2522 
Q 147 2522 31 2478 
L -6 2578 
z
M 994 2081 
L 994 1013 
Q 994 666 1022 556 
Q 1066 375 1236 237 
Q 1406 100 1666 100 
Q 1978 100 2172 344 
Q 2425 663 2425 1241 
Q 2425 1897 2138 2250 
Q 1938 2494 1663 2494 
Q 1513 2494 1366 2419 
Q 1253 2363 994 2081 
z
" transform="scale(0.015625)"/>
      </defs>
      <use xlink:href="#TimesNewRomanPSMT-54"/>
      <use xlink:href="#TimesNewRomanPSMT-69" x="57.583984"/>
      <use xlink:href="#TimesNewRomanPSMT-6d" x="85.367188"/>
      <use xlink:href="#TimesNewRomanPSMT-65" x="163.150391"/>
      <use xlink:href="#TimesNewRomanPSMT-73" x="207.535156"/>
      <use xlink:href="#TimesNewRomanPSMT-74" x="246.451172"/>
      <use xlink:href="#TimesNewRomanPSMT-65" x="274.234375"/>
      <use xlink:href="#TimesNewRomanPSMT-70" x="318.619141"/>
      <use xlink:href="#TimesNewRomanPSMT-73" x="368.619141"/>
     </g>
    </g>
   </g>
   <g id="matplotlib.axis_2">
    <g id="ytick_1">
     <g id="line2d_13">
      <path d="M 101.376 259.2 
L 414.72 259.2 
" clip-path="url(#pcb921716b5)" style="fill: none; stroke: #cccccc; stroke-opacity: 0.4; stroke-width: 1.5; stroke-linecap: round"/>
     </g>
     <g id="line2d_14"/>
     <g id="text_8">
      <!-- 0 -->
      <g style="fill: #444444" transform="translate(86.376 266.14375) scale(0.2 -0.2)">
       <use xlink:href="#TimesNewRomanPSMT-30"/>
      </g>
     </g>
    </g>
    <g id="ytick_2">
     <g id="line2d_15">
      <path d="M 101.376 208.251598 
L 414.72 208.251598 
" clip-path="url(#pcb921716b5)" style="fill: none; stroke: #cccccc; stroke-opacity: 0.4; stroke-width: 1.5; stroke-linecap: round"/>
     </g>
     <g id="line2d_16"/>
     <g id="text_9">
      <!-- 10 -->
      <g style="fill: #444444" transform="translate(76.376 215.195348) scale(0.2 -0.2)">
       <use xlink:href="#TimesNewRomanPSMT-31"/>
       <use xlink:href="#TimesNewRomanPSMT-30" x="50"/>
      </g>
     </g>
    </g>
    <g id="ytick_3">
     <g id="line2d_17">
      <path d="M 101.376 157.303197 
L 414.72 157.303197 
" clip-path="url(#pcb921716b5)" style="fill: none; stroke: #cccccc; stroke-opacity: 0.4; stroke-width: 1.5; stroke-linecap: round"/>
     </g>
     <g id="line2d_18"/>
     <g id="text_10">
      <!-- 20 -->
      <g style="fill: #444444" transform="translate(76.376 164.246947) scale(0.2 -0.2)">
       <use xlink:href="#TimesNewRomanPSMT-32"/>
       <use xlink:href="#TimesNewRomanPSMT-30" x="50"/>
      </g>
     </g>
    </g>
    <g id="ytick_4">
     <g id="line2d_19">
      <path d="M 101.376 106.354795 
L 414.72 106.354795 
" clip-path="url(#pcb921716b5)" style="fill: none; stroke: #cccccc; stroke-opacity: 0.4; stroke-width: 1.5; stroke-linecap: round"/>
     </g>
     <g id="line2d_20"/>
     <g id="text_11">
      <!-- 30 -->
      <g style="fill: #444444" transform="translate(76.376 113.298545) scale(0.2 -0.2)">
       <defs>
        <path id="TimesNewRomanPSMT-33" d="M 325 3431 
Q 506 3859 782 4092 
Q 1059 4325 1472 4325 
Q 1981 4325 2253 3994 
Q 2459 3747 2459 3466 
Q 2459 3003 1878 2509 
Q 2269 2356 2469 2072 
Q 2669 1788 2669 1403 
Q 2669 853 2319 450 
Q 1863 -75 997 -75 
Q 569 -75 414 31 
Q 259 138 259 259 
Q 259 350 332 419 
Q 406 488 509 488 
Q 588 488 669 463 
Q 722 447 909 348 
Q 1097 250 1169 231 
Q 1284 197 1416 197 
Q 1734 197 1970 444 
Q 2206 691 2206 1028 
Q 2206 1275 2097 1509 
Q 2016 1684 1919 1775 
Q 1784 1900 1550 2001 
Q 1316 2103 1072 2103 
L 972 2103 
L 972 2197 
Q 1219 2228 1467 2375 
Q 1716 2522 1828 2728 
Q 1941 2934 1941 3181 
Q 1941 3503 1739 3701 
Q 1538 3900 1238 3900 
Q 753 3900 428 3381 
L 325 3431 
z
" transform="scale(0.015625)"/>
       </defs>
       <use xlink:href="#TimesNewRomanPSMT-33"/>
       <use xlink:href="#TimesNewRomanPSMT-30" x="50"/>
      </g>
     </g>
    </g>
    <g id="ytick_5">
     <g id="line2d_21">
      <path d="M 101.376 55.406393 
L 414.72 55.406393 
" clip-path="url(#pcb921716b5)" style="fill: none; stroke: #cccccc; stroke-opacity: 0.4; stroke-width: 1.5; stroke-linecap: round"/>
     </g>
     <g id="line2d_22"/>
     <g id="text_12">
      <!-- 40 -->
      <g style="fill: #444444" transform="translate(76.376 62.350143) scale(0.2 -0.2)">
       <use xlink:href="#TimesNewRomanPSMT-34"/>
       <use xlink:href="#TimesNewRomanPSMT-30" x="50"/>
      </g>
     </g>
    </g>
    <g id="text_13">
     <!-- Pressure (kPa) -->
     <g style="fill: #444444" transform="translate(59.028344 228.072734) rotate(-90) scale(0.25 -0.25)">
      <defs>
       <path id="TimesNewRomanPSMT-50" d="M 1313 1984 
L 1313 750 
Q 1313 350 1400 253 
Q 1519 116 1759 116 
L 1922 116 
L 1922 0 
L 106 0 
L 106 116 
L 266 116 
Q 534 116 650 291 
Q 713 388 713 750 
L 713 3488 
Q 713 3888 628 3984 
Q 506 4122 266 4122 
L 106 4122 
L 106 4238 
L 1659 4238 
Q 2228 4238 2556 4120 
Q 2884 4003 3109 3725 
Q 3334 3447 3334 3066 
Q 3334 2547 2992 2222 
Q 2650 1897 2025 1897 
Q 1872 1897 1694 1919 
Q 1516 1941 1313 1984 
z
M 1313 2163 
Q 1478 2131 1606 2115 
Q 1734 2100 1825 2100 
Q 2150 2100 2386 2351 
Q 2622 2603 2622 3003 
Q 2622 3278 2509 3514 
Q 2397 3750 2190 3867 
Q 1984 3984 1722 3984 
Q 1563 3984 1313 3925 
L 1313 2163 
z
" transform="scale(0.015625)"/>
       <path id="TimesNewRomanPSMT-72" d="M 1038 2947 
L 1038 2303 
Q 1397 2947 1775 2947 
Q 1947 2947 2059 2842 
Q 2172 2738 2172 2600 
Q 2172 2478 2090 2393 
Q 2009 2309 1897 2309 
Q 1788 2309 1652 2417 
Q 1516 2525 1450 2525 
Q 1394 2525 1328 2463 
Q 1188 2334 1038 2041 
L 1038 669 
Q 1038 431 1097 309 
Q 1138 225 1241 169 
Q 1344 113 1538 113 
L 1538 0 
L 72 0 
L 72 113 
Q 291 113 397 181 
Q 475 231 506 341 
Q 522 394 522 644 
L 522 1753 
Q 522 2253 501 2348 
Q 481 2444 426 2487 
Q 372 2531 291 2531 
Q 194 2531 72 2484 
L 41 2597 
L 906 2947 
L 1038 2947 
z
" transform="scale(0.015625)"/>
       <path id="TimesNewRomanPSMT-75" d="M 2709 2863 
L 2709 1128 
Q 2709 631 2732 520 
Q 2756 409 2807 365 
Q 2859 322 2928 322 
Q 3025 322 3147 375 
L 3191 266 
L 2334 -88 
L 2194 -88 
L 2194 519 
Q 1825 119 1631 15 
Q 1438 -88 1222 -88 
Q 981 -88 804 51 
Q 628 191 559 409 
Q 491 628 491 1028 
L 491 2306 
Q 491 2509 447 2587 
Q 403 2666 317 2708 
Q 231 2750 6 2747 
L 6 2863 
L 1009 2863 
L 1009 947 
Q 1009 547 1148 422 
Q 1288 297 1484 297 
Q 1619 297 1789 381 
Q 1959 466 2194 703 
L 2194 2325 
Q 2194 2569 2105 2655 
Q 2016 2741 1734 2747 
L 1734 2863 
L 2709 2863 
z
" transform="scale(0.015625)"/>
       <path id="TimesNewRomanPSMT-20" transform="scale(0.015625)"/>
       <path id="TimesNewRomanPSMT-28" d="M 1988 -1253 
L 1988 -1369 
Q 1516 -1131 1200 -813 
Q 750 -359 506 256 
Q 263 872 263 1534 
Q 263 2503 741 3301 
Q 1219 4100 1988 4444 
L 1988 4313 
Q 1603 4100 1356 3731 
Q 1109 3363 987 2797 
Q 866 2231 866 1616 
Q 866 947 969 400 
Q 1050 -31 1165 -292 
Q 1281 -553 1476 -793 
Q 1672 -1034 1988 -1253 
z
" transform="scale(0.015625)"/>
       <path id="TimesNewRomanPSMT-6b" d="M 1047 4444 
L 1047 1594 
L 1775 2259 
Q 2006 2472 2044 2528 
Q 2069 2566 2069 2603 
Q 2069 2666 2017 2711 
Q 1966 2756 1847 2763 
L 1847 2863 
L 3091 2863 
L 3091 2763 
Q 2834 2756 2664 2684 
Q 2494 2613 2291 2428 
L 1556 1750 
L 2291 822 
Q 2597 438 2703 334 
Q 2853 188 2966 144 
Q 3044 113 3238 113 
L 3238 0 
L 1847 0 
L 1847 113 
Q 1966 116 2008 148 
Q 2050 181 2050 241 
Q 2050 313 1925 472 
L 1047 1594 
L 1047 644 
Q 1047 366 1086 278 
Q 1125 191 1197 153 
Q 1269 116 1509 113 
L 1509 0 
L 53 0 
L 53 113 
Q 272 113 381 166 
Q 447 200 481 272 
Q 528 375 528 628 
L 528 3234 
Q 528 3731 506 3842 
Q 484 3953 434 3995 
Q 384 4038 303 4038 
Q 238 4038 106 3984 
L 53 4094 
L 903 4444 
L 1047 4444 
z
" transform="scale(0.015625)"/>
       <path id="TimesNewRomanPSMT-61" d="M 1822 413 
Q 1381 72 1269 19 
Q 1100 -59 909 -59 
Q 613 -59 420 144 
Q 228 347 228 678 
Q 228 888 322 1041 
Q 450 1253 767 1440 
Q 1084 1628 1822 1897 
L 1822 2009 
Q 1822 2438 1686 2597 
Q 1550 2756 1291 2756 
Q 1094 2756 978 2650 
Q 859 2544 859 2406 
L 866 2225 
Q 866 2081 792 2003 
Q 719 1925 600 1925 
Q 484 1925 411 2006 
Q 338 2088 338 2228 
Q 338 2497 613 2722 
Q 888 2947 1384 2947 
Q 1766 2947 2009 2819 
Q 2194 2722 2281 2516 
Q 2338 2381 2338 1966 
L 2338 994 
Q 2338 584 2353 492 
Q 2369 400 2405 369 
Q 2441 338 2488 338 
Q 2538 338 2575 359 
Q 2641 400 2828 588 
L 2828 413 
Q 2478 -56 2159 -56 
Q 2006 -56 1915 50 
Q 1825 156 1822 413 
z
M 1822 616 
L 1822 1706 
Q 1350 1519 1213 1441 
Q 966 1303 859 1153 
Q 753 1003 753 825 
Q 753 600 887 451 
Q 1022 303 1197 303 
Q 1434 303 1822 616 
z
" transform="scale(0.015625)"/>
       <path id="TimesNewRomanPSMT-29" d="M 144 4313 
L 144 4444 
Q 619 4209 934 3891 
Q 1381 3434 1625 2820 
Q 1869 2206 1869 1541 
Q 1869 572 1392 -226 
Q 916 -1025 144 -1369 
L 144 -1253 
Q 528 -1038 776 -670 
Q 1025 -303 1145 264 
Q 1266 831 1266 1447 
Q 1266 2113 1163 2663 
Q 1084 3094 967 3353 
Q 850 3613 656 3853 
Q 463 4094 144 4313 
z
" transform="scale(0.015625)"/>
      </defs>
      <use xlink:href="#TimesNewRomanPSMT-50"/>
      <use xlink:href="#TimesNewRomanPSMT-72" x="55.615234"/>
      <use xlink:href="#TimesNewRomanPSMT-65" x="88.916016"/>
      <use xlink:href="#TimesNewRomanPSMT-73" x="133.300781"/>
      <use xlink:href="#TimesNewRomanPSMT-73" x="172.216797"/>
      <use xlink:href="#TimesNewRomanPSMT-75" x="211.132812"/>
      <use xlink:href="#TimesNewRomanPSMT-72" x="261.132812"/>
      <use xlink:href="#TimesNewRomanPSMT-65" x="294.433594"/>
      <use xlink:href="#TimesNewRomanPSMT-20" x="338.818359"/>
      <use xlink:href="#TimesNewRomanPSMT-28" x="363.818359"/>
      <use xlink:href="#TimesNewRomanPSMT-6b" x="397.119141"/>
      <use xlink:href="#TimesNewRomanPSMT-50" x="447.119141"/>
      <use xlink:href="#TimesNewRomanPSMT-61" x="502.734375"/>
      <use xlink:href="#TimesNewRomanPSMT-29" x="547.119141"/>
     </g>
    </g>
   </g>
   <g id="line2d_23">
    <path d="M 104.50944 176.15411 
L 107.64288 229.649927 
L 110.77632 230.159411 
L 113.90976 231.178379 
L 117.0432 125.205709 
L 120.17664 117.053959 
L 123.31008 119.601379 
L 126.44352 121.639315 
L 129.57696 123.167762 
L 132.7104 123.677251 
L 135.84384 125.205709 
L 138.97728 140.490229 
L 142.11072 141.509192 
L 145.24416 141.509192 
L 148.3776 163.41701 
L 151.51104 163.41701 
L 154.64448 163.41701 
L 157.77792 175.644621 
L 160.91136 174.116164 
L 164.0448 174.116164 
L 167.17824 181.758429 
L 170.31168 180.739461 
L 173.44512 180.739461 
L 176.57856 181.248945 
L 179.712 181.758429 
L 182.84544 181.758429 
L 185.97888 198.061918 
L 189.11232 197.04295 
L 192.24576 196.533466 
L 195.3792 180.229977 
L 198.51264 180.739461 
L 201.64608 180.739461 
L 204.77952 181.248945 
L 207.91296 181.248945 
L 211.0464 189.40069 
L 214.17984 189.910174 
L 217.31328 189.910174 
L 220.44672 160.86959 
L 223.58016 162.398037 
L 226.7136 162.907521 
L 229.84704 142.52816 
L 232.98048 146.094543 
L 236.11392 148.641963 
L 239.24736 149.151452 
L 242.3808 149.660936 
L 245.51424 156.793713 
L 248.64768 156.793713 
L 251.78112 156.793713 
L 254.91456 138.961772 
L 258.048 140.490229 
L 261.18144 141.509192 
L 264.31488 119.601379 
L 267.44832 122.658289 
L 270.58176 124.186736 
L 273.7152 89.032328 
L 276.84864 91.579748 
L 279.98208 93.108221 
L 283.11552 67.124521 
L 286.24896 70.18144 
L 289.3824 71.709887 
L 292.51584 63.048653 
L 295.64928 65.0866 
L 298.78272 66.615047 
L 301.91616 51.84 
L 305.0496 54.38742 
L 308.18304 56.425366 
L 311.31648 63.048653 
L 314.44992 63.558127 
L 317.58336 64.5771 
L 320.7168 61.520207 
L 323.85024 62.53918 
L 326.98368 63.558127 
L 330.11712 66.615047 
L 333.25056 67.63402 
L 336.384 68.652967 
L 339.51744 93.617694 
L 342.65088 96.165115 
L 345.78432 96.165115 
L 348.91776 121.129831 
L 352.0512 121.129831 
L 355.18464 120.110868 
L 358.31808 148.132489 
L 361.45152 147.113516 
L 364.58496 146.094543 
L 367.7184 183.796365 
L 370.85184 189.40069 
L 373.98528 188.381722 
L 377.11872 198.571402 
L 380.25216 197.04295 
L 383.3856 196.533466 
L 386.51904 166.983393 
L 389.65248 167.492877 
L 392.78592 168.002361 
L 395.91936 178.701525 
L 399.0528 178.701525 
L 402.18624 178.701525 
L 405.31968 201.118822 
L 408.45312 201.628306 
L 411.58656 201.118822 
L 414.72 195.005014 
" clip-path="url(#pcb921716b5)" style="fill: none; stroke-dasharray: 9.25,4; stroke-dashoffset: 0; stroke: #82b0d2; stroke-width: 2.5"/>
   </g>
   <g id="line2d_24">
    <path d="M 107.64288 81.813533 
L 110.77632 85.415564 
L 113.90976 89.412662 
L 117.0432 93.781431 
L 120.17664 98.494523 
L 123.31008 103.520826 
L 126.44352 108.825687 
L 129.57696 114.371166 
L 132.7104 120.116322 
L 135.84384 126.017532 
L 138.97728 132.028829 
L 142.11072 138.102273 
L 145.24416 144.188334 
L 148.3776 150.236298 
L 151.51104 156.194689 
L 154.64448 162.011695 
L 157.77792 167.635608 
L 160.91136 173.015263 
L 164.0448 178.100483 
L 167.17824 182.842514 
L 170.31168 187.194458 
L 173.44512 191.111687 
L 176.57856 194.552255 
L 179.712 197.477278 
L 182.84544 199.851305 
L 185.97888 201.642654 
L 189.11232 202.823728 
L 192.24576 203.371295 
L 195.3792 203.266741 
L 198.51264 202.496281 
L 201.64608 201.051136 
L 204.77952 198.927672 
L 207.91296 196.127499 
L 211.0464 192.657523 
L 214.17984 188.529962 
L 217.31328 183.762314 
L 220.44672 178.37729 
L 223.58016 172.402693 
L 226.7136 165.871266 
L 229.84704 158.820493 
L 232.98048 151.292361 
L 236.11392 143.333087 
L 239.24736 134.992805 
L 242.3808 126.325221 
L 245.51424 199.640392 
L 248.64768 190.491704 
L 251.78112 181.194368 
L 254.91456 171.81235 
L 258.048 162.411055 
L 261.18144 153.056842 
L 264.31488 143.816525 
L 267.44832 134.756869 
L 270.58176 125.944084 
L 273.7152 117.443315 
L 276.84864 109.318141 
L 279.98208 101.630077 
L 283.11552 94.438099 
L 286.24896 87.79817 
L 289.3824 81.762801 
L 292.51584 76.380625 
L 295.64928 71.696006 
L 298.78272 67.748669 
L 301.91616 64.573373 
L 305.0496 62.199615 
L 308.18304 60.651371 
L 311.31648 59.946883 
L 314.44992 60.098481 
L 317.58336 61.112459 
L 320.7168 62.988984 
L 323.85024 65.722064 
L 326.98368 69.299552 
L 330.11712 73.703201 
L 333.25056 78.908768 
L 336.384 84.886158 
L 339.51744 91.599617 
L 342.65088 99.007967 
L 345.78432 107.064884 
L 348.91776 115.719213 
L 352.0512 124.915324 
L 355.18464 134.5935 
L 358.31808 144.690357 
L 361.45152 155.139298 
L 364.58496 165.870982 
L 367.7184 176.813828 
L 370.85184 187.894525 
L 373.98528 199.038563 
L 377.11872 210.170771 
L 380.25216 221.215867 
L 383.3856 149.845844 
L 386.51904 160.49314 
L 389.65248 170.832245 
L 392.78592 180.792846 
L 395.91936 190.307189 
L 399.0528 199.310574 
L 402.18624 207.741822 
L 405.31968 215.543728 
L 408.45312 222.663472 
L 411.58656 229.05301 
L 414.72 234.669413 
L 417.85344 239.475189 
L 420.98688 243.438544 
L 424.12032 246.533612 
" clip-path="url(#pcb921716b5)" style="fill: none; stroke: #82b0d2; stroke-width: 2.5; stroke-linecap: round"/>
   </g>
   <g id="line2d_25">
    <path d="M 104.50944 189.40069 
L 107.64288 259.2 
L 110.77632 259.2 
L 113.90976 259.2 
L 117.0432 259.2 
L 120.17664 259.2 
L 123.31008 201.628306 
L 126.44352 200.099854 
L 129.57696 200.099854 
L 132.7104 200.099854 
L 135.84384 187.362754 
L 138.97728 188.891206 
L 142.11072 189.40069 
L 145.24416 179.211009 
L 148.3776 180.739461 
L 151.51104 181.248945 
L 154.64448 178.701525 
L 157.77792 179.211009 
L 160.91136 180.229977 
L 164.0448 168.002361 
L 167.17824 169.530813 
L 170.31168 170.040297 
L 173.44512 162.907521 
L 176.57856 163.926484 
L 179.712 164.945457 
L 182.84544 157.303197 
L 185.97888 158.32217 
L 189.11232 159.341133 
L 192.24576 156.284223 
L 195.3792 156.793713 
L 198.51264 157.303197 
L 201.64608 171.568744 
L 204.77952 172.078233 
L 207.91296 172.078233 
L 211.0464 172.078233 
L 214.17984 172.078233 
L 217.31328 150.679909 
L 220.44672 152.208356 
L 223.58016 153.22733 
L 226.7136 151.189383 
L 229.84704 151.698872 
L 232.98048 152.208356 
L 236.11392 152.71784 
L 239.24736 153.22733 
L 242.3808 144.566096 
L 245.51424 145.07558 
L 248.64768 146.094543 
L 251.78112 128.772092 
L 254.91456 131.828996 
L 258.048 132.847969 
L 261.18144 127.753129 
L 264.31488 129.281576 
L 267.44832 129.79106 
L 270.58176 122.658289 
L 273.7152 124.69622 
L 276.84864 125.205709 
L 279.98208 124.69622 
L 283.11552 125.715182 
L 286.24896 125.715182 
L 289.3824 120.110868 
L 292.51584 121.639315 
L 295.64928 122.148799 
L 298.78272 129.79106 
L 301.91616 129.79106 
L 305.0496 129.79106 
L 308.18304 104.826348 
L 311.31648 108.902215 
L 314.44992 109.411699 
L 317.58336 96.165115 
L 320.7168 99.222019 
L 323.85024 100.240982 
L 326.98368 85.975434 
L 330.11712 89.032328 
L 333.25056 90.051301 
L 336.384 88.522854 
L 339.51744 89.541827 
L 342.65088 90.560801 
L 345.78432 88.522854 
L 348.91776 89.541827 
L 352.0512 90.051301 
L 355.18464 151.189383 
L 358.31808 157.303197 
L 361.45152 156.793713 
L 364.58496 166.983393 
L 367.7184 166.473904 
L 370.85184 165.96443 
L 373.98528 142.52816 
L 377.11872 140.490229 
L 380.25216 140.999703 
L 383.3856 155.265261 
L 386.51904 156.793713 
L 389.65248 156.284223 
L 392.78592 150.679909 
L 395.91936 151.189383 
L 399.0528 151.189383 
L 402.18624 151.189383 
L 405.31968 151.189383 
L 408.45312 151.189383 
L 411.58656 147.113516 
L 414.72 147.113516 
" clip-path="url(#pcb921716b5)" style="fill: none; stroke-dasharray: 9.25,4; stroke-dashoffset: 0; stroke: #fa9f6f; stroke-width: 2.5"/>
   </g>
   <g id="line2d_26">
    <path d="M 107.64288 185.193165 
L 110.77632 183.236943 
L 113.90976 181.312469 
L 117.0432 179.422063 
L 120.17664 177.567832 
L 123.31008 175.751657 
L 126.44352 173.97518 
L 129.57696 172.239797 
L 132.7104 170.546647 
L 135.84384 168.896603 
L 138.97728 167.290273 
L 142.11072 165.727987 
L 145.24416 164.209805 
L 148.3776 162.735508 
L 151.51104 161.304603 
L 154.64448 159.916329 
L 157.77792 158.569656 
L 160.91136 157.263294 
L 164.0448 155.995703 
L 167.17824 154.765101 
L 170.31168 153.569473 
L 173.44512 152.406586 
L 176.57856 151.274005 
L 179.712 150.169103 
L 182.84544 149.089081 
L 185.97888 148.030984 
L 189.11232 146.991722 
L 192.24576 145.968086 
L 195.3792 144.956769 
L 198.51264 143.954388 
L 201.64608 142.957503 
L 204.77952 141.962642 
L 207.91296 140.966317 
L 211.0464 139.965053 
L 214.17984 138.955402 
L 217.31328 137.933971 
L 220.44672 136.897439 
L 223.58016 135.842582 
L 226.7136 134.766287 
L 229.84704 133.665576 
L 232.98048 132.537625 
L 236.11392 131.379779 
L 239.24736 130.189569 
L 242.3808 128.96473 
L 245.51424 127.70321 
L 248.64768 126.40319 
L 251.78112 125.063089 
L 254.91456 123.681578 
L 258.048 122.257583 
L 261.18144 120.7903 
L 264.31488 119.279193 
L 267.44832 117.724 
L 270.58176 116.124733 
L 273.7152 114.481681 
L 276.84864 112.795407 
L 279.98208 111.066741 
L 283.11552 109.296782 
L 286.24896 107.486882 
L 289.3824 105.638647 
L 292.51584 103.753919 
L 295.64928 101.834769 
L 298.78272 99.883485 
L 301.91616 97.902552 
L 305.0496 95.894643 
L 308.18304 93.862599 
L 311.31648 91.80941 
L 314.44992 89.7382 
L 317.58336 87.652205 
L 320.7168 85.554753 
L 323.85024 83.449244 
L 326.98368 81.339128 
L 330.11712 79.227884 
L 333.25056 77.118997 
L 336.384 75.015939 
L 339.51744 72.922144 
L 342.65088 70.84099 
L 345.78432 68.775774 
L 348.91776 66.729695 
L 352.0512 64.705832 
L 355.18464 159.099446 
L 358.31808 157.128678 
L 361.45152 155.188458 
L 364.58496 153.281203 
L 367.7184 151.409125 
L 370.85184 149.574217 
L 373.98528 147.778239 
L 377.11872 146.022707 
L 380.25216 144.308886 
L 383.3856 142.63778 
L 386.51904 141.010127 
L 389.65248 139.426391 
L 392.78592 137.886765 
L 395.91936 136.391164 
L 399.0528 164.99498 
L 402.18624 163.58608 
L 405.31968 162.219315 
L 408.45312 160.893521 
L 411.58656 159.607277 
L 414.72 158.358919 
L 417.85344 157.146543 
L 420.98688 155.968021 
L 424.12032 154.821015 
" clip-path="url(#pcb921716b5)" style="fill: none; stroke: #fa9f6f; stroke-width: 2.5; stroke-linecap: round"/>
   </g>
   <g id="patch_3">
    <path d="M 101.376 269.568 
L 101.376 41.472 
" style="fill: none; stroke: #cccccc; stroke-linejoin: miter; stroke-linecap: square"/>
   </g>
   <g id="patch_4">
    <path d="M 414.72 269.568 
L 414.72 41.472 
" style="fill: none; stroke: #cccccc; stroke-linejoin: miter; stroke-linecap: square"/>
   </g>
   <g id="patch_5">
    <path d="M 101.376 269.568 
L 414.72 269.568 
" style="fill: none; stroke: #cccccc; stroke-linejoin: miter; stroke-linecap: square"/>
   </g>
   <g id="patch_6">
    <path d="M 101.376 41.472 
L 414.72 41.472 
" style="fill: none; stroke: #cccccc; stroke-linejoin: miter; stroke-linecap: square"/>
   </g>
  </g>
 </g>
 <defs>
  <clipPath id="pcb921716b5">
   <rect x="101.376" y="41.472" width="313.344" height="228.096"/>
  </clipPath>
 </defs>
</svg>
