<?xml version="1.0" encoding="utf-8" standalone="no"?>
<!DOCTYPE svg PUBLIC "-//W3C//DTD SVG 1.1//EN"
  "http://www.w3.org/Graphics/SVG/1.1/DTD/svg11.dtd">
<svg xmlns:xlink="http://www.w3.org/1999/xlink" width="460.8pt" height="345.6pt" viewBox="0 0 460.8 345.6" xmlns="http://www.w3.org/2000/svg" version="1.1">
 <metadata>
  <rdf:RDF xmlns:dc="http://purl.org/dc/elements/1.1/" xmlns:cc="http://creativecommons.org/ns#" xmlns:rdf="http://www.w3.org/1999/02/22-rdf-syntax-ns#">
   <cc:Work>
    <dc:type rdf:resource="http://purl.org/dc/dcmitype/StillImage"/>
    <dc:date>2023-02-13T10:13:35.877101</dc:date>
    <dc:format>image/svg+xml</dc:format>
    <dc:creator>
     <cc:Agent>
      <dc:title>Matplotlib v3.6.2, https://matplotlib.org/</dc:title>
     </cc:Agent>
    </dc:creator>
   </cc:Work>
  </rdf:RDF>
 </metadata>
 <defs>
  <style type="text/css">*{stroke-linejoin: round; stroke-linecap: butt}</style>
 </defs>
 <g id="figure_1">
  <g id="patch_1">
   <path d="M 0 345.6 
L 460.8 345.6 
L 460.8 0 
L 0 0 
z
" style="fill: #ffffff"/>
  </g>
  <g id="axes_1">
   <g id="patch_2">
    <path d="M 101.376 269.568 
L 414.72 269.568 
L 414.72 41.472 
L 101.376 41.472 
z
" style="fill: #ffffff"/>
   </g>
   <g id="matplotlib.axis_1">
    <g id="xtick_1">
     <g id="line2d_1">
      <path d="M 101.376 269.568 
L 101.376 41.472 
" clip-path="url(#p7c60f44a3e)" style="fill: none; stroke: #cccccc; stroke-opacity: 0; stroke-width: 0.8; stroke-linecap: round"/>
     </g>
     <g id="line2d_2"/>
     <g id="text_1">
      <!-- 0 -->
      <g style="fill: #444444" transform="translate(96.376 288.4555) scale(0.2 -0.2)">
       <defs>
        <path id="TimesNewRomanPSMT-30" d="M 231 2094 
Q 231 2819 450 3342 
Q 669 3866 1031 4122 
Q 1313 4325 1613 4325 
Q 2100 4325 2488 3828 
Q 2972 3213 2972 2159 
Q 2972 1422 2759 906 
Q 2547 391 2217 158 
Q 1888 -75 1581 -75 
Q 975 -75 572 641 
Q 231 1244 231 2094 
z
M 844 2016 
Q 844 1141 1059 588 
Q 1238 122 1591 122 
Q 1759 122 1940 273 
Q 2122 425 2216 781 
Q 2359 1319 2359 2297 
Q 2359 3022 2209 3506 
Q 2097 3866 1919 4016 
Q 1791 4119 1609 4119 
Q 1397 4119 1231 3928 
Q 1006 3669 925 3112 
Q 844 2556 844 2016 
z
" transform="scale(0.015625)"/>
       </defs>
       <use xlink:href="#TimesNewRomanPSMT-30"/>
      </g>
     </g>
    </g>
    <g id="xtick_2">
     <g id="line2d_3">
      <path d="M 164.0448 269.568 
L 164.0448 41.472 
" clip-path="url(#p7c60f44a3e)" style="fill: none; stroke: #cccccc; stroke-opacity: 0; stroke-width: 0.8; stroke-linecap: round"/>
     </g>
     <g id="line2d_4"/>
     <g id="text_2">
      <!-- 20 -->
      <g style="fill: #444444" transform="translate(154.0448 288.4555) scale(0.2 -0.2)">
       <defs>
        <path id="TimesNewRomanPSMT-32" d="M 2934 816 
L 2638 0 
L 138 0 
L 138 116 
Q 1241 1122 1691 1759 
Q 2141 2397 2141 2925 
Q 2141 3328 1894 3587 
Q 1647 3847 1303 3847 
Q 991 3847 742 3664 
Q 494 3481 375 3128 
L 259 3128 
Q 338 3706 661 4015 
Q 984 4325 1469 4325 
Q 1984 4325 2329 3994 
Q 2675 3663 2675 3213 
Q 2675 2891 2525 2569 
Q 2294 2063 1775 1497 
Q 997 647 803 472 
L 1909 472 
Q 2247 472 2383 497 
Q 2519 522 2628 598 
Q 2738 675 2819 816 
L 2934 816 
z
" transform="scale(0.015625)"/>
       </defs>
       <use xlink:href="#TimesNewRomanPSMT-32"/>
       <use xlink:href="#TimesNewRomanPSMT-30" x="50"/>
      </g>
     </g>
    </g>
    <g id="xtick_3">
     <g id="line2d_5">
      <path d="M 226.7136 269.568 
L 226.7136 41.472 
" clip-path="url(#p7c60f44a3e)" style="fill: none; stroke: #cccccc; stroke-opacity: 0; stroke-width: 0.8; stroke-linecap: round"/>
     </g>
     <g id="line2d_6"/>
     <g id="text_3">
      <!-- 40 -->
      <g style="fill: #444444" transform="translate(216.7136 288.4555) scale(0.2 -0.2)">
       <defs>
        <path id="TimesNewRomanPSMT-34" d="M 2978 1563 
L 2978 1119 
L 2409 1119 
L 2409 0 
L 1894 0 
L 1894 1119 
L 100 1119 
L 100 1519 
L 2066 4325 
L 2409 4325 
L 2409 1563 
L 2978 1563 
z
M 1894 1563 
L 1894 3666 
L 406 1563 
L 1894 1563 
z
" transform="scale(0.015625)"/>
       </defs>
       <use xlink:href="#TimesNewRomanPSMT-34"/>
       <use xlink:href="#TimesNewRomanPSMT-30" x="50"/>
      </g>
     </g>
    </g>
    <g id="xtick_4">
     <g id="line2d_7">
      <path d="M 289.3824 269.568 
L 289.3824 41.472 
" clip-path="url(#p7c60f44a3e)" style="fill: none; stroke: #cccccc; stroke-opacity: 0; stroke-width: 0.8; stroke-linecap: round"/>
     </g>
     <g id="line2d_8"/>
     <g id="text_4">
      <!-- 60 -->
      <g style="fill: #444444" transform="translate(279.3824 288.4555) scale(0.2 -0.2)">
       <defs>
        <path id="TimesNewRomanPSMT-36" d="M 2869 4325 
L 2869 4209 
Q 2456 4169 2195 4045 
Q 1934 3922 1679 3669 
Q 1425 3416 1258 3105 
Q 1091 2794 978 2366 
Q 1428 2675 1881 2675 
Q 2316 2675 2634 2325 
Q 2953 1975 2953 1425 
Q 2953 894 2631 456 
Q 2244 -75 1606 -75 
Q 1172 -75 869 213 
Q 275 772 275 1663 
Q 275 2231 503 2743 
Q 731 3256 1154 3653 
Q 1578 4050 1965 4187 
Q 2353 4325 2688 4325 
L 2869 4325 
z
M 925 2138 
Q 869 1716 869 1456 
Q 869 1156 980 804 
Q 1091 453 1309 247 
Q 1469 100 1697 100 
Q 1969 100 2183 356 
Q 2397 613 2397 1088 
Q 2397 1622 2184 2012 
Q 1972 2403 1581 2403 
Q 1463 2403 1327 2353 
Q 1191 2303 925 2138 
z
" transform="scale(0.015625)"/>
       </defs>
       <use xlink:href="#TimesNewRomanPSMT-36"/>
       <use xlink:href="#TimesNewRomanPSMT-30" x="50"/>
      </g>
     </g>
    </g>
    <g id="xtick_5">
     <g id="line2d_9">
      <path d="M 352.0512 269.568 
L 352.0512 41.472 
" clip-path="url(#p7c60f44a3e)" style="fill: none; stroke: #cccccc; stroke-opacity: 0; stroke-width: 0.8; stroke-linecap: round"/>
     </g>
     <g id="line2d_10"/>
     <g id="text_5">
      <!-- 80 -->
      <g style="fill: #444444" transform="translate(342.0512 288.4555) scale(0.2 -0.2)">
       <defs>
        <path id="TimesNewRomanPSMT-38" d="M 1228 2134 
Q 725 2547 579 2797 
Q 434 3047 434 3316 
Q 434 3728 753 4026 
Q 1072 4325 1600 4325 
Q 2113 4325 2425 4047 
Q 2738 3769 2738 3413 
Q 2738 3175 2569 2928 
Q 2400 2681 1866 2347 
Q 2416 1922 2594 1678 
Q 2831 1359 2831 1006 
Q 2831 559 2490 242 
Q 2150 -75 1597 -75 
Q 994 -75 656 303 
Q 388 606 388 966 
Q 388 1247 577 1523 
Q 766 1800 1228 2134 
z
M 1719 2469 
Q 2094 2806 2194 3001 
Q 2294 3197 2294 3444 
Q 2294 3772 2109 3958 
Q 1925 4144 1606 4144 
Q 1288 4144 1088 3959 
Q 888 3775 888 3528 
Q 888 3366 970 3203 
Q 1053 3041 1206 2894 
L 1719 2469 
z
M 1375 2016 
Q 1116 1797 991 1539 
Q 866 1281 866 981 
Q 866 578 1086 336 
Q 1306 94 1647 94 
Q 1984 94 2187 284 
Q 2391 475 2391 747 
Q 2391 972 2272 1150 
Q 2050 1481 1375 2016 
z
" transform="scale(0.015625)"/>
       </defs>
       <use xlink:href="#TimesNewRomanPSMT-38"/>
       <use xlink:href="#TimesNewRomanPSMT-30" x="50"/>
      </g>
     </g>
    </g>
    <g id="xtick_6">
     <g id="line2d_11">
      <path d="M 414.72 269.568 
L 414.72 41.472 
" clip-path="url(#p7c60f44a3e)" style="fill: none; stroke: #cccccc; stroke-opacity: 0; stroke-width: 0.8; stroke-linecap: round"/>
     </g>
     <g id="line2d_12"/>
     <g id="text_6">
      <!-- 100 -->
      <g style="fill: #444444" transform="translate(399.72 288.4555) scale(0.2 -0.2)">
       <defs>
        <path id="TimesNewRomanPSMT-31" d="M 750 3822 
L 1781 4325 
L 1884 4325 
L 1884 747 
Q 1884 391 1914 303 
Q 1944 216 2037 169 
Q 2131 122 2419 116 
L 2419 0 
L 825 0 
L 825 116 
Q 1125 122 1212 167 
Q 1300 213 1334 289 
Q 1369 366 1369 747 
L 1369 3034 
Q 1369 3497 1338 3628 
Q 1316 3728 1258 3775 
Q 1200 3822 1119 3822 
Q 1003 3822 797 3725 
L 750 3822 
z
" transform="scale(0.015625)"/>
       </defs>
       <use xlink:href="#TimesNewRomanPSMT-31"/>
       <use xlink:href="#TimesNewRomanPSMT-30" x="50"/>
       <use xlink:href="#TimesNewRomanPSMT-30" x="100"/>
      </g>
     </g>
    </g>
    <g id="text_7">
     <!-- Timesteps -->
     <g style="fill: #444444" transform="translate(207.104641 322.093) scale(0.25 -0.25)">
      <defs>
       <path id="TimesNewRomanPSMT-54" d="M 3703 4238 
L 3750 3244 
L 3631 3244 
Q 3597 3506 3538 3619 
Q 3441 3800 3280 3886 
Q 3119 3972 2856 3972 
L 2259 3972 
L 2259 734 
Q 2259 344 2344 247 
Q 2463 116 2709 116 
L 2856 116 
L 2856 0 
L 1059 0 
L 1059 116 
L 1209 116 
Q 1478 116 1591 278 
Q 1659 378 1659 734 
L 1659 3972 
L 1150 3972 
Q 853 3972 728 3928 
Q 566 3869 450 3700 
Q 334 3531 313 3244 
L 194 3244 
L 244 4238 
L 3703 4238 
z
" transform="scale(0.015625)"/>
       <path id="TimesNewRomanPSMT-69" d="M 928 4444 
Q 1059 4444 1151 4351 
Q 1244 4259 1244 4128 
Q 1244 3997 1151 3903 
Q 1059 3809 928 3809 
Q 797 3809 703 3903 
Q 609 3997 609 4128 
Q 609 4259 701 4351 
Q 794 4444 928 4444 
z
M 1188 2947 
L 1188 647 
Q 1188 378 1227 289 
Q 1266 200 1342 156 
Q 1419 113 1622 113 
L 1622 0 
L 231 0 
L 231 113 
Q 441 113 512 153 
Q 584 194 626 287 
Q 669 381 669 647 
L 669 1750 
Q 669 2216 641 2353 
Q 619 2453 572 2492 
Q 525 2531 444 2531 
Q 356 2531 231 2484 
L 188 2597 
L 1050 2947 
L 1188 2947 
z
" transform="scale(0.015625)"/>
       <path id="TimesNewRomanPSMT-6d" d="M 1050 2338 
Q 1363 2650 1419 2697 
Q 1559 2816 1721 2881 
Q 1884 2947 2044 2947 
Q 2313 2947 2506 2790 
Q 2700 2634 2766 2338 
Q 3088 2713 3309 2830 
Q 3531 2947 3766 2947 
Q 3994 2947 4170 2830 
Q 4347 2713 4450 2447 
Q 4519 2266 4519 1878 
L 4519 647 
Q 4519 378 4559 278 
Q 4591 209 4675 161 
Q 4759 113 4950 113 
L 4950 0 
L 3538 0 
L 3538 113 
L 3597 113 
Q 3781 113 3884 184 
Q 3956 234 3988 344 
Q 4000 397 4000 647 
L 4000 1878 
Q 4000 2228 3916 2372 
Q 3794 2572 3525 2572 
Q 3359 2572 3192 2489 
Q 3025 2406 2788 2181 
L 2781 2147 
L 2788 2013 
L 2788 647 
Q 2788 353 2820 281 
Q 2853 209 2943 161 
Q 3034 113 3253 113 
L 3253 0 
L 1806 0 
L 1806 113 
Q 2044 113 2133 169 
Q 2222 225 2256 338 
Q 2272 391 2272 647 
L 2272 1878 
Q 2272 2228 2169 2381 
Q 2031 2581 1784 2581 
Q 1616 2581 1450 2491 
Q 1191 2353 1050 2181 
L 1050 647 
Q 1050 366 1089 281 
Q 1128 197 1204 155 
Q 1281 113 1516 113 
L 1516 0 
L 100 0 
L 100 113 
Q 297 113 375 155 
Q 453 197 493 289 
Q 534 381 534 647 
L 534 1741 
Q 534 2213 506 2350 
Q 484 2453 437 2492 
Q 391 2531 309 2531 
Q 222 2531 100 2484 
L 53 2597 
L 916 2947 
L 1050 2947 
L 1050 2338 
z
" transform="scale(0.015625)"/>
       <path id="TimesNewRomanPSMT-65" d="M 681 1784 
Q 678 1147 991 784 
Q 1303 422 1725 422 
Q 2006 422 2214 576 
Q 2422 731 2563 1106 
L 2659 1044 
Q 2594 616 2278 264 
Q 1963 -88 1488 -88 
Q 972 -88 605 314 
Q 238 716 238 1394 
Q 238 2128 614 2539 
Q 991 2950 1559 2950 
Q 2041 2950 2350 2633 
Q 2659 2316 2659 1784 
L 681 1784 
z
M 681 1966 
L 2006 1966 
Q 1991 2241 1941 2353 
Q 1863 2528 1708 2628 
Q 1553 2728 1384 2728 
Q 1125 2728 920 2526 
Q 716 2325 681 1966 
z
" transform="scale(0.015625)"/>
       <path id="TimesNewRomanPSMT-73" d="M 2050 2947 
L 2050 1972 
L 1947 1972 
Q 1828 2431 1642 2597 
Q 1456 2763 1169 2763 
Q 950 2763 815 2647 
Q 681 2531 681 2391 
Q 681 2216 781 2091 
Q 878 1963 1175 1819 
L 1631 1597 
Q 2266 1288 2266 781 
Q 2266 391 1970 151 
Q 1675 -88 1309 -88 
Q 1047 -88 709 6 
Q 606 38 541 38 
Q 469 38 428 -44 
L 325 -44 
L 325 978 
L 428 978 
Q 516 541 762 319 
Q 1009 97 1316 97 
Q 1531 97 1667 223 
Q 1803 350 1803 528 
Q 1803 744 1651 891 
Q 1500 1038 1047 1263 
Q 594 1488 453 1669 
Q 313 1847 313 2119 
Q 313 2472 555 2709 
Q 797 2947 1181 2947 
Q 1350 2947 1591 2875 
Q 1750 2828 1803 2828 
Q 1853 2828 1881 2850 
Q 1909 2872 1947 2947 
L 2050 2947 
z
" transform="scale(0.015625)"/>
       <path id="TimesNewRomanPSMT-74" d="M 1031 3803 
L 1031 2863 
L 1700 2863 
L 1700 2644 
L 1031 2644 
L 1031 788 
Q 1031 509 1111 412 
Q 1191 316 1316 316 
Q 1419 316 1516 380 
Q 1613 444 1666 569 
L 1788 569 
Q 1678 263 1478 108 
Q 1278 -47 1066 -47 
Q 922 -47 784 33 
Q 647 113 581 261 
Q 516 409 516 719 
L 516 2644 
L 63 2644 
L 63 2747 
Q 234 2816 414 2980 
Q 594 3144 734 3369 
Q 806 3488 934 3803 
L 1031 3803 
z
" transform="scale(0.015625)"/>
       <path id="TimesNewRomanPSMT-70" d="M -6 2578 
L 875 2934 
L 994 2934 
L 994 2266 
Q 1216 2644 1439 2795 
Q 1663 2947 1909 2947 
Q 2341 2947 2628 2609 
Q 2981 2197 2981 1534 
Q 2981 794 2556 309 
Q 2206 -88 1675 -88 
Q 1444 -88 1275 -22 
Q 1150 25 994 166 
L 994 -706 
Q 994 -1000 1030 -1079 
Q 1066 -1159 1155 -1206 
Q 1244 -1253 1478 -1253 
L 1478 -1369 
L -22 -1369 
L -22 -1253 
L 56 -1253 
Q 228 -1256 350 -1188 
Q 409 -1153 442 -1076 
Q 475 -1000 475 -688 
L 475 2019 
Q 475 2297 450 2372 
Q 425 2447 370 2484 
Q 316 2522 222 2522 
Q 147 2522 31 2478 
L -6 2578 
z
M 994 2081 
L 994 1013 
Q 994 666 1022 556 
Q 1066 375 1236 237 
Q 1406 100 1666 100 
Q 1978 100 2172 344 
Q 2425 663 2425 1241 
Q 2425 1897 2138 2250 
Q 1938 2494 1663 2494 
Q 1513 2494 1366 2419 
Q 1253 2363 994 2081 
z
" transform="scale(0.015625)"/>
      </defs>
      <use xlink:href="#TimesNewRomanPSMT-54"/>
      <use xlink:href="#TimesNewRomanPSMT-69" x="57.583984"/>
      <use xlink:href="#TimesNewRomanPSMT-6d" x="85.367188"/>
      <use xlink:href="#TimesNewRomanPSMT-65" x="163.150391"/>
      <use xlink:href="#TimesNewRomanPSMT-73" x="207.535156"/>
      <use xlink:href="#TimesNewRomanPSMT-74" x="246.451172"/>
      <use xlink:href="#TimesNewRomanPSMT-65" x="274.234375"/>
      <use xlink:href="#TimesNewRomanPSMT-70" x="318.619141"/>
      <use xlink:href="#TimesNewRomanPSMT-73" x="368.619141"/>
     </g>
    </g>
   </g>
   <g id="matplotlib.axis_2">
    <g id="ytick_1">
     <g id="line2d_13">
      <path d="M 101.376 261.14013 
L 414.72 261.14013 
" clip-path="url(#p7c60f44a3e)" style="fill: none; stroke: #cccccc; stroke-opacity: 0.4; stroke-width: 1.5; stroke-linecap: round"/>
     </g>
     <g id="line2d_14"/>
     <g id="text_8">
      <!-- −20 -->
      <g style="fill: #444444" transform="translate(65.097875 268.08388) scale(0.2 -0.2)">
       <defs>
        <path id="TimesNewRomanPSMT-2212" d="M 3484 2000 
L 116 2000 
L 116 2256 
L 3484 2256 
L 3484 2000 
z
" transform="scale(0.015625)"/>
       </defs>
       <use xlink:href="#TimesNewRomanPSMT-2212"/>
       <use xlink:href="#TimesNewRomanPSMT-32" x="56.396484"/>
       <use xlink:href="#TimesNewRomanPSMT-30" x="106.396484"/>
      </g>
     </g>
    </g>
    <g id="ytick_2">
     <g id="line2d_15">
      <path d="M 101.376 207.05741 
L 414.72 207.05741 
" clip-path="url(#p7c60f44a3e)" style="fill: none; stroke: #cccccc; stroke-opacity: 0.4; stroke-width: 1.5; stroke-linecap: round"/>
     </g>
     <g id="line2d_16"/>
     <g id="text_9">
      <!-- 0 -->
      <g style="fill: #444444" transform="translate(86.376 214.00116) scale(0.2 -0.2)">
       <use xlink:href="#TimesNewRomanPSMT-30"/>
      </g>
     </g>
    </g>
    <g id="ytick_3">
     <g id="line2d_17">
      <path d="M 101.376 152.974691 
L 414.72 152.974691 
" clip-path="url(#p7c60f44a3e)" style="fill: none; stroke: #cccccc; stroke-opacity: 0.4; stroke-width: 1.5; stroke-linecap: round"/>
     </g>
     <g id="line2d_18"/>
     <g id="text_10">
      <!-- 20 -->
      <g style="fill: #444444" transform="translate(76.376 159.918441) scale(0.2 -0.2)">
       <use xlink:href="#TimesNewRomanPSMT-32"/>
       <use xlink:href="#TimesNewRomanPSMT-30" x="50"/>
      </g>
     </g>
    </g>
    <g id="ytick_4">
     <g id="line2d_19">
      <path d="M 101.376 98.891971 
L 414.72 98.891971 
" clip-path="url(#p7c60f44a3e)" style="fill: none; stroke: #cccccc; stroke-opacity: 0.4; stroke-width: 1.5; stroke-linecap: round"/>
     </g>
     <g id="line2d_20"/>
     <g id="text_11">
      <!-- 40 -->
      <g style="fill: #444444" transform="translate(76.376 105.835721) scale(0.2 -0.2)">
       <use xlink:href="#TimesNewRomanPSMT-34"/>
       <use xlink:href="#TimesNewRomanPSMT-30" x="50"/>
      </g>
     </g>
    </g>
    <g id="ytick_5">
     <g id="line2d_21">
      <path d="M 101.376 44.809252 
L 414.72 44.809252 
" clip-path="url(#p7c60f44a3e)" style="fill: none; stroke: #cccccc; stroke-opacity: 0.4; stroke-width: 1.5; stroke-linecap: round"/>
     </g>
     <g id="line2d_22"/>
     <g id="text_12">
      <!-- 60 -->
      <g style="fill: #444444" transform="translate(76.376 51.753002) scale(0.2 -0.2)">
       <use xlink:href="#TimesNewRomanPSMT-36"/>
       <use xlink:href="#TimesNewRomanPSMT-30" x="50"/>
      </g>
     </g>
    </g>
    <g id="text_13">
     <!-- Pressure (kPa) -->
     <g style="fill: #444444" transform="translate(47.750219 228.072734) rotate(-90) scale(0.25 -0.25)">
      <defs>
       <path id="TimesNewRomanPSMT-50" d="M 1313 1984 
L 1313 750 
Q 1313 350 1400 253 
Q 1519 116 1759 116 
L 1922 116 
L 1922 0 
L 106 0 
L 106 116 
L 266 116 
Q 534 116 650 291 
Q 713 388 713 750 
L 713 3488 
Q 713 3888 628 3984 
Q 506 4122 266 4122 
L 106 4122 
L 106 4238 
L 1659 4238 
Q 2228 4238 2556 4120 
Q 2884 4003 3109 3725 
Q 3334 3447 3334 3066 
Q 3334 2547 2992 2222 
Q 2650 1897 2025 1897 
Q 1872 1897 1694 1919 
Q 1516 1941 1313 1984 
z
M 1313 2163 
Q 1478 2131 1606 2115 
Q 1734 2100 1825 2100 
Q 2150 2100 2386 2351 
Q 2622 2603 2622 3003 
Q 2622 3278 2509 3514 
Q 2397 3750 2190 3867 
Q 1984 3984 1722 3984 
Q 1563 3984 1313 3925 
L 1313 2163 
z
" transform="scale(0.015625)"/>
       <path id="TimesNewRomanPSMT-72" d="M 1038 2947 
L 1038 2303 
Q 1397 2947 1775 2947 
Q 1947 2947 2059 2842 
Q 2172 2738 2172 2600 
Q 2172 2478 2090 2393 
Q 2009 2309 1897 2309 
Q 1788 2309 1652 2417 
Q 1516 2525 1450 2525 
Q 1394 2525 1328 2463 
Q 1188 2334 1038 2041 
L 1038 669 
Q 1038 431 1097 309 
Q 1138 225 1241 169 
Q 1344 113 1538 113 
L 1538 0 
L 72 0 
L 72 113 
Q 291 113 397 181 
Q 475 231 506 341 
Q 522 394 522 644 
L 522 1753 
Q 522 2253 501 2348 
Q 481 2444 426 2487 
Q 372 2531 291 2531 
Q 194 2531 72 2484 
L 41 2597 
L 906 2947 
L 1038 2947 
z
" transform="scale(0.015625)"/>
       <path id="TimesNewRomanPSMT-75" d="M 2709 2863 
L 2709 1128 
Q 2709 631 2732 520 
Q 2756 409 2807 365 
Q 2859 322 2928 322 
Q 3025 322 3147 375 
L 3191 266 
L 2334 -88 
L 2194 -88 
L 2194 519 
Q 1825 119 1631 15 
Q 1438 -88 1222 -88 
Q 981 -88 804 51 
Q 628 191 559 409 
Q 491 628 491 1028 
L 491 2306 
Q 491 2509 447 2587 
Q 403 2666 317 2708 
Q 231 2750 6 2747 
L 6 2863 
L 1009 2863 
L 1009 947 
Q 1009 547 1148 422 
Q 1288 297 1484 297 
Q 1619 297 1789 381 
Q 1959 466 2194 703 
L 2194 2325 
Q 2194 2569 2105 2655 
Q 2016 2741 1734 2747 
L 1734 2863 
L 2709 2863 
z
" transform="scale(0.015625)"/>
       <path id="TimesNewRomanPSMT-20" transform="scale(0.015625)"/>
       <path id="TimesNewRomanPSMT-28" d="M 1988 -1253 
L 1988 -1369 
Q 1516 -1131 1200 -813 
Q 750 -359 506 256 
Q 263 872 263 1534 
Q 263 2503 741 3301 
Q 1219 4100 1988 4444 
L 1988 4313 
Q 1603 4100 1356 3731 
Q 1109 3363 987 2797 
Q 866 2231 866 1616 
Q 866 947 969 400 
Q 1050 -31 1165 -292 
Q 1281 -553 1476 -793 
Q 1672 -1034 1988 -1253 
z
" transform="scale(0.015625)"/>
       <path id="TimesNewRomanPSMT-6b" d="M 1047 4444 
L 1047 1594 
L 1775 2259 
Q 2006 2472 2044 2528 
Q 2069 2566 2069 2603 
Q 2069 2666 2017 2711 
Q 1966 2756 1847 2763 
L 1847 2863 
L 3091 2863 
L 3091 2763 
Q 2834 2756 2664 2684 
Q 2494 2613 2291 2428 
L 1556 1750 
L 2291 822 
Q 2597 438 2703 334 
Q 2853 188 2966 144 
Q 3044 113 3238 113 
L 3238 0 
L 1847 0 
L 1847 113 
Q 1966 116 2008 148 
Q 2050 181 2050 241 
Q 2050 313 1925 472 
L 1047 1594 
L 1047 644 
Q 1047 366 1086 278 
Q 1125 191 1197 153 
Q 1269 116 1509 113 
L 1509 0 
L 53 0 
L 53 113 
Q 272 113 381 166 
Q 447 200 481 272 
Q 528 375 528 628 
L 528 3234 
Q 528 3731 506 3842 
Q 484 3953 434 3995 
Q 384 4038 303 4038 
Q 238 4038 106 3984 
L 53 4094 
L 903 4444 
L 1047 4444 
z
" transform="scale(0.015625)"/>
       <path id="TimesNewRomanPSMT-61" d="M 1822 413 
Q 1381 72 1269 19 
Q 1100 -59 909 -59 
Q 613 -59 420 144 
Q 228 347 228 678 
Q 228 888 322 1041 
Q 450 1253 767 1440 
Q 1084 1628 1822 1897 
L 1822 2009 
Q 1822 2438 1686 2597 
Q 1550 2756 1291 2756 
Q 1094 2756 978 2650 
Q 859 2544 859 2406 
L 866 2225 
Q 866 2081 792 2003 
Q 719 1925 600 1925 
Q 484 1925 411 2006 
Q 338 2088 338 2228 
Q 338 2497 613 2722 
Q 888 2947 1384 2947 
Q 1766 2947 2009 2819 
Q 2194 2722 2281 2516 
Q 2338 2381 2338 1966 
L 2338 994 
Q 2338 584 2353 492 
Q 2369 400 2405 369 
Q 2441 338 2488 338 
Q 2538 338 2575 359 
Q 2641 400 2828 588 
L 2828 413 
Q 2478 -56 2159 -56 
Q 2006 -56 1915 50 
Q 1825 156 1822 413 
z
M 1822 616 
L 1822 1706 
Q 1350 1519 1213 1441 
Q 966 1303 859 1153 
Q 753 1003 753 825 
Q 753 600 887 451 
Q 1022 303 1197 303 
Q 1434 303 1822 616 
z
" transform="scale(0.015625)"/>
       <path id="TimesNewRomanPSMT-29" d="M 144 4313 
L 144 4444 
Q 619 4209 934 3891 
Q 1381 3434 1625 2820 
Q 1869 2206 1869 1541 
Q 1869 572 1392 -226 
Q 916 -1025 144 -1369 
L 144 -1253 
Q 528 -1038 776 -670 
Q 1025 -303 1145 264 
Q 1266 831 1266 1447 
Q 1266 2113 1163 2663 
Q 1084 3094 967 3353 
Q 850 3613 656 3853 
Q 463 4094 144 4313 
z
" transform="scale(0.015625)"/>
      </defs>
      <use xlink:href="#TimesNewRomanPSMT-50"/>
      <use xlink:href="#TimesNewRomanPSMT-72" x="55.615234"/>
      <use xlink:href="#TimesNewRomanPSMT-65" x="88.916016"/>
      <use xlink:href="#TimesNewRomanPSMT-73" x="133.300781"/>
      <use xlink:href="#TimesNewRomanPSMT-73" x="172.216797"/>
      <use xlink:href="#TimesNewRomanPSMT-75" x="211.132812"/>
      <use xlink:href="#TimesNewRomanPSMT-72" x="261.132812"/>
      <use xlink:href="#TimesNewRomanPSMT-65" x="294.433594"/>
      <use xlink:href="#TimesNewRomanPSMT-20" x="338.818359"/>
      <use xlink:href="#TimesNewRomanPSMT-28" x="363.818359"/>
      <use xlink:href="#TimesNewRomanPSMT-6b" x="397.119141"/>
      <use xlink:href="#TimesNewRomanPSMT-50" x="447.119141"/>
      <use xlink:href="#TimesNewRomanPSMT-61" x="502.734375"/>
      <use xlink:href="#TimesNewRomanPSMT-29" x="547.119141"/>
     </g>
    </g>
   </g>
   <g id="line2d_23">
    <path d="M 104.50944 160.546269 
L 107.64288 218.144368 
L 110.77632 219.226022 
L 113.90976 219.226022 
L 117.0432 193.807144 
L 120.17664 194.077558 
L 123.31008 194.347971 
L 126.44352 201.378725 
L 129.57696 201.649138 
L 132.7104 201.649138 
L 135.84384 194.077558 
L 138.97728 194.347971 
L 142.11072 194.347971 
L 145.24416 177.311915 
L 148.3776 177.852742 
L 151.51104 178.123155 
L 154.64448 178.393569 
L 157.77792 174.337365 
L 160.91136 174.878192 
L 164.0448 175.148606 
L 167.17824 137.561113 
L 170.31168 138.642773 
L 173.44512 139.454011 
L 176.57856 125.933331 
L 179.712 127.014985 
L 182.84544 128.096637 
L 185.97888 105.922719 
L 189.11232 107.545209 
L 192.24576 108.086039 
L 195.3792 89.697904 
L 198.51264 91.049972 
L 201.64608 92.672461 
L 204.77952 86.18253 
L 207.91296 88.075427 
L 211.0464 88.616257 
L 214.17984 62.926966 
L 217.31328 65.090272 
L 220.44672 66.44234 
L 223.58016 67.794408 
L 226.7136 66.44234 
L 229.84704 67.523999 
L 232.98048 68.064816 
L 236.11392 69.146476 
L 239.24736 56.977864 
L 242.3808 59.14117 
L 245.51424 59.952408 
L 248.64768 55.896204 
L 251.78112 58.059524 
L 254.91456 59.14117 
L 258.048 51.84 
L 261.18144 54.00332 
L 264.31488 55.084966 
L 267.44832 61.034068 
L 270.58176 61.304476 
L 273.7152 62.115728 
L 276.84864 73.473088 
L 279.98208 74.554748 
L 283.11552 119.172991 
L 286.24896 127.555813 
L 289.3824 127.014985 
L 292.51584 78.070122 
L 295.64928 79.42219 
L 298.78272 120.795473 
L 301.91616 128.637467 
L 305.0496 128.367053 
L 308.18304 128.096637 
L 311.31648 128.096637 
L 314.44992 132.964085 
L 317.58336 132.693671 
L 320.7168 132.423257 
L 323.85024 136.479461 
L 326.98368 135.938637 
L 330.11712 135.938637 
L 333.25056 140.535665 
L 336.384 139.724425 
L 339.51744 187.858045 
L 342.65088 203.812447 
L 345.78432 202.730793 
L 348.91776 183.801841 
L 352.0512 184.613082 
L 355.18464 184.613082 
L 358.31808 187.046804 
L 361.45152 187.046804 
L 364.58496 187.046804 
L 367.7184 195.970453 
L 370.85184 195.970453 
L 373.98528 195.700039 
L 377.11872 194.347971 
L 380.25216 194.618385 
L 383.3856 194.618385 
L 386.51904 195.700039 
L 389.65248 195.700039 
L 392.78592 195.429626 
L 395.91936 181.368118 
L 399.0528 181.908946 
L 402.18624 181.908946 
L 405.31968 194.347971 
L 408.45312 194.618385 
L 411.58656 194.347971 
L 414.72 155.678827 
" clip-path="url(#p7c60f44a3e)" style="fill: none; stroke-dasharray: 9.25,4; stroke-dashoffset: 0; stroke: #82b0d2; stroke-width: 2.5"/>
   </g>
   <g id="line2d_24">
    <path d="M 107.64288 194.748071 
L 110.77632 194.742962 
L 113.90976 194.365158 
L 117.0432 193.616248 
L 120.17664 192.499868 
L 123.31008 191.021681 
L 126.44352 189.189349 
L 129.57696 187.012486 
L 132.7104 184.502609 
L 135.84384 181.673073 
L 138.97728 178.538994 
L 142.11072 175.117167 
L 145.24416 171.425975 
L 148.3776 167.48528 
L 151.51104 163.316315 
L 154.64448 158.941569 
L 157.77792 154.384654 
L 160.91136 149.670179 
L 164.0448 144.823609 
L 167.17824 139.871122 
L 170.31168 134.839468 
L 173.44512 129.755814 
L 176.57856 124.647592 
L 179.712 119.542351 
L 182.84544 114.4676 
L 185.97888 109.450654 
L 189.11232 104.518484 
L 192.24576 99.697567 
L 195.3792 95.013736 
L 198.51264 90.492041 
L 201.64608 86.156609 
L 204.77952 82.030508 
L 207.91296 78.135626 
L 211.0464 74.492544 
L 214.17984 71.120427 
L 217.31328 68.036919 
L 220.44672 65.258049 
L 223.58016 62.79814 
L 226.7136 60.669735 
L 229.84704 58.883533 
L 232.98048 57.448327 
L 236.11392 56.370964 
L 239.24736 55.656308 
L 242.3808 55.307219 
L 245.51424 55.324539 
L 248.64768 55.707097 
L 251.78112 56.451714 
L 254.91456 57.553228 
L 258.048 59.004532 
L 261.18144 60.796611 
L 264.31488 62.918606 
L 267.44832 65.357871 
L 270.58176 68.100056 
L 273.7152 71.129187 
L 276.84864 74.427765 
L 279.98208 77.976864 
L 283.11552 81.756242 
L 286.24896 85.744461 
L 289.3824 89.91901 
L 292.51584 94.256434 
L 295.64928 98.732466 
L 298.78272 103.322173 
L 301.91616 108.000089 
L 305.0496 112.740369 
L 308.18304 117.516929 
L 311.31648 122.303596 
L 314.44992 127.074253 
L 317.58336 131.802991 
L 320.7168 136.464249 
L 323.85024 141.032956 
L 326.98368 145.484676 
L 330.11712 149.795737 
L 333.25056 153.943364 
L 336.384 157.905805 
L 339.51744 161.662445 
L 342.65088 165.193922 
L 345.78432 168.48223 
L 348.91776 171.510813 
L 352.0512 174.264653 
L 355.18464 176.730349 
L 358.31808 178.896185 
L 361.45152 180.752187 
L 364.58496 182.290173 
L 367.7184 183.503792 
L 370.85184 184.388547 
L 373.98528 184.941817 
L 377.11872 185.162857 
L 380.25216 185.052797 
L 383.3856 184.614626 
L 386.51904 183.853161 
L 389.65248 182.775016 
L 392.78592 181.388551 
L 395.91936 179.703816 
L 399.0528 177.732484 
L 402.18624 175.487778 
L 405.31968 172.984383 
L 408.45312 170.238356 
L 411.58656 167.267028 
L 414.72 164.088893 
L 417.85344 160.723499 
L 420.98688 157.191328 
L 424.12032 153.513674 
" clip-path="url(#p7c60f44a3e)" style="fill: none; stroke: #82b0d2; stroke-width: 2.5; stroke-linecap: round"/>
   </g>
   <g id="line2d_25">
    <path d="M 104.50944 166.765784 
L 107.64288 207.05741 
L 110.77632 207.05741 
L 113.90976 212.736096 
L 117.0432 212.195269 
L 120.17664 211.654441 
L 123.31008 221.659744 
L 126.44352 214.899405 
L 129.57696 213.81775 
L 132.7104 219.496436 
L 135.84384 218.414781 
L 138.97728 218.414781 
L 142.11072 214.358577 
L 145.24416 213.81775 
L 148.3776 213.81775 
L 151.51104 213.81775 
L 154.64448 206.516583 
L 157.77792 204.623688 
L 160.91136 204.623688 
L 164.0448 204.623688 
L 167.17824 204.623688 
L 170.31168 204.623688 
L 173.44512 205.434929 
L 176.57856 205.705342 
L 179.712 205.705342 
L 182.84544 205.434929 
L 185.97888 205.705342 
L 189.11232 205.705342 
L 192.24576 217.873954 
L 195.3792 218.955609 
L 198.51264 218.685195 
L 201.64608 218.685195 
L 204.77952 218.685195 
L 207.91296 218.685195 
L 211.0464 225.986362 
L 214.17984 225.175121 
L 217.31328 225.175121 
L 220.44672 224.904708 
L 223.58016 224.904708 
L 226.7136 224.904708 
L 229.84704 224.904708 
L 232.98048 224.904708 
L 236.11392 224.904708 
L 239.24736 224.904708 
L 242.3808 224.904708 
L 245.51424 225.986362 
L 248.64768 225.986362 
L 251.78112 225.715948 
L 254.91456 236.262079 
L 258.048 236.262079 
L 261.18144 235.991665 
L 264.31488 236.532492 
L 267.44832 236.532492 
L 270.58176 236.262079 
L 273.7152 244.374487 
L 276.84864 245.185727 
L 279.98208 244.915314 
L 283.11552 244.915314 
L 286.24896 244.6449 
L 289.3824 229.231325 
L 292.51584 225.986362 
L 295.64928 225.986362 
L 298.78272 225.986362 
L 301.91616 225.986362 
L 305.0496 214.358577 
L 308.18304 214.088164 
L 311.31648 228.420084 
L 314.44992 228.960912 
L 317.58336 228.960912 
L 320.7168 223.55264 
L 323.85024 223.011812 
L 326.98368 223.282226 
L 330.11712 221.930158 
L 333.25056 221.659744 
L 336.384 221.659744 
L 339.51744 221.930158 
L 342.65088 221.659744 
L 345.78432 226.797603 
L 348.91776 227.068016 
L 352.0512 227.068016 
L 355.18464 213.81775 
L 358.31808 211.654441 
L 361.45152 211.924855 
L 364.58496 209.220719 
L 367.7184 208.950305 
L 370.85184 209.220719 
L 373.98528 224.904708 
L 377.11872 225.715948 
L 380.25216 225.715948 
L 383.3856 223.011812 
L 386.51904 222.741399 
L 389.65248 222.741399 
L 392.78592 238.966215 
L 395.91936 244.6449 
L 399.0528 244.374487 
L 402.18624 245.726555 
L 405.31968 245.996968 
L 408.45312 245.726555 
L 411.58656 245.726555 
L 414.72 245.726555 
" clip-path="url(#p7c60f44a3e)" style="fill: none; stroke-dasharray: 9.25,4; stroke-dashoffset: 0; stroke: #fa9f6f; stroke-width: 2.5"/>
   </g>
   <g id="line2d_26">
    <path d="M 107.64288 236.487207 
L 110.77632 234.834017 
L 113.90976 233.208072 
L 117.0432 231.622456 
L 120.17664 230.089877 
L 123.31008 228.622547 
L 126.44352 227.232071 
L 129.57696 225.929334 
L 132.7104 224.724405 
L 135.84384 223.62644 
L 138.97728 222.643594 
L 142.11072 221.782951 
L 145.24416 221.050453 
L 148.3776 220.450848 
L 151.51104 219.987641 
L 154.64448 219.663068 
L 157.77792 219.478067 
L 160.91136 219.432277 
L 164.0448 219.524036 
L 167.17824 219.7504 
L 170.31168 220.107168 
L 173.44512 220.588922 
L 176.57856 221.189079 
L 179.712 221.899948 
L 182.84544 222.712809 
L 185.97888 223.617988 
L 189.11232 224.604949 
L 192.24576 225.662394 
L 195.3792 226.778368 
L 198.51264 227.940367 
L 201.64608 229.135461 
L 204.77952 230.350409 
L 207.91296 231.571784 
L 211.0464 232.786102 
L 214.17984 233.979942 
L 217.31328 235.140076 
L 220.44672 236.253589 
L 223.58016 237.308003 
L 226.7136 238.291388 
L 229.84704 239.192481 
L 232.98048 240.000785 
L 236.11392 240.706668 
L 239.24736 241.301454 
L 242.3808 241.777505 
L 245.51424 242.128291 
L 248.64768 242.348449 
L 251.78112 242.433837 
L 254.91456 242.381568 
L 258.048 242.190043 
L 261.18144 241.85896 
L 264.31488 241.38932 
L 267.44832 240.783417 
L 270.58176 240.044816 
L 273.7152 256.830789 
L 276.84864 255.842397 
L 279.98208 254.739243 
L 283.11552 253.529533 
L 286.24896 252.222465 
L 289.3824 250.828149 
L 292.51584 249.357507 
L 295.64928 247.822173 
L 298.78272 246.234386 
L 301.91616 244.606874 
L 305.0496 242.952736 
L 308.18304 241.285318 
L 311.31648 239.618091 
L 314.44992 237.964524 
L 317.58336 236.33796 
L 320.7168 234.751487 
L 323.85024 233.217822 
L 326.98368 231.749186 
L 330.11712 230.357197 
L 333.25056 229.052755 
L 336.384 227.845943 
L 339.51744 226.745935 
L 342.65088 225.760906 
L 345.78432 224.897961 
L 348.91776 224.163062 
L 352.0512 223.560979 
L 355.18464 223.095242 
L 358.31808 222.768108 
L 361.45152 222.580542 
L 364.58496 222.532205 
L 367.7184 222.621459 
L 370.85184 222.845384 
L 373.98528 223.199801 
L 377.11872 223.679314 
L 380.25216 224.277361 
L 383.3856 224.986272 
L 386.51904 245.663385 
L 389.65248 246.56696 
L 392.78592 247.552518 
L 395.91936 248.608774 
L 399.0528 249.723784 
L 402.18624 250.885053 
L 405.31968 252.079657 
L 408.45312 253.294361 
L 411.58656 254.51574 
L 414.72 255.730309 
L 417.85344 256.924645 
L 420.98688 258.085516 
L 424.12032 259.2 
" clip-path="url(#p7c60f44a3e)" style="fill: none; stroke: #fa9f6f; stroke-width: 2.5; stroke-linecap: round"/>
   </g>
   <g id="patch_3">
    <path d="M 101.376 269.568 
L 101.376 41.472 
" style="fill: none; stroke: #cccccc; stroke-linejoin: miter; stroke-linecap: square"/>
   </g>
   <g id="patch_4">
    <path d="M 414.72 269.568 
L 414.72 41.472 
" style="fill: none; stroke: #cccccc; stroke-linejoin: miter; stroke-linecap: square"/>
   </g>
   <g id="patch_5">
    <path d="M 101.376 269.568 
L 414.72 269.568 
" style="fill: none; stroke: #cccccc; stroke-linejoin: miter; stroke-linecap: square"/>
   </g>
   <g id="patch_6">
    <path d="M 101.376 41.472 
L 414.72 41.472 
" style="fill: none; stroke: #cccccc; stroke-linejoin: miter; stroke-linecap: square"/>
   </g>
  </g>
 </g>
 <defs>
  <clipPath id="p7c60f44a3e">
   <rect x="101.376" y="41.472" width="313.344" height="228.096"/>
  </clipPath>
 </defs>
</svg>
