<?xml version="1.0" encoding="utf-8" standalone="no"?>
<!DOCTYPE svg PUBLIC "-//W3C//DTD SVG 1.1//EN"
  "http://www.w3.org/Graphics/SVG/1.1/DTD/svg11.dtd">
<svg xmlns:xlink="http://www.w3.org/1999/xlink" width="460.8pt" height="345.6pt" viewBox="0 0 460.8 345.6" xmlns="http://www.w3.org/2000/svg" version="1.1">
 <metadata>
  <rdf:RDF xmlns:dc="http://purl.org/dc/elements/1.1/" xmlns:cc="http://creativecommons.org/ns#" xmlns:rdf="http://www.w3.org/1999/02/22-rdf-syntax-ns#">
   <cc:Work>
    <dc:type rdf:resource="http://purl.org/dc/dcmitype/StillImage"/>
    <dc:date>2023-02-10T19:24:22.283697</dc:date>
    <dc:format>image/svg+xml</dc:format>
    <dc:creator>
     <cc:Agent>
      <dc:title>Matplotlib v3.6.2, https://matplotlib.org/</dc:title>
     </cc:Agent>
    </dc:creator>
   </cc:Work>
  </rdf:RDF>
 </metadata>
 <defs>
  <style type="text/css">*{stroke-linejoin: round; stroke-linecap: butt}</style>
 </defs>
 <g id="figure_1">
  <g id="patch_1">
   <path d="M 0 345.6 
L 460.8 345.6 
L 460.8 0 
L 0 0 
z
" style="fill: #ffffff"/>
  </g>
  <g id="axes_1">
   <g id="patch_2">
    <path d="M 101.376 269.568 
L 414.72 269.568 
L 414.72 41.472 
L 101.376 41.472 
z
" style="fill: #ffffff"/>
   </g>
   <g id="matplotlib.axis_1">
    <g id="xtick_1">
     <g id="line2d_1">
      <path d="M 101.376 269.568 
L 101.376 41.472 
" clip-path="url(#p85920f82da)" style="fill: none; stroke: #cccccc; stroke-opacity: 0; stroke-width: 0.8; stroke-linecap: round"/>
     </g>
     <g id="line2d_2"/>
     <g id="text_1">
      <!-- 0 -->
      <g style="fill: #444444" transform="translate(96.376 288.4555) scale(0.2 -0.2)">
       <defs>
        <path id="TimesNewRomanPSMT-30" d="M 231 2094 
Q 231 2819 450 3342 
Q 669 3866 1031 4122 
Q 1313 4325 1613 4325 
Q 2100 4325 2488 3828 
Q 2972 3213 2972 2159 
Q 2972 1422 2759 906 
Q 2547 391 2217 158 
Q 1888 -75 1581 -75 
Q 975 -75 572 641 
Q 231 1244 231 2094 
z
M 844 2016 
Q 844 1141 1059 588 
Q 1238 122 1591 122 
Q 1759 122 1940 273 
Q 2122 425 2216 781 
Q 2359 1319 2359 2297 
Q 2359 3022 2209 3506 
Q 2097 3866 1919 4016 
Q 1791 4119 1609 4119 
Q 1397 4119 1231 3928 
Q 1006 3669 925 3112 
Q 844 2556 844 2016 
z
" transform="scale(0.015625)"/>
       </defs>
       <use xlink:href="#TimesNewRomanPSMT-30"/>
      </g>
     </g>
    </g>
    <g id="xtick_2">
     <g id="line2d_3">
      <path d="M 164.0448 269.568 
L 164.0448 41.472 
" clip-path="url(#p85920f82da)" style="fill: none; stroke: #cccccc; stroke-opacity: 0; stroke-width: 0.8; stroke-linecap: round"/>
     </g>
     <g id="line2d_4"/>
     <g id="text_2">
      <!-- 20 -->
      <g style="fill: #444444" transform="translate(154.0448 288.4555) scale(0.2 -0.2)">
       <defs>
        <path id="TimesNewRomanPSMT-32" d="M 2934 816 
L 2638 0 
L 138 0 
L 138 116 
Q 1241 1122 1691 1759 
Q 2141 2397 2141 2925 
Q 2141 3328 1894 3587 
Q 1647 3847 1303 3847 
Q 991 3847 742 3664 
Q 494 3481 375 3128 
L 259 3128 
Q 338 3706 661 4015 
Q 984 4325 1469 4325 
Q 1984 4325 2329 3994 
Q 2675 3663 2675 3213 
Q 2675 2891 2525 2569 
Q 2294 2063 1775 1497 
Q 997 647 803 472 
L 1909 472 
Q 2247 472 2383 497 
Q 2519 522 2628 598 
Q 2738 675 2819 816 
L 2934 816 
z
" transform="scale(0.015625)"/>
       </defs>
       <use xlink:href="#TimesNewRomanPSMT-32"/>
       <use xlink:href="#TimesNewRomanPSMT-30" x="50"/>
      </g>
     </g>
    </g>
    <g id="xtick_3">
     <g id="line2d_5">
      <path d="M 226.7136 269.568 
L 226.7136 41.472 
" clip-path="url(#p85920f82da)" style="fill: none; stroke: #cccccc; stroke-opacity: 0; stroke-width: 0.8; stroke-linecap: round"/>
     </g>
     <g id="line2d_6"/>
     <g id="text_3">
      <!-- 40 -->
      <g style="fill: #444444" transform="translate(216.7136 288.4555) scale(0.2 -0.2)">
       <defs>
        <path id="TimesNewRomanPSMT-34" d="M 2978 1563 
L 2978 1119 
L 2409 1119 
L 2409 0 
L 1894 0 
L 1894 1119 
L 100 1119 
L 100 1519 
L 2066 4325 
L 2409 4325 
L 2409 1563 
L 2978 1563 
z
M 1894 1563 
L 1894 3666 
L 406 1563 
L 1894 1563 
z
" transform="scale(0.015625)"/>
       </defs>
       <use xlink:href="#TimesNewRomanPSMT-34"/>
       <use xlink:href="#TimesNewRomanPSMT-30" x="50"/>
      </g>
     </g>
    </g>
    <g id="xtick_4">
     <g id="line2d_7">
      <path d="M 289.3824 269.568 
L 289.3824 41.472 
" clip-path="url(#p85920f82da)" style="fill: none; stroke: #cccccc; stroke-opacity: 0; stroke-width: 0.8; stroke-linecap: round"/>
     </g>
     <g id="line2d_8"/>
     <g id="text_4">
      <!-- 60 -->
      <g style="fill: #444444" transform="translate(279.3824 288.4555) scale(0.2 -0.2)">
       <defs>
        <path id="TimesNewRomanPSMT-36" d="M 2869 4325 
L 2869 4209 
Q 2456 4169 2195 4045 
Q 1934 3922 1679 3669 
Q 1425 3416 1258 3105 
Q 1091 2794 978 2366 
Q 1428 2675 1881 2675 
Q 2316 2675 2634 2325 
Q 2953 1975 2953 1425 
Q 2953 894 2631 456 
Q 2244 -75 1606 -75 
Q 1172 -75 869 213 
Q 275 772 275 1663 
Q 275 2231 503 2743 
Q 731 3256 1154 3653 
Q 1578 4050 1965 4187 
Q 2353 4325 2688 4325 
L 2869 4325 
z
M 925 2138 
Q 869 1716 869 1456 
Q 869 1156 980 804 
Q 1091 453 1309 247 
Q 1469 100 1697 100 
Q 1969 100 2183 356 
Q 2397 613 2397 1088 
Q 2397 1622 2184 2012 
Q 1972 2403 1581 2403 
Q 1463 2403 1327 2353 
Q 1191 2303 925 2138 
z
" transform="scale(0.015625)"/>
       </defs>
       <use xlink:href="#TimesNewRomanPSMT-36"/>
       <use xlink:href="#TimesNewRomanPSMT-30" x="50"/>
      </g>
     </g>
    </g>
    <g id="xtick_5">
     <g id="line2d_9">
      <path d="M 352.0512 269.568 
L 352.0512 41.472 
" clip-path="url(#p85920f82da)" style="fill: none; stroke: #cccccc; stroke-opacity: 0; stroke-width: 0.8; stroke-linecap: round"/>
     </g>
     <g id="line2d_10"/>
     <g id="text_5">
      <!-- 80 -->
      <g style="fill: #444444" transform="translate(342.0512 288.4555) scale(0.2 -0.2)">
       <defs>
        <path id="TimesNewRomanPSMT-38" d="M 1228 2134 
Q 725 2547 579 2797 
Q 434 3047 434 3316 
Q 434 3728 753 4026 
Q 1072 4325 1600 4325 
Q 2113 4325 2425 4047 
Q 2738 3769 2738 3413 
Q 2738 3175 2569 2928 
Q 2400 2681 1866 2347 
Q 2416 1922 2594 1678 
Q 2831 1359 2831 1006 
Q 2831 559 2490 242 
Q 2150 -75 1597 -75 
Q 994 -75 656 303 
Q 388 606 388 966 
Q 388 1247 577 1523 
Q 766 1800 1228 2134 
z
M 1719 2469 
Q 2094 2806 2194 3001 
Q 2294 3197 2294 3444 
Q 2294 3772 2109 3958 
Q 1925 4144 1606 4144 
Q 1288 4144 1088 3959 
Q 888 3775 888 3528 
Q 888 3366 970 3203 
Q 1053 3041 1206 2894 
L 1719 2469 
z
M 1375 2016 
Q 1116 1797 991 1539 
Q 866 1281 866 981 
Q 866 578 1086 336 
Q 1306 94 1647 94 
Q 1984 94 2187 284 
Q 2391 475 2391 747 
Q 2391 972 2272 1150 
Q 2050 1481 1375 2016 
z
" transform="scale(0.015625)"/>
       </defs>
       <use xlink:href="#TimesNewRomanPSMT-38"/>
       <use xlink:href="#TimesNewRomanPSMT-30" x="50"/>
      </g>
     </g>
    </g>
    <g id="xtick_6">
     <g id="line2d_11">
      <path d="M 414.72 269.568 
L 414.72 41.472 
" clip-path="url(#p85920f82da)" style="fill: none; stroke: #cccccc; stroke-opacity: 0; stroke-width: 0.8; stroke-linecap: round"/>
     </g>
     <g id="line2d_12"/>
     <g id="text_6">
      <!-- 100 -->
      <g style="fill: #444444" transform="translate(399.72 288.4555) scale(0.2 -0.2)">
       <defs>
        <path id="TimesNewRomanPSMT-31" d="M 750 3822 
L 1781 4325 
L 1884 4325 
L 1884 747 
Q 1884 391 1914 303 
Q 1944 216 2037 169 
Q 2131 122 2419 116 
L 2419 0 
L 825 0 
L 825 116 
Q 1125 122 1212 167 
Q 1300 213 1334 289 
Q 1369 366 1369 747 
L 1369 3034 
Q 1369 3497 1338 3628 
Q 1316 3728 1258 3775 
Q 1200 3822 1119 3822 
Q 1003 3822 797 3725 
L 750 3822 
z
" transform="scale(0.015625)"/>
       </defs>
       <use xlink:href="#TimesNewRomanPSMT-31"/>
       <use xlink:href="#TimesNewRomanPSMT-30" x="50"/>
       <use xlink:href="#TimesNewRomanPSMT-30" x="100"/>
      </g>
     </g>
    </g>
    <g id="text_7">
     <!-- Timesteps -->
     <g style="fill: #444444" transform="translate(207.104641 322.093) scale(0.25 -0.25)">
      <defs>
       <path id="TimesNewRomanPSMT-54" d="M 3703 4238 
L 3750 3244 
L 3631 3244 
Q 3597 3506 3538 3619 
Q 3441 3800 3280 3886 
Q 3119 3972 2856 3972 
L 2259 3972 
L 2259 734 
Q 2259 344 2344 247 
Q 2463 116 2709 116 
L 2856 116 
L 2856 0 
L 1059 0 
L 1059 116 
L 1209 116 
Q 1478 116 1591 278 
Q 1659 378 1659 734 
L 1659 3972 
L 1150 3972 
Q 853 3972 728 3928 
Q 566 3869 450 3700 
Q 334 3531 313 3244 
L 194 3244 
L 244 4238 
L 3703 4238 
z
" transform="scale(0.015625)"/>
       <path id="TimesNewRomanPSMT-69" d="M 928 4444 
Q 1059 4444 1151 4351 
Q 1244 4259 1244 4128 
Q 1244 3997 1151 3903 
Q 1059 3809 928 3809 
Q 797 3809 703 3903 
Q 609 3997 609 4128 
Q 609 4259 701 4351 
Q 794 4444 928 4444 
z
M 1188 2947 
L 1188 647 
Q 1188 378 1227 289 
Q 1266 200 1342 156 
Q 1419 113 1622 113 
L 1622 0 
L 231 0 
L 231 113 
Q 441 113 512 153 
Q 584 194 626 287 
Q 669 381 669 647 
L 669 1750 
Q 669 2216 641 2353 
Q 619 2453 572 2492 
Q 525 2531 444 2531 
Q 356 2531 231 2484 
L 188 2597 
L 1050 2947 
L 1188 2947 
z
" transform="scale(0.015625)"/>
       <path id="TimesNewRomanPSMT-6d" d="M 1050 2338 
Q 1363 2650 1419 2697 
Q 1559 2816 1721 2881 
Q 1884 2947 2044 2947 
Q 2313 2947 2506 2790 
Q 2700 2634 2766 2338 
Q 3088 2713 3309 2830 
Q 3531 2947 3766 2947 
Q 3994 2947 4170 2830 
Q 4347 2713 4450 2447 
Q 4519 2266 4519 1878 
L 4519 647 
Q 4519 378 4559 278 
Q 4591 209 4675 161 
Q 4759 113 4950 113 
L 4950 0 
L 3538 0 
L 3538 113 
L 3597 113 
Q 3781 113 3884 184 
Q 3956 234 3988 344 
Q 4000 397 4000 647 
L 4000 1878 
Q 4000 2228 3916 2372 
Q 3794 2572 3525 2572 
Q 3359 2572 3192 2489 
Q 3025 2406 2788 2181 
L 2781 2147 
L 2788 2013 
L 2788 647 
Q 2788 353 2820 281 
Q 2853 209 2943 161 
Q 3034 113 3253 113 
L 3253 0 
L 1806 0 
L 1806 113 
Q 2044 113 2133 169 
Q 2222 225 2256 338 
Q 2272 391 2272 647 
L 2272 1878 
Q 2272 2228 2169 2381 
Q 2031 2581 1784 2581 
Q 1616 2581 1450 2491 
Q 1191 2353 1050 2181 
L 1050 647 
Q 1050 366 1089 281 
Q 1128 197 1204 155 
Q 1281 113 1516 113 
L 1516 0 
L 100 0 
L 100 113 
Q 297 113 375 155 
Q 453 197 493 289 
Q 534 381 534 647 
L 534 1741 
Q 534 2213 506 2350 
Q 484 2453 437 2492 
Q 391 2531 309 2531 
Q 222 2531 100 2484 
L 53 2597 
L 916 2947 
L 1050 2947 
L 1050 2338 
z
" transform="scale(0.015625)"/>
       <path id="TimesNewRomanPSMT-65" d="M 681 1784 
Q 678 1147 991 784 
Q 1303 422 1725 422 
Q 2006 422 2214 576 
Q 2422 731 2563 1106 
L 2659 1044 
Q 2594 616 2278 264 
Q 1963 -88 1488 -88 
Q 972 -88 605 314 
Q 238 716 238 1394 
Q 238 2128 614 2539 
Q 991 2950 1559 2950 
Q 2041 2950 2350 2633 
Q 2659 2316 2659 1784 
L 681 1784 
z
M 681 1966 
L 2006 1966 
Q 1991 2241 1941 2353 
Q 1863 2528 1708 2628 
Q 1553 2728 1384 2728 
Q 1125 2728 920 2526 
Q 716 2325 681 1966 
z
" transform="scale(0.015625)"/>
       <path id="TimesNewRomanPSMT-73" d="M 2050 2947 
L 2050 1972 
L 1947 1972 
Q 1828 2431 1642 2597 
Q 1456 2763 1169 2763 
Q 950 2763 815 2647 
Q 681 2531 681 2391 
Q 681 2216 781 2091 
Q 878 1963 1175 1819 
L 1631 1597 
Q 2266 1288 2266 781 
Q 2266 391 1970 151 
Q 1675 -88 1309 -88 
Q 1047 -88 709 6 
Q 606 38 541 38 
Q 469 38 428 -44 
L 325 -44 
L 325 978 
L 428 978 
Q 516 541 762 319 
Q 1009 97 1316 97 
Q 1531 97 1667 223 
Q 1803 350 1803 528 
Q 1803 744 1651 891 
Q 1500 1038 1047 1263 
Q 594 1488 453 1669 
Q 313 1847 313 2119 
Q 313 2472 555 2709 
Q 797 2947 1181 2947 
Q 1350 2947 1591 2875 
Q 1750 2828 1803 2828 
Q 1853 2828 1881 2850 
Q 1909 2872 1947 2947 
L 2050 2947 
z
" transform="scale(0.015625)"/>
       <path id="TimesNewRomanPSMT-74" d="M 1031 3803 
L 1031 2863 
L 1700 2863 
L 1700 2644 
L 1031 2644 
L 1031 788 
Q 1031 509 1111 412 
Q 1191 316 1316 316 
Q 1419 316 1516 380 
Q 1613 444 1666 569 
L 1788 569 
Q 1678 263 1478 108 
Q 1278 -47 1066 -47 
Q 922 -47 784 33 
Q 647 113 581 261 
Q 516 409 516 719 
L 516 2644 
L 63 2644 
L 63 2747 
Q 234 2816 414 2980 
Q 594 3144 734 3369 
Q 806 3488 934 3803 
L 1031 3803 
z
" transform="scale(0.015625)"/>
       <path id="TimesNewRomanPSMT-70" d="M -6 2578 
L 875 2934 
L 994 2934 
L 994 2266 
Q 1216 2644 1439 2795 
Q 1663 2947 1909 2947 
Q 2341 2947 2628 2609 
Q 2981 2197 2981 1534 
Q 2981 794 2556 309 
Q 2206 -88 1675 -88 
Q 1444 -88 1275 -22 
Q 1150 25 994 166 
L 994 -706 
Q 994 -1000 1030 -1079 
Q 1066 -1159 1155 -1206 
Q 1244 -1253 1478 -1253 
L 1478 -1369 
L -22 -1369 
L -22 -1253 
L 56 -1253 
Q 228 -1256 350 -1188 
Q 409 -1153 442 -1076 
Q 475 -1000 475 -688 
L 475 2019 
Q 475 2297 450 2372 
Q 425 2447 370 2484 
Q 316 2522 222 2522 
Q 147 2522 31 2478 
L -6 2578 
z
M 994 2081 
L 994 1013 
Q 994 666 1022 556 
Q 1066 375 1236 237 
Q 1406 100 1666 100 
Q 1978 100 2172 344 
Q 2425 663 2425 1241 
Q 2425 1897 2138 2250 
Q 1938 2494 1663 2494 
Q 1513 2494 1366 2419 
Q 1253 2363 994 2081 
z
" transform="scale(0.015625)"/>
      </defs>
      <use xlink:href="#TimesNewRomanPSMT-54"/>
      <use xlink:href="#TimesNewRomanPSMT-69" x="57.583984"/>
      <use xlink:href="#TimesNewRomanPSMT-6d" x="85.367188"/>
      <use xlink:href="#TimesNewRomanPSMT-65" x="163.150391"/>
      <use xlink:href="#TimesNewRomanPSMT-73" x="207.535156"/>
      <use xlink:href="#TimesNewRomanPSMT-74" x="246.451172"/>
      <use xlink:href="#TimesNewRomanPSMT-65" x="274.234375"/>
      <use xlink:href="#TimesNewRomanPSMT-70" x="318.619141"/>
      <use xlink:href="#TimesNewRomanPSMT-73" x="368.619141"/>
     </g>
    </g>
   </g>
   <g id="matplotlib.axis_2">
    <g id="ytick_1">
     <g id="line2d_13">
      <path d="M 101.376 226.180138 
L 414.72 226.180138 
" clip-path="url(#p85920f82da)" style="fill: none; stroke: #cccccc; stroke-opacity: 0.4; stroke-width: 1.5; stroke-linecap: round"/>
     </g>
     <g id="line2d_14"/>
     <g id="text_8">
      <!-- −20 -->
      <g style="fill: #444444" transform="translate(65.097875 233.123888) scale(0.2 -0.2)">
       <defs>
        <path id="TimesNewRomanPSMT-2212" d="M 3484 2000 
L 116 2000 
L 116 2256 
L 3484 2256 
L 3484 2000 
z
" transform="scale(0.015625)"/>
       </defs>
       <use xlink:href="#TimesNewRomanPSMT-2212"/>
       <use xlink:href="#TimesNewRomanPSMT-32" x="56.396484"/>
       <use xlink:href="#TimesNewRomanPSMT-30" x="106.396484"/>
      </g>
     </g>
    </g>
    <g id="ytick_2">
     <g id="line2d_15">
      <path d="M 101.376 161.127845 
L 414.72 161.127845 
" clip-path="url(#p85920f82da)" style="fill: none; stroke: #cccccc; stroke-opacity: 0.4; stroke-width: 1.5; stroke-linecap: round"/>
     </g>
     <g id="line2d_16"/>
     <g id="text_9">
      <!-- 0 -->
      <g style="fill: #444444" transform="translate(86.376 168.071595) scale(0.2 -0.2)">
       <use xlink:href="#TimesNewRomanPSMT-30"/>
      </g>
     </g>
    </g>
    <g id="ytick_3">
     <g id="line2d_17">
      <path d="M 101.376 96.075553 
L 414.72 96.075553 
" clip-path="url(#p85920f82da)" style="fill: none; stroke: #cccccc; stroke-opacity: 0.4; stroke-width: 1.5; stroke-linecap: round"/>
     </g>
     <g id="line2d_18"/>
     <g id="text_10">
      <!-- 20 -->
      <g style="fill: #444444" transform="translate(76.376 103.019303) scale(0.2 -0.2)">
       <use xlink:href="#TimesNewRomanPSMT-32"/>
       <use xlink:href="#TimesNewRomanPSMT-30" x="50"/>
      </g>
     </g>
    </g>
    <g id="text_11">
     <!-- Pressure (kPa) -->
     <g style="fill: #444444" transform="translate(47.750219 228.072734) rotate(-90) scale(0.25 -0.25)">
      <defs>
       <path id="TimesNewRomanPSMT-50" d="M 1313 1984 
L 1313 750 
Q 1313 350 1400 253 
Q 1519 116 1759 116 
L 1922 116 
L 1922 0 
L 106 0 
L 106 116 
L 266 116 
Q 534 116 650 291 
Q 713 388 713 750 
L 713 3488 
Q 713 3888 628 3984 
Q 506 4122 266 4122 
L 106 4122 
L 106 4238 
L 1659 4238 
Q 2228 4238 2556 4120 
Q 2884 4003 3109 3725 
Q 3334 3447 3334 3066 
Q 3334 2547 2992 2222 
Q 2650 1897 2025 1897 
Q 1872 1897 1694 1919 
Q 1516 1941 1313 1984 
z
M 1313 2163 
Q 1478 2131 1606 2115 
Q 1734 2100 1825 2100 
Q 2150 2100 2386 2351 
Q 2622 2603 2622 3003 
Q 2622 3278 2509 3514 
Q 2397 3750 2190 3867 
Q 1984 3984 1722 3984 
Q 1563 3984 1313 3925 
L 1313 2163 
z
" transform="scale(0.015625)"/>
       <path id="TimesNewRomanPSMT-72" d="M 1038 2947 
L 1038 2303 
Q 1397 2947 1775 2947 
Q 1947 2947 2059 2842 
Q 2172 2738 2172 2600 
Q 2172 2478 2090 2393 
Q 2009 2309 1897 2309 
Q 1788 2309 1652 2417 
Q 1516 2525 1450 2525 
Q 1394 2525 1328 2463 
Q 1188 2334 1038 2041 
L 1038 669 
Q 1038 431 1097 309 
Q 1138 225 1241 169 
Q 1344 113 1538 113 
L 1538 0 
L 72 0 
L 72 113 
Q 291 113 397 181 
Q 475 231 506 341 
Q 522 394 522 644 
L 522 1753 
Q 522 2253 501 2348 
Q 481 2444 426 2487 
Q 372 2531 291 2531 
Q 194 2531 72 2484 
L 41 2597 
L 906 2947 
L 1038 2947 
z
" transform="scale(0.015625)"/>
       <path id="TimesNewRomanPSMT-75" d="M 2709 2863 
L 2709 1128 
Q 2709 631 2732 520 
Q 2756 409 2807 365 
Q 2859 322 2928 322 
Q 3025 322 3147 375 
L 3191 266 
L 2334 -88 
L 2194 -88 
L 2194 519 
Q 1825 119 1631 15 
Q 1438 -88 1222 -88 
Q 981 -88 804 51 
Q 628 191 559 409 
Q 491 628 491 1028 
L 491 2306 
Q 491 2509 447 2587 
Q 403 2666 317 2708 
Q 231 2750 6 2747 
L 6 2863 
L 1009 2863 
L 1009 947 
Q 1009 547 1148 422 
Q 1288 297 1484 297 
Q 1619 297 1789 381 
Q 1959 466 2194 703 
L 2194 2325 
Q 2194 2569 2105 2655 
Q 2016 2741 1734 2747 
L 1734 2863 
L 2709 2863 
z
" transform="scale(0.015625)"/>
       <path id="TimesNewRomanPSMT-20" transform="scale(0.015625)"/>
       <path id="TimesNewRomanPSMT-28" d="M 1988 -1253 
L 1988 -1369 
Q 1516 -1131 1200 -813 
Q 750 -359 506 256 
Q 263 872 263 1534 
Q 263 2503 741 3301 
Q 1219 4100 1988 4444 
L 1988 4313 
Q 1603 4100 1356 3731 
Q 1109 3363 987 2797 
Q 866 2231 866 1616 
Q 866 947 969 400 
Q 1050 -31 1165 -292 
Q 1281 -553 1476 -793 
Q 1672 -1034 1988 -1253 
z
" transform="scale(0.015625)"/>
       <path id="TimesNewRomanPSMT-6b" d="M 1047 4444 
L 1047 1594 
L 1775 2259 
Q 2006 2472 2044 2528 
Q 2069 2566 2069 2603 
Q 2069 2666 2017 2711 
Q 1966 2756 1847 2763 
L 1847 2863 
L 3091 2863 
L 3091 2763 
Q 2834 2756 2664 2684 
Q 2494 2613 2291 2428 
L 1556 1750 
L 2291 822 
Q 2597 438 2703 334 
Q 2853 188 2966 144 
Q 3044 113 3238 113 
L 3238 0 
L 1847 0 
L 1847 113 
Q 1966 116 2008 148 
Q 2050 181 2050 241 
Q 2050 313 1925 472 
L 1047 1594 
L 1047 644 
Q 1047 366 1086 278 
Q 1125 191 1197 153 
Q 1269 116 1509 113 
L 1509 0 
L 53 0 
L 53 113 
Q 272 113 381 166 
Q 447 200 481 272 
Q 528 375 528 628 
L 528 3234 
Q 528 3731 506 3842 
Q 484 3953 434 3995 
Q 384 4038 303 4038 
Q 238 4038 106 3984 
L 53 4094 
L 903 4444 
L 1047 4444 
z
" transform="scale(0.015625)"/>
       <path id="TimesNewRomanPSMT-61" d="M 1822 413 
Q 1381 72 1269 19 
Q 1100 -59 909 -59 
Q 613 -59 420 144 
Q 228 347 228 678 
Q 228 888 322 1041 
Q 450 1253 767 1440 
Q 1084 1628 1822 1897 
L 1822 2009 
Q 1822 2438 1686 2597 
Q 1550 2756 1291 2756 
Q 1094 2756 978 2650 
Q 859 2544 859 2406 
L 866 2225 
Q 866 2081 792 2003 
Q 719 1925 600 1925 
Q 484 1925 411 2006 
Q 338 2088 338 2228 
Q 338 2497 613 2722 
Q 888 2947 1384 2947 
Q 1766 2947 2009 2819 
Q 2194 2722 2281 2516 
Q 2338 2381 2338 1966 
L 2338 994 
Q 2338 584 2353 492 
Q 2369 400 2405 369 
Q 2441 338 2488 338 
Q 2538 338 2575 359 
Q 2641 400 2828 588 
L 2828 413 
Q 2478 -56 2159 -56 
Q 2006 -56 1915 50 
Q 1825 156 1822 413 
z
M 1822 616 
L 1822 1706 
Q 1350 1519 1213 1441 
Q 966 1303 859 1153 
Q 753 1003 753 825 
Q 753 600 887 451 
Q 1022 303 1197 303 
Q 1434 303 1822 616 
z
" transform="scale(0.015625)"/>
       <path id="TimesNewRomanPSMT-29" d="M 144 4313 
L 144 4444 
Q 619 4209 934 3891 
Q 1381 3434 1625 2820 
Q 1869 2206 1869 1541 
Q 1869 572 1392 -226 
Q 916 -1025 144 -1369 
L 144 -1253 
Q 528 -1038 776 -670 
Q 1025 -303 1145 264 
Q 1266 831 1266 1447 
Q 1266 2113 1163 2663 
Q 1084 3094 967 3353 
Q 850 3613 656 3853 
Q 463 4094 144 4313 
z
" transform="scale(0.015625)"/>
      </defs>
      <use xlink:href="#TimesNewRomanPSMT-50"/>
      <use xlink:href="#TimesNewRomanPSMT-72" x="55.615234"/>
      <use xlink:href="#TimesNewRomanPSMT-65" x="88.916016"/>
      <use xlink:href="#TimesNewRomanPSMT-73" x="133.300781"/>
      <use xlink:href="#TimesNewRomanPSMT-73" x="172.216797"/>
      <use xlink:href="#TimesNewRomanPSMT-75" x="211.132812"/>
      <use xlink:href="#TimesNewRomanPSMT-72" x="261.132812"/>
      <use xlink:href="#TimesNewRomanPSMT-65" x="294.433594"/>
      <use xlink:href="#TimesNewRomanPSMT-20" x="338.818359"/>
      <use xlink:href="#TimesNewRomanPSMT-28" x="363.818359"/>
      <use xlink:href="#TimesNewRomanPSMT-6b" x="397.119141"/>
      <use xlink:href="#TimesNewRomanPSMT-50" x="447.119141"/>
      <use xlink:href="#TimesNewRomanPSMT-61" x="502.734375"/>
      <use xlink:href="#TimesNewRomanPSMT-29" x="547.119141"/>
     </g>
    </g>
   </g>
   <g id="line2d_19">
    <path d="M 104.50944 80.463006 
L 107.64288 181.294056 
L 110.77632 180.968795 
L 113.90976 180.643533 
L 117.0432 145.190034 
L 120.17664 145.515295 
L 123.31008 145.515295 
L 126.44352 152.996309 
L 129.57696 153.32157 
L 132.7104 153.32157 
L 135.84384 159.8268 
L 138.97728 159.8268 
L 142.11072 159.8268 
L 145.24416 147.792125 
L 148.3776 148.117387 
L 151.51104 148.117387 
L 154.64448 126.65013 
L 157.77792 127.300653 
L 160.91136 127.625915 
L 164.0448 152.020524 
L 167.17824 152.020524 
L 170.31168 152.020524 
L 173.44512 152.020524 
L 176.57856 152.020524 
L 179.712 152.020524 
L 182.84544 152.020524 
L 185.97888 152.020524 
L 189.11232 61.597837 
L 192.24576 62.573625 
L 195.3792 63.549406 
L 198.51264 99.653429 
L 201.64608 99.653429 
L 204.77952 99.653429 
L 207.91296 74.933557 
L 211.0464 75.584084 
L 214.17984 75.909339 
L 217.31328 85.016663 
L 220.44672 85.016663 
L 223.58016 85.341928 
L 226.7136 63.549406 
L 229.84704 64.199932 
L 232.98048 64.850452 
L 236.11392 69.404109 
L 239.24736 70.054635 
L 242.3808 70.379897 
L 245.51424 61.597837 
L 248.64768 62.24836 
L 251.78112 62.573625 
L 254.91456 160.802584 
L 258.048 162.428891 
L 261.18144 162.428891 
L 264.31488 162.10363 
L 267.44832 109.086011 
L 270.58176 109.411273 
L 273.7152 110.387057 
L 276.84864 110.387057 
L 279.98208 111.03758 
L 283.11552 52.165255 
L 286.24896 53.466307 
L 289.3824 54.116817 
L 292.51584 147.466864 
L 295.64928 147.792125 
L 298.78272 147.466864 
L 301.91616 63.874668 
L 305.0496 65.175714 
L 308.18304 66.151495 
L 311.31648 134.456405 
L 314.44992 135.106928 
L 317.58336 134.781667 
L 320.7168 86.64297 
L 323.85024 87.618755 
L 326.98368 87.618755 
L 330.11712 132.504837 
L 333.25056 132.504837 
L 336.384 132.504837 
L 339.51744 98.027121 
L 342.65088 98.352386 
L 345.78432 98.677641 
L 348.91776 99.328167 
L 352.0512 119.81964 
L 355.18464 119.494378 
L 358.31808 119.494378 
L 361.45152 119.494378 
L 364.58496 165.030983 
L 367.7184 164.38046 
L 370.85184 164.38046 
L 373.98528 164.055199 
L 377.11872 163.729937 
L 380.25216 60.296792 
L 383.3856 61.597837 
L 386.51904 62.89888 
L 389.65248 95.750291 
L 392.78592 95.750291 
L 395.91936 95.750291 
L 399.0528 95.750291 
L 402.18624 96.400814 
L 405.31968 96.400814 
L 408.45312 97.051334 
L 411.58656 51.84 
L 414.72 53.141036 
" clip-path="url(#p85920f82da)" style="fill: none; stroke-dasharray: 9.25,4; stroke-dashoffset: 0; stroke: #82b0d2; stroke-width: 2.5"/>
   </g>
   <g id="line2d_20">
    <path d="M 107.64288 136.84722 
L 110.77632 138.547939 
L 113.90976 140.019587 
L 117.0432 141.246137 
L 120.17664 142.213734 
L 123.31008 142.910821 
L 126.44352 143.328232 
L 129.57696 143.459282 
L 132.7104 143.299822 
L 135.84384 142.848272 
L 138.97728 142.105641 
L 142.11072 141.075511 
L 145.24416 139.764012 
L 148.3776 138.179759 
L 151.51104 136.333782 
L 154.64448 134.239424 
L 157.77792 131.912225 
L 160.91136 129.369783 
L 164.0448 126.631596 
L 167.17824 123.718893 
L 170.31168 120.654442 
L 173.44512 117.462351 
L 176.57856 114.167852 
L 179.712 110.797079 
L 182.84544 107.376836 
L 185.97888 103.93436 
L 189.11232 100.49708 
L 192.24576 97.092372 
L 195.3792 93.74732 
L 198.51264 90.488475 
L 201.64608 87.341618 
L 204.77952 84.331536 
L 207.91296 81.481801 
L 211.0464 78.814558 
L 214.17984 76.350335 
L 217.31328 74.107859 
L 220.44672 72.103891 
L 223.58016 70.353077 
L 226.7136 68.867819 
L 229.84704 67.658168 
L 232.98048 66.731732 
L 236.11392 66.093612 
L 239.24736 65.746355 
L 242.3808 65.689934 
L 245.51424 65.921749 
L 248.64768 66.436647 
L 251.78112 67.226972 
L 254.91456 68.282631 
L 258.048 69.591184 
L 261.18144 71.137958 
L 264.31488 72.906171 
L 267.44832 74.877087 
L 270.58176 77.030176 
L 273.7152 79.343304 
L 276.84864 81.792923 
L 279.98208 84.35428 
L 283.11552 87.001639 
L 286.24896 89.70851 
L 289.3824 92.447878 
L 292.51584 95.192447 
L 295.64928 97.914881 
L 298.78272 100.588045 
L 301.91616 103.185245 
L 305.0496 105.680464 
L 308.18304 108.048594 
L 311.31648 110.265657 
L 314.44992 112.309014 
L 317.58336 114.157571 
L 320.7168 115.791962 
L 323.85024 117.194717 
L 326.98368 118.350424 
L 330.11712 119.245857 
L 333.25056 119.8701 
L 336.384 120.214634 
L 339.51744 120.273424 
L 342.65088 120.042959 
L 345.78432 119.522292 
L 348.91776 118.713045 
L 352.0512 117.619392 
L 355.18464 116.248025 
L 358.31808 114.608092 
L 361.45152 112.711115 
L 364.58496 110.570891 
L 367.7184 108.203365 
L 370.85184 105.626492 
L 373.98528 102.860077 
L 377.11872 99.925595 
L 380.25216 96.846009 
L 383.3856 93.645559 
L 386.51904 90.349549 
L 389.65248 86.984126 
L 392.78592 83.576045 
L 395.91936 80.152433 
L 399.0528 76.740551 
L 402.18624 73.367547 
L 405.31968 70.060223 
L 408.45312 66.844793 
L 411.58656 63.746651 
L 414.72 60.790151 
L 417.85344 57.998385 
L 420.98688 55.392986 
L 424.12032 52.993931 
" clip-path="url(#p85920f82da)" style="fill: none; stroke: #82b0d2; stroke-width: 2.5; stroke-linecap: round"/>
   </g>
   <g id="line2d_21">
    <path d="M 104.50944 117.868071 
L 107.64288 161.127845 
L 110.77632 161.127845 
L 113.90976 167.307813 
L 117.0432 170.560428 
L 120.17664 170.235166 
L 123.31008 178.041442 
L 126.44352 179.667749 
L 129.57696 179.342487 
L 132.7104 167.307813 
L 135.84384 164.055199 
L 138.97728 164.055199 
L 142.11072 149.743694 
L 145.24416 148.442648 
L 148.3776 148.442648 
L 151.51104 147.466864 
L 154.64448 147.466864 
L 157.77792 147.466864 
L 160.91136 131.203791 
L 164.0448 128.276438 
L 167.17824 128.601699 
L 170.31168 128.601699 
L 173.44512 128.601699 
L 176.57856 128.601699 
L 179.712 128.601699 
L 182.84544 128.601699 
L 185.97888 138.684804 
L 189.11232 140.636373 
L 192.24576 140.636373 
L 195.3792 124.698561 
L 198.51264 119.169117 
L 201.64608 119.494378 
L 204.77952 112.013364 
L 207.91296 109.736534 
L 211.0464 110.061796 
L 214.17984 101.930256 
L 217.31328 100.303948 
L 220.44672 100.629213 
L 223.58016 100.303948 
L 226.7136 100.303948 
L 229.84704 100.303948 
L 232.98048 99.328167 
L 236.11392 99.328167 
L 239.24736 99.653429 
L 242.3808 100.954475 
L 245.51424 101.279736 
L 248.64768 101.605001 
L 251.78112 99.328167 
L 254.91456 161.127845 
L 258.048 160.802584 
L 261.18144 160.802584 
L 264.31488 160.477323 
L 267.44832 161.127845 
L 270.58176 161.127845 
L 273.7152 161.127845 
L 276.84864 161.127845 
L 279.98208 161.127845 
L 283.11552 160.802584 
L 286.24896 160.802584 
L 289.3824 160.802584 
L 292.51584 160.802584 
L 295.64928 160.802584 
L 298.78272 166.332029 
L 301.91616 167.307813 
L 305.0496 166.982552 
L 308.18304 182.595102 
L 311.31648 192.352946 
L 314.44992 192.027685 
L 317.58336 182.920364 
L 320.7168 181.619318 
L 323.85024 181.619318 
L 326.98368 188.124547 
L 330.11712 190.076116 
L 333.25056 189.750854 
L 336.384 194.955038 
L 339.51744 195.605561 
L 342.65088 195.280299 
L 345.78432 195.280299 
L 348.91776 195.605561 
L 352.0512 195.280299 
L 355.18464 195.280299 
L 358.31808 195.280299 
L 361.45152 194.955038 
L 364.58496 194.955038 
L 367.7184 194.955038 
L 370.85184 216.097033 
L 373.98528 227.155919 
L 377.11872 226.180138 
L 380.25216 226.180138 
L 383.3856 225.854877 
L 386.51904 232.034841 
L 389.65248 233.010629 
L 392.78592 232.685368 
L 395.91936 240.816904 
L 399.0528 242.11795 
L 402.18624 241.142166 
L 405.31968 240.816904 
L 408.45312 240.816904 
L 411.58656 240.491643 
L 414.72 240.491643 
" clip-path="url(#p85920f82da)" style="fill: none; stroke-dasharray: 9.25,4; stroke-dashoffset: 0; stroke: #fa9f6f; stroke-width: 2.5"/>
   </g>
   <g id="line2d_22">
    <path d="M 107.64288 189.063324 
L 110.77632 186.451121 
L 113.90976 183.76936 
L 117.0432 181.024972 
L 120.17664 178.225051 
L 123.31008 175.376834 
L 126.44352 172.487684 
L 129.57696 169.565071 
L 132.7104 166.61655 
L 135.84384 163.649746 
L 138.97728 160.67233 
L 142.11072 157.692003 
L 145.24416 154.716471 
L 148.3776 151.75343 
L 151.51104 148.810546 
L 154.64448 145.89543 
L 157.77792 143.015623 
L 160.91136 140.178576 
L 164.0448 137.391629 
L 167.17824 134.661993 
L 170.31168 131.996732 
L 173.44512 129.402744 
L 176.57856 126.886742 
L 179.712 124.455239 
L 182.84544 122.114528 
L 185.97888 119.870671 
L 189.11232 117.729477 
L 192.24576 115.69649 
L 195.3792 113.776976 
L 198.51264 111.975908 
L 201.64608 110.297951 
L 204.77952 108.747454 
L 207.91296 107.328436 
L 211.0464 106.044575 
L 214.17984 104.899201 
L 217.31328 103.895287 
L 220.44672 103.035438 
L 223.58016 102.321887 
L 226.7136 101.756492 
L 229.84704 101.340723 
L 232.98048 101.075666 
L 236.11392 100.962018 
L 239.24736 101.000082 
L 242.3808 101.18977 
L 245.51424 101.530603 
L 248.64768 102.021708 
L 251.78112 102.661827 
L 254.91456 103.449312 
L 258.048 149.994566 
L 261.18144 151.070331 
L 264.31488 152.28626 
L 267.44832 153.639219 
L 270.58176 155.125719 
L 273.7152 156.741922 
L 276.84864 158.483657 
L 279.98208 160.346429 
L 283.11552 162.325427 
L 286.24896 164.415541 
L 289.3824 166.611372 
L 292.51584 168.907248 
L 295.64928 171.297236 
L 298.78272 173.775163 
L 301.91616 176.334623 
L 305.0496 178.969004 
L 308.18304 181.671496 
L 311.31648 184.435113 
L 314.44992 187.252711 
L 317.58336 190.117006 
L 320.7168 193.020592 
L 323.85024 195.955962 
L 326.98368 198.915525 
L 330.11712 201.891628 
L 333.25056 204.876572 
L 336.384 207.862639 
L 339.51744 210.842104 
L 342.65088 213.80726 
L 345.78432 216.750435 
L 348.91776 219.664016 
L 352.0512 222.540464 
L 355.18464 225.372335 
L 358.31808 228.152302 
L 361.45152 230.873169 
L 364.58496 233.527895 
L 367.7184 236.109608 
L 370.85184 238.611624 
L 373.98528 241.027467 
L 377.11872 243.35088 
L 380.25216 245.575847 
L 383.3856 247.696606 
L 386.51904 249.707664 
L 389.65248 251.60381 
L 392.78592 253.380132 
L 395.91936 255.032027 
L 399.0528 256.555212 
L 402.18624 257.945739 
L 405.31968 259.2 
L 408.45312 214.702315 
L 411.58656 215.674644 
L 414.72 216.502036 
L 417.85344 217.182339 
L 420.98688 217.713783 
L 424.12032 218.094983 
" clip-path="url(#p85920f82da)" style="fill: none; stroke: #fa9f6f; stroke-width: 2.5; stroke-linecap: round"/>
   </g>
   <g id="patch_3">
    <path d="M 101.376 269.568 
L 101.376 41.472 
" style="fill: none; stroke: #cccccc; stroke-linejoin: miter; stroke-linecap: square"/>
   </g>
   <g id="patch_4">
    <path d="M 414.72 269.568 
L 414.72 41.472 
" style="fill: none; stroke: #cccccc; stroke-linejoin: miter; stroke-linecap: square"/>
   </g>
   <g id="patch_5">
    <path d="M 101.376 269.568 
L 414.72 269.568 
" style="fill: none; stroke: #cccccc; stroke-linejoin: miter; stroke-linecap: square"/>
   </g>
   <g id="patch_6">
    <path d="M 101.376 41.472 
L 414.72 41.472 
" style="fill: none; stroke: #cccccc; stroke-linejoin: miter; stroke-linecap: square"/>
   </g>
  </g>
 </g>
 <defs>
  <clipPath id="p85920f82da">
   <rect x="101.376" y="41.472" width="313.344" height="228.096"/>
  </clipPath>
 </defs>
</svg>
