<?xml version="1.0" encoding="utf-8" standalone="no"?>
<!DOCTYPE svg PUBLIC "-//W3C//DTD SVG 1.1//EN"
  "http://www.w3.org/Graphics/SVG/1.1/DTD/svg11.dtd">
<svg xmlns:xlink="http://www.w3.org/1999/xlink" width="720pt" height="720pt" viewBox="0 0 720 720" xmlns="http://www.w3.org/2000/svg" version="1.1">
 <metadata>
  <rdf:RDF xmlns:dc="http://purl.org/dc/elements/1.1/" xmlns:cc="http://creativecommons.org/ns#" xmlns:rdf="http://www.w3.org/1999/02/22-rdf-syntax-ns#">
   <cc:Work>
    <dc:type rdf:resource="http://purl.org/dc/dcmitype/StillImage"/>
    <dc:date>2023-02-06T15:27:56.338552</dc:date>
    <dc:format>image/svg+xml</dc:format>
    <dc:creator>
     <cc:Agent>
      <dc:title>Matplotlib v3.6.2, https://matplotlib.org/</dc:title>
     </cc:Agent>
    </dc:creator>
   </cc:Work>
  </rdf:RDF>
 </metadata>
 <defs>
  <style type="text/css">*{stroke-linejoin: round; stroke-linecap: butt}</style>
 </defs>
 <g id="figure_1">
  <g id="patch_1">
   <path d="M 0 720 
L 720 720 
L 720 0 
L 0 0 
z
" style="fill: #ffffff"/>
  </g>
  <g id="axes_1">
   <g id="patch_2">
    <path d="M 90 338.4 
L 648 338.4 
L 648 86.4 
L 90 86.4 
z
" style="fill: #ffffff"/>
   </g>
   <g id="matplotlib.axis_1">
    <g id="xtick_1">
     <g id="line2d_1">
      <defs>
       <path id="m2111207ef9" d="M 0 0 
L 0 3.5 
" style="stroke: #000000; stroke-width: 0.8"/>
      </defs>
      <g>
       <use xlink:href="#m2111207ef9" x="115.363636" y="338.4" style="stroke: #000000; stroke-width: 0.8"/>
      </g>
     </g>
     <g id="text_1">
      <!-- 0 -->
      <g transform="translate(112.182386 352.998437) scale(0.1 -0.1)">
       <defs>
        <path id="DejaVuSans-30" d="M 2034 4250 
Q 1547 4250 1301 3770 
Q 1056 3291 1056 2328 
Q 1056 1369 1301 889 
Q 1547 409 2034 409 
Q 2525 409 2770 889 
Q 3016 1369 3016 2328 
Q 3016 3291 2770 3770 
Q 2525 4250 2034 4250 
z
M 2034 4750 
Q 2819 4750 3233 4129 
Q 3647 3509 3647 2328 
Q 3647 1150 3233 529 
Q 2819 -91 2034 -91 
Q 1250 -91 836 529 
Q 422 1150 422 2328 
Q 422 3509 836 4129 
Q 1250 4750 2034 4750 
z
" transform="scale(0.015625)"/>
       </defs>
       <use xlink:href="#DejaVuSans-30"/>
      </g>
     </g>
    </g>
    <g id="xtick_2">
     <g id="line2d_2">
      <g>
       <use xlink:href="#m2111207ef9" x="179.171527" y="338.4" style="stroke: #000000; stroke-width: 0.8"/>
      </g>
     </g>
     <g id="text_2">
      <!-- 20 -->
      <g transform="translate(172.809027 352.998437) scale(0.1 -0.1)">
       <defs>
        <path id="DejaVuSans-32" d="M 1228 531 
L 3431 531 
L 3431 0 
L 469 0 
L 469 531 
Q 828 903 1448 1529 
Q 2069 2156 2228 2338 
Q 2531 2678 2651 2914 
Q 2772 3150 2772 3378 
Q 2772 3750 2511 3984 
Q 2250 4219 1831 4219 
Q 1534 4219 1204 4116 
Q 875 4013 500 3803 
L 500 4441 
Q 881 4594 1212 4672 
Q 1544 4750 1819 4750 
Q 2544 4750 2975 4387 
Q 3406 4025 3406 3419 
Q 3406 3131 3298 2873 
Q 3191 2616 2906 2266 
Q 2828 2175 2409 1742 
Q 1991 1309 1228 531 
z
" transform="scale(0.015625)"/>
       </defs>
       <use xlink:href="#DejaVuSans-32"/>
       <use xlink:href="#DejaVuSans-30" x="63.623047"/>
      </g>
     </g>
    </g>
    <g id="xtick_3">
     <g id="line2d_3">
      <g>
       <use xlink:href="#m2111207ef9" x="242.979417" y="338.4" style="stroke: #000000; stroke-width: 0.8"/>
      </g>
     </g>
     <g id="text_3">
      <!-- 40 -->
      <g transform="translate(236.616917 352.998437) scale(0.1 -0.1)">
       <defs>
        <path id="DejaVuSans-34" d="M 2419 4116 
L 825 1625 
L 2419 1625 
L 2419 4116 
z
M 2253 4666 
L 3047 4666 
L 3047 1625 
L 3713 1625 
L 3713 1100 
L 3047 1100 
L 3047 0 
L 2419 0 
L 2419 1100 
L 313 1100 
L 313 1709 
L 2253 4666 
z
" transform="scale(0.015625)"/>
       </defs>
       <use xlink:href="#DejaVuSans-34"/>
       <use xlink:href="#DejaVuSans-30" x="63.623047"/>
      </g>
     </g>
    </g>
    <g id="xtick_4">
     <g id="line2d_4">
      <g>
       <use xlink:href="#m2111207ef9" x="306.787307" y="338.4" style="stroke: #000000; stroke-width: 0.8"/>
      </g>
     </g>
     <g id="text_4">
      <!-- 60 -->
      <g transform="translate(300.424807 352.998437) scale(0.1 -0.1)">
       <defs>
        <path id="DejaVuSans-36" d="M 2113 2584 
Q 1688 2584 1439 2293 
Q 1191 2003 1191 1497 
Q 1191 994 1439 701 
Q 1688 409 2113 409 
Q 2538 409 2786 701 
Q 3034 994 3034 1497 
Q 3034 2003 2786 2293 
Q 2538 2584 2113 2584 
z
M 3366 4563 
L 3366 3988 
Q 3128 4100 2886 4159 
Q 2644 4219 2406 4219 
Q 1781 4219 1451 3797 
Q 1122 3375 1075 2522 
Q 1259 2794 1537 2939 
Q 1816 3084 2150 3084 
Q 2853 3084 3261 2657 
Q 3669 2231 3669 1497 
Q 3669 778 3244 343 
Q 2819 -91 2113 -91 
Q 1303 -91 875 529 
Q 447 1150 447 2328 
Q 447 3434 972 4092 
Q 1497 4750 2381 4750 
Q 2619 4750 2861 4703 
Q 3103 4656 3366 4563 
z
" transform="scale(0.015625)"/>
       </defs>
       <use xlink:href="#DejaVuSans-36"/>
       <use xlink:href="#DejaVuSans-30" x="63.623047"/>
      </g>
     </g>
    </g>
    <g id="xtick_5">
     <g id="line2d_5">
      <g>
       <use xlink:href="#m2111207ef9" x="370.595197" y="338.4" style="stroke: #000000; stroke-width: 0.8"/>
      </g>
     </g>
     <g id="text_5">
      <!-- 80 -->
      <g transform="translate(364.232697 352.998437) scale(0.1 -0.1)">
       <defs>
        <path id="DejaVuSans-38" d="M 2034 2216 
Q 1584 2216 1326 1975 
Q 1069 1734 1069 1313 
Q 1069 891 1326 650 
Q 1584 409 2034 409 
Q 2484 409 2743 651 
Q 3003 894 3003 1313 
Q 3003 1734 2745 1975 
Q 2488 2216 2034 2216 
z
M 1403 2484 
Q 997 2584 770 2862 
Q 544 3141 544 3541 
Q 544 4100 942 4425 
Q 1341 4750 2034 4750 
Q 2731 4750 3128 4425 
Q 3525 4100 3525 3541 
Q 3525 3141 3298 2862 
Q 3072 2584 2669 2484 
Q 3125 2378 3379 2068 
Q 3634 1759 3634 1313 
Q 3634 634 3220 271 
Q 2806 -91 2034 -91 
Q 1263 -91 848 271 
Q 434 634 434 1313 
Q 434 1759 690 2068 
Q 947 2378 1403 2484 
z
M 1172 3481 
Q 1172 3119 1398 2916 
Q 1625 2713 2034 2713 
Q 2441 2713 2670 2916 
Q 2900 3119 2900 3481 
Q 2900 3844 2670 4047 
Q 2441 4250 2034 4250 
Q 1625 4250 1398 4047 
Q 1172 3844 1172 3481 
z
" transform="scale(0.015625)"/>
       </defs>
       <use xlink:href="#DejaVuSans-38"/>
       <use xlink:href="#DejaVuSans-30" x="63.623047"/>
      </g>
     </g>
    </g>
    <g id="xtick_6">
     <g id="line2d_6">
      <g>
       <use xlink:href="#m2111207ef9" x="434.403087" y="338.4" style="stroke: #000000; stroke-width: 0.8"/>
      </g>
     </g>
     <g id="text_6">
      <!-- 100 -->
      <g transform="translate(424.859337 352.998437) scale(0.1 -0.1)">
       <defs>
        <path id="DejaVuSans-31" d="M 794 531 
L 1825 531 
L 1825 4091 
L 703 3866 
L 703 4441 
L 1819 4666 
L 2450 4666 
L 2450 531 
L 3481 531 
L 3481 0 
L 794 0 
L 794 531 
z
" transform="scale(0.015625)"/>
       </defs>
       <use xlink:href="#DejaVuSans-31"/>
       <use xlink:href="#DejaVuSans-30" x="63.623047"/>
       <use xlink:href="#DejaVuSans-30" x="127.246094"/>
      </g>
     </g>
    </g>
    <g id="xtick_7">
     <g id="line2d_7">
      <g>
       <use xlink:href="#m2111207ef9" x="498.210978" y="338.4" style="stroke: #000000; stroke-width: 0.8"/>
      </g>
     </g>
     <g id="text_7">
      <!-- 120 -->
      <g transform="translate(488.667228 352.998437) scale(0.1 -0.1)">
       <use xlink:href="#DejaVuSans-31"/>
       <use xlink:href="#DejaVuSans-32" x="63.623047"/>
       <use xlink:href="#DejaVuSans-30" x="127.246094"/>
      </g>
     </g>
    </g>
    <g id="xtick_8">
     <g id="line2d_8">
      <g>
       <use xlink:href="#m2111207ef9" x="562.018868" y="338.4" style="stroke: #000000; stroke-width: 0.8"/>
      </g>
     </g>
     <g id="text_8">
      <!-- 140 -->
      <g transform="translate(552.475118 352.998437) scale(0.1 -0.1)">
       <use xlink:href="#DejaVuSans-31"/>
       <use xlink:href="#DejaVuSans-34" x="63.623047"/>
       <use xlink:href="#DejaVuSans-30" x="127.246094"/>
      </g>
     </g>
    </g>
    <g id="xtick_9">
     <g id="line2d_9">
      <g>
       <use xlink:href="#m2111207ef9" x="625.826758" y="338.4" style="stroke: #000000; stroke-width: 0.8"/>
      </g>
     </g>
     <g id="text_9">
      <!-- 160 -->
      <g transform="translate(616.283008 352.998437) scale(0.1 -0.1)">
       <use xlink:href="#DejaVuSans-31"/>
       <use xlink:href="#DejaVuSans-36" x="63.623047"/>
       <use xlink:href="#DejaVuSans-30" x="127.246094"/>
      </g>
     </g>
    </g>
   </g>
   <g id="matplotlib.axis_2">
    <g id="ytick_1">
     <g id="line2d_10">
      <defs>
       <path id="m53f7125786" d="M 0 0 
L -3.5 0 
" style="stroke: #000000; stroke-width: 0.8"/>
      </defs>
      <g>
       <use xlink:href="#m53f7125786" x="90" y="332.603331" style="stroke: #000000; stroke-width: 0.8"/>
      </g>
     </g>
     <g id="text_10">
      <!-- 60000 -->
      <g transform="translate(51.1875 336.402549) scale(0.1 -0.1)">
       <use xlink:href="#DejaVuSans-36"/>
       <use xlink:href="#DejaVuSans-30" x="63.623047"/>
       <use xlink:href="#DejaVuSans-30" x="127.246094"/>
       <use xlink:href="#DejaVuSans-30" x="190.869141"/>
       <use xlink:href="#DejaVuSans-30" x="254.492188"/>
      </g>
     </g>
    </g>
    <g id="ytick_2">
     <g id="line2d_11">
      <g>
       <use xlink:href="#m53f7125786" x="90" y="284.211432" style="stroke: #000000; stroke-width: 0.8"/>
      </g>
     </g>
     <g id="text_11">
      <!-- 80000 -->
      <g transform="translate(51.1875 288.010651) scale(0.1 -0.1)">
       <use xlink:href="#DejaVuSans-38"/>
       <use xlink:href="#DejaVuSans-30" x="63.623047"/>
       <use xlink:href="#DejaVuSans-30" x="127.246094"/>
       <use xlink:href="#DejaVuSans-30" x="190.869141"/>
       <use xlink:href="#DejaVuSans-30" x="254.492188"/>
      </g>
     </g>
    </g>
    <g id="ytick_3">
     <g id="line2d_12">
      <g>
       <use xlink:href="#m53f7125786" x="90" y="235.819533" style="stroke: #000000; stroke-width: 0.8"/>
      </g>
     </g>
     <g id="text_12">
      <!-- 100000 -->
      <g transform="translate(44.825 239.618752) scale(0.1 -0.1)">
       <use xlink:href="#DejaVuSans-31"/>
       <use xlink:href="#DejaVuSans-30" x="63.623047"/>
       <use xlink:href="#DejaVuSans-30" x="127.246094"/>
       <use xlink:href="#DejaVuSans-30" x="190.869141"/>
       <use xlink:href="#DejaVuSans-30" x="254.492188"/>
       <use xlink:href="#DejaVuSans-30" x="318.115234"/>
      </g>
     </g>
    </g>
    <g id="ytick_4">
     <g id="line2d_13">
      <g>
       <use xlink:href="#m53f7125786" x="90" y="187.427635" style="stroke: #000000; stroke-width: 0.8"/>
      </g>
     </g>
     <g id="text_13">
      <!-- 120000 -->
      <g transform="translate(44.825 191.226854) scale(0.1 -0.1)">
       <use xlink:href="#DejaVuSans-31"/>
       <use xlink:href="#DejaVuSans-32" x="63.623047"/>
       <use xlink:href="#DejaVuSans-30" x="127.246094"/>
       <use xlink:href="#DejaVuSans-30" x="190.869141"/>
       <use xlink:href="#DejaVuSans-30" x="254.492188"/>
       <use xlink:href="#DejaVuSans-30" x="318.115234"/>
      </g>
     </g>
    </g>
    <g id="ytick_5">
     <g id="line2d_14">
      <g>
       <use xlink:href="#m53f7125786" x="90" y="139.035736" style="stroke: #000000; stroke-width: 0.8"/>
      </g>
     </g>
     <g id="text_14">
      <!-- 140000 -->
      <g transform="translate(44.825 142.834955) scale(0.1 -0.1)">
       <use xlink:href="#DejaVuSans-31"/>
       <use xlink:href="#DejaVuSans-34" x="63.623047"/>
       <use xlink:href="#DejaVuSans-30" x="127.246094"/>
       <use xlink:href="#DejaVuSans-30" x="190.869141"/>
       <use xlink:href="#DejaVuSans-30" x="254.492188"/>
       <use xlink:href="#DejaVuSans-30" x="318.115234"/>
      </g>
     </g>
    </g>
    <g id="ytick_6">
     <g id="line2d_15">
      <g>
       <use xlink:href="#m53f7125786" x="90" y="90.643838" style="stroke: #000000; stroke-width: 0.8"/>
      </g>
     </g>
     <g id="text_15">
      <!-- 160000 -->
      <g transform="translate(44.825 94.443056) scale(0.1 -0.1)">
       <use xlink:href="#DejaVuSans-31"/>
       <use xlink:href="#DejaVuSans-36" x="63.623047"/>
       <use xlink:href="#DejaVuSans-30" x="127.246094"/>
       <use xlink:href="#DejaVuSans-30" x="190.869141"/>
       <use xlink:href="#DejaVuSans-30" x="254.492188"/>
       <use xlink:href="#DejaVuSans-30" x="318.115234"/>
      </g>
     </g>
    </g>
   </g>
   <g id="line2d_16">
    <path d="M 115.363636 233.641898 
L 121.744425 240.900683 
L 124.93482 242.35244 
L 128.125214 244.046156 
L 134.506003 249.369265 
L 137.696398 252.272779 
L 140.886792 254.934333 
L 144.077187 258.079807 
L 147.267581 260.983321 
L 150.457976 263.402916 
L 153.64837 266.30643 
L 163.219554 274.291093 
L 166.409949 276.710688 
L 169.600343 279.372242 
L 172.790738 281.791837 
L 175.981132 283.969473 
L 179.171527 212.833382 
L 182.361921 217.914531 
L 185.552316 222.753721 
L 188.74271 224.931356 
L 191.933105 226.867032 
L 195.123499 230.012506 
L 198.313894 232.67406 
L 201.504288 234.609736 
L 204.694683 237.27129 
L 207.885077 239.448926 
L 211.075472 242.35244 
L 214.265866 244.772035 
L 220.646655 250.095144 
L 223.83705 252.514738 
L 233.408233 260.499402 
L 239.789022 265.338592 
L 242.979417 232.67406 
L 246.169811 230.738384 
L 249.360206 228.560749 
L 252.5506 226.141154 
L 255.740995 223.479599 
L 258.931389 220.334126 
L 262.121784 217.672571 
L 265.312178 215.252976 
L 268.502573 213.317301 
L 271.692967 209.687908 
L 274.883362 205.816556 
L 278.073756 201.703245 
L 284.454545 192.024865 
L 287.64494 186.943713 
L 290.835334 181.620607 
L 294.025729 176.539458 
L 297.216123 170.73243 
L 300.406518 164.683442 
L 303.596913 158.150536 
L 306.787307 210.655746 
L 313.168096 203.396961 
L 316.358491 199.525609 
L 319.548885 195.896217 
L 322.73928 191.782903 
L 325.929674 189.363308 
L 329.120069 187.669594 
L 335.500858 178.959053 
L 338.691252 174.119863 
L 345.072041 163.957562 
L 354.643225 146.536476 
L 357.833619 140.487488 
L 361.024014 133.954592 
L 367.404803 120.162898 
L 370.595197 232.916019 
L 376.975986 228.560749 
L 380.166381 225.899194 
L 383.356775 222.753721 
L 386.54717 219.366288 
L 389.737564 216.704733 
L 392.927959 214.527098 
L 396.118353 212.591422 
L 399.308748 208.478111 
L 402.499142 204.606759 
L 405.689537 200.251488 
L 408.879931 195.654258 
L 412.070326 190.815068 
L 415.26072 185.491961 
L 418.451115 179.926891 
L 421.641509 174.603784 
L 424.831904 168.796751 
L 431.212693 155.972901 
L 434.403087 262.918997 
L 443.974271 254.208455 
L 447.164666 251.78886 
L 450.35506 248.885346 
L 453.545455 246.465751 
L 456.735849 244.530075 
L 459.926244 243.320278 
L 463.116638 241.384602 
L 466.307033 238.965007 
L 469.497427 236.787371 
L 472.687822 234.851695 
L 475.878216 232.67406 
L 479.068611 230.012506 
L 482.259005 226.867032 
L 485.4494 223.23764 
L 488.639794 218.882369 
L 491.830189 214.043179 
L 495.020583 208.96203 
L 498.210978 234.125817 
L 501.401372 237.51325 
L 504.591767 241.384602 
L 507.782161 243.078318 
L 510.972556 245.013994 
L 514.16295 247.433589 
L 517.353345 250.095144 
L 526.924528 258.805685 
L 530.114923 261.46724 
L 533.305317 264.370754 
L 549.25729 277.678523 
L 555.638079 282.517713 
L 558.828473 284.695353 
L 562.018868 261.46724 
L 568.399657 268.726024 
L 574.780446 272.597379 
L 581.161235 278.404404 
L 584.35163 281.549878 
L 587.542024 284.453392 
L 590.732419 287.114948 
L 593.922813 290.260419 
L 597.113208 292.680014 
L 600.303602 295.583531 
L 603.493997 298.003126 
L 606.684391 300.664675 
L 613.06518 305.503865 
L 616.255575 307.681505 
L 619.445969 310.1011 
L 622.636364 312.036774 
L 622.636364 312.036774 
" clip-path="url(#pe68548aefc)" style="fill: none; stroke-dasharray: 5.55,2.4; stroke-dashoffset: 0; stroke: #beb8dc; stroke-opacity: 0.5; stroke-width: 1.5"/>
   </g>
   <g id="line2d_17">
    <path d="M 115.363636 233.399938 
L 118.554031 238.710838 
L 121.744425 243.756796 
L 124.93482 248.55421 
L 128.125214 253.117826 
L 131.315609 257.460881 
L 134.506003 261.595199 
L 137.696398 265.531278 
L 140.886792 269.278327 
L 144.077187 272.844278 
L 147.267581 276.235744 
L 150.457976 279.457923 
L 153.64837 282.514392 
L 156.838765 285.406766 
L 160.02916 288.134097 
L 163.219554 290.691796 
L 166.409949 293.069627 
L 169.600343 295.247572 
L 172.790738 297.186124 
L 175.981132 298.797856 
L 179.171527 194.967491 
L 182.361921 201.113613 
L 185.552316 206.953127 
L 188.74271 212.505009 
L 191.933105 217.786326 
L 195.123499 222.812394 
L 198.313894 227.596899 
L 201.504288 232.151988 
L 204.694683 236.488319 
L 207.885077 240.615072 
L 211.075472 244.5399 
L 214.265866 248.268816 
L 217.456261 251.805963 
L 220.646655 255.153209 
L 223.83705 258.309455 
L 227.027444 261.269392 
L 230.217839 264.021175 
L 233.408233 266.541636 
L 236.598628 268.785055 
L 239.789022 270.650258 
L 242.979417 233.399938 
L 246.169811 231.997209 
L 249.360206 229.783934 
L 252.5506 227.121863 
L 255.740995 224.131049 
L 258.931389 220.865746 
L 262.121784 217.353444 
L 265.312178 213.6082 
L 268.502573 209.636312 
L 271.692967 205.439086 
L 274.883362 201.014302 
L 278.073756 196.357048 
L 281.264151 191.460188 
L 284.454545 186.314638 
L 287.64494 180.909507 
L 290.835334 175.232148 
L 294.025729 169.268148 
L 297.216123 163.001265 
L 300.406518 156.413327 
L 303.596913 149.484079 
L 306.787307 194.967491 
L 309.977702 193.34416 
L 313.168096 190.782813 
L 316.358491 187.702089 
L 319.548885 184.240923 
L 322.73928 180.4621 
L 325.929674 176.397434 
L 329.120069 172.063191 
L 332.310463 167.466661 
L 335.500858 162.609355 
L 338.691252 157.488705 
L 341.881647 152.099024 
L 345.072041 146.432056 
L 348.262436 140.477288 
L 351.45283 134.222115 
L 354.643225 127.651903 
L 357.833619 120.74997 
L 361.024014 113.497521 
L 364.214408 105.873526 
L 367.404803 97.854545 
L 370.595197 233.399938 
L 373.785592 231.997209 
L 376.975986 229.783934 
L 380.166381 227.121863 
L 383.356775 224.131049 
L 386.54717 220.865746 
L 389.737564 217.353444 
L 392.927959 213.6082 
L 396.118353 209.636312 
L 399.308748 205.439086 
L 402.499142 201.014302 
L 405.689537 196.357048 
L 408.879931 191.460188 
L 412.070326 186.314638 
L 415.26072 180.909507 
L 418.451115 175.232148 
L 421.641509 169.268148 
L 424.831904 163.001265 
L 428.022298 156.413327 
L 431.212693 149.484079 
L 434.403087 271.832386 
L 437.593482 270.650258 
L 440.783877 268.785055 
L 443.974271 266.541636 
L 447.164666 264.021175 
L 450.35506 261.269392 
L 453.545455 258.309455 
L 456.735849 255.153209 
L 459.926244 251.805963 
L 463.116638 248.268816 
L 466.307033 244.5399 
L 469.497427 240.615072 
L 472.687822 236.488319 
L 475.878216 232.151988 
L 479.068611 227.596899 
L 482.259005 222.812394 
L 485.4494 217.786326 
L 488.639794 212.505009 
L 491.830189 206.953127 
L 495.020583 201.113613 
L 498.210978 233.399938 
L 501.401372 238.710838 
L 504.591767 243.756796 
L 507.782161 248.55421 
L 510.972556 253.117826 
L 514.16295 257.460881 
L 517.353345 261.595199 
L 520.543739 265.531278 
L 523.734134 269.278327 
L 526.924528 272.844278 
L 530.114923 276.235744 
L 533.305317 279.457923 
L 536.495712 282.514392 
L 539.686106 285.406766 
L 542.876501 288.134097 
L 546.066895 290.691796 
L 549.25729 293.069627 
L 552.447684 295.247572 
L 555.638079 297.186124 
L 558.828473 298.797856 
L 562.018868 271.832386 
L 565.209262 276.308063 
L 568.399657 280.560465 
L 571.590051 284.60341 
L 574.780446 288.449327 
L 577.97084 292.109367 
L 581.161235 295.5935 
L 587.542024 302.068335 
L 593.922813 307.931589 
L 600.303602 313.22282 
L 606.684391 317.958739 
L 609.874786 320.1142 
L 613.06518 322.11808 
L 616.255575 323.953509 
L 619.445969 325.587192 
L 622.636364 326.945455 
L 622.636364 326.945455 
" clip-path="url(#pe68548aefc)" style="fill: none; stroke: #8ecfc9; stroke-opacity: 0.5; stroke-width: 1.5; stroke-linecap: square"/>
   </g>
   <g id="line2d_18">
    <path d="M 115.363636 233.641898 
L 118.554031 236.545412 
L 121.744425 239.206966 
L 124.93482 240.900683 
L 128.125214 242.35244 
L 137.696398 249.611225 
L 140.886792 252.272779 
L 144.077187 254.692374 
L 147.267581 257.353928 
L 169.600343 274.291093 
L 175.981132 278.646366 
L 179.171527 215.011017 
L 182.361921 219.366288 
L 185.552316 223.479599 
L 188.74271 224.931356 
L 191.933105 226.625073 
L 195.123499 229.528587 
L 198.313894 231.948182 
L 201.504288 233.883857 
L 214.265866 242.594399 
L 217.456261 245.013994 
L 220.646655 247.19163 
L 227.027444 252.030819 
L 230.217839 254.208455 
L 233.408233 256.62805 
L 239.789022 260.983321 
L 242.979417 233.157979 
L 246.169811 230.980344 
L 249.360206 229.044668 
L 255.740995 224.689397 
L 262.121784 219.366288 
L 265.312178 217.188652 
L 268.502573 215.978855 
L 271.692967 212.833382 
L 274.883362 209.203989 
L 278.073756 205.816556 
L 284.454545 197.589934 
L 287.64494 193.234663 
L 290.835334 188.395473 
L 294.025729 183.798242 
L 300.406518 173.635941 
L 303.596913 168.070875 
L 306.787307 213.317301 
L 309.977702 209.687908 
L 316.358491 203.396961 
L 319.548885 199.767569 
L 322.73928 196.380136 
L 329.120069 192.024865 
L 332.310463 189.121354 
L 338.691252 181.378647 
L 341.881647 177.265334 
L 345.072041 172.668106 
L 348.262436 167.828916 
L 351.45283 162.747764 
L 354.643225 157.424658 
L 357.833619 152.343508 
L 361.024014 146.536476 
L 364.214408 140.97141 
L 367.404803 134.680468 
L 370.595197 232.916019 
L 373.785592 230.980344 
L 380.166381 226.625073 
L 383.356775 223.963518 
L 386.54717 221.060004 
L 389.737564 218.39845 
L 392.927959 215.978855 
L 396.118353 215.011017 
L 399.308748 211.381625 
L 402.499142 207.994192 
L 408.879931 200.251488 
L 412.070326 196.138177 
L 415.26072 191.540949 
L 424.831904 177.023379 
L 428.022298 171.700268 
L 431.212693 166.135202 
L 434.403087 259.289604 
L 437.593482 256.38609 
L 440.783877 253.724536 
L 450.35506 246.465751 
L 453.545455 244.288116 
L 456.735849 242.836359 
L 459.926244 241.142642 
L 463.116638 239.932845 
L 466.307033 238.239128 
L 472.687822 234.367776 
L 475.878216 232.67406 
L 479.068611 230.254465 
L 482.259005 227.592911 
L 485.4494 224.205478 
L 488.639794 220.576085 
L 491.830189 216.462774 
L 495.020583 212.107503 
L 498.210978 233.883857 
L 501.401372 237.029331 
L 504.591767 239.932845 
L 507.782161 241.626561 
L 510.972556 242.836359 
L 517.353345 248.159468 
L 520.543739 250.337103 
L 523.734134 252.756698 
L 526.924528 255.418252 
L 542.876501 267.516227 
L 546.066895 270.177781 
L 555.638079 276.710688 
L 558.828473 279.130283 
L 562.018868 258.079807 
L 568.399657 264.370754 
L 574.780446 267.274268 
L 581.161235 273.081295 
L 590.732419 281.065961 
L 597.113208 285.905151 
L 600.303602 288.5667 
L 603.493997 290.744341 
L 609.874786 295.583531 
L 616.255575 299.938799 
L 619.445969 301.874473 
L 622.636364 304.052113 
L 622.636364 304.052113 
" clip-path="url(#pe68548aefc)" style="fill: none; stroke-dasharray: 5.55,2.4; stroke-dashoffset: 0; stroke: #8ecfc9; stroke-opacity: 0.5; stroke-width: 1.5"/>
   </g>
   <g id="line2d_19">
    <path d="M 115.363636 233.399938 
L 118.554031 237.982816 
L 121.744425 242.36449 
L 128.125214 250.56595 
L 134.506003 258.078359 
L 140.886792 264.961795 
L 147.267581 271.26311 
L 153.64837 277.015249 
L 160.02916 282.23405 
L 163.219554 284.641746 
L 166.409949 286.909225 
L 169.600343 289.026968 
L 172.790738 290.977876 
L 175.981132 292.730394 
L 179.171527 198.667824 
L 182.361921 203.902038 
L 185.552316 208.906453 
L 188.74271 213.69326 
L 191.933105 218.273536 
L 198.313894 226.853638 
L 204.694683 234.715376 
L 211.075472 241.912258 
L 217.456261 248.481914 
L 223.83705 254.442431 
L 227.027444 257.192318 
L 230.217839 259.78206 
L 233.408233 262.200785 
L 236.598628 264.428964 
L 239.789022 266.430556 
L 242.979417 233.399938 
L 246.169811 231.416556 
L 249.360206 229.083361 
L 252.5506 226.486041 
L 255.740995 223.666607 
L 258.931389 220.647823 
L 262.121784 217.442363 
L 265.312178 214.056933 
L 268.502573 210.49437 
L 271.692967 206.754802 
L 274.883362 202.836323 
L 278.073756 198.735402 
L 281.264151 194.447137 
L 284.454545 189.965404 
L 287.64494 185.282949 
L 290.835334 180.391421 
L 294.025729 175.281385 
L 297.216123 169.942297 
L 300.406518 164.362462 
L 303.596913 158.528968 
L 306.787307 198.667824 
L 309.977702 196.402555 
L 313.168096 193.737757 
L 316.358491 190.771296 
L 319.548885 187.551153 
L 322.73928 184.103328 
L 325.929674 180.442296 
L 329.120069 176.575715 
L 332.310463 172.506827 
L 335.500858 168.235777 
L 338.691252 163.760388 
L 341.881647 159.076628 
L 345.072041 154.178897 
L 348.262436 149.060204 
L 351.45283 143.712259 
L 354.643225 138.125529 
L 357.833619 132.289234 
L 361.024014 126.191334 
L 364.214408 119.818471 
L 367.404803 113.155898 
L 370.595197 233.399938 
L 373.785592 231.416556 
L 376.975986 229.083361 
L 380.166381 226.486041 
L 383.356775 223.666607 
L 386.54717 220.647823 
L 389.737564 217.442363 
L 392.927959 214.056933 
L 396.118353 210.49437 
L 399.308748 206.754802 
L 402.499142 202.836323 
L 405.689537 198.735402 
L 408.879931 194.447137 
L 412.070326 189.965404 
L 415.26072 185.282949 
L 418.451115 180.391421 
L 421.641509 175.281385 
L 424.831904 169.942297 
L 428.022298 164.362462 
L 431.212693 158.528968 
L 434.403087 268.132053 
L 437.593482 266.430556 
L 440.783877 264.428964 
L 443.974271 262.200785 
L 447.164666 259.78206 
L 450.35506 257.192318 
L 453.545455 254.442431 
L 456.735849 251.538151 
L 463.116638 245.273828 
L 469.497427 238.394176 
L 475.878216 230.870605 
L 479.068611 226.853638 
L 482.259005 222.657314 
L 485.4494 218.273536 
L 488.639794 213.69326 
L 491.830189 208.906453 
L 495.020583 203.902038 
L 498.210978 233.399938 
L 501.401372 237.982816 
L 504.591767 242.36449 
L 510.972556 250.56595 
L 517.353345 258.078359 
L 523.734134 264.961795 
L 530.114923 271.26311 
L 536.495712 277.015249 
L 542.876501 282.23405 
L 546.066895 284.641746 
L 549.25729 286.909225 
L 552.447684 289.026968 
L 555.638079 290.977876 
L 558.828473 292.730394 
L 562.018868 268.132053 
L 568.399657 275.822527 
L 574.780446 282.858363 
L 581.161235 289.303079 
L 587.542024 295.208215 
L 593.922813 300.613962 
L 600.303602 305.548584 
L 606.684391 310.025669 
L 613.06518 314.03639 
L 616.255575 315.853151 
L 619.445969 317.526788 
L 622.636364 319.030231 
L 622.636364 319.030231 
" clip-path="url(#pe68548aefc)" style="fill: none; stroke: #999999; stroke-width: 1.5; stroke-linecap: square"/>
   </g>
   <g id="line2d_20">
    <path d="M 115.363636 233.399938 
L 118.554031 237.029331 
L 121.744425 240.174804 
L 128.125214 243.078318 
L 134.506003 248.401427 
L 137.696398 250.821022 
L 144.077187 256.144131 
L 147.267581 259.047645 
L 150.457976 261.709199 
L 153.64837 264.128794 
L 156.838765 266.790349 
L 160.02916 269.209943 
L 163.219554 271.871498 
L 169.600343 276.710688 
L 172.790738 278.888321 
L 175.981132 281.307916 
L 179.171527 214.043179 
L 182.361921 218.882369 
L 185.552316 223.23764 
L 188.74271 224.931356 
L 191.933105 226.867032 
L 195.123499 229.770546 
L 198.313894 232.432101 
L 201.504288 234.367776 
L 207.885077 238.723047 
L 211.075472 241.384602 
L 217.456261 246.223792 
L 220.646655 248.885346 
L 223.83705 251.062981 
L 227.027444 253.482576 
L 230.217839 256.144131 
L 233.408233 258.321766 
L 236.598628 260.983321 
L 239.789022 263.402916 
L 242.979417 233.399938 
L 246.169811 230.738384 
L 249.360206 228.802708 
L 252.5506 226.625073 
L 255.740995 224.205478 
L 258.931389 221.060004 
L 262.121784 218.39845 
L 265.312178 216.220814 
L 268.502573 214.769058 
L 271.692967 211.381625 
L 278.073756 203.638921 
L 281.264151 199.525609 
L 284.454545 194.928379 
L 287.64494 190.089189 
L 290.835334 185.00804 
L 294.025729 180.16885 
L 300.406518 169.522632 
L 303.596913 163.231685 
L 306.787307 211.865544 
L 313.168096 205.090678 
L 322.73928 194.202498 
L 325.929674 191.540949 
L 329.120069 190.089189 
L 332.310463 185.975878 
L 335.500858 182.104524 
L 338.691252 177.749255 
L 341.881647 173.152025 
L 345.072041 168.312835 
L 348.262436 163.231685 
L 351.45283 157.908574 
L 357.833619 146.778442 
L 364.214408 134.438501 
L 367.404803 127.179716 
L 370.595197 232.916019 
L 373.785592 230.980344 
L 376.975986 228.560749 
L 380.166381 226.383113 
L 383.356775 223.479599 
L 386.54717 220.334126 
L 389.737564 217.672571 
L 392.927959 215.252976 
L 396.118353 213.55926 
L 399.308748 210.171827 
L 402.499142 206.300475 
L 405.689537 202.187164 
L 408.879931 198.315812 
L 415.26072 188.637432 
L 418.451115 183.314321 
L 421.641509 178.475131 
L 424.831904 173.152025 
L 428.022298 167.344999 
L 431.212693 161.05405 
L 434.403087 260.983321 
L 437.593482 257.837847 
L 443.974271 252.514738 
L 447.164666 250.095144 
L 450.35506 247.433589 
L 453.545455 245.013994 
L 456.735849 243.562237 
L 459.926244 241.868521 
L 463.116638 240.658723 
L 466.307033 238.239128 
L 469.497427 236.545412 
L 472.687822 234.367776 
L 475.878216 232.432101 
L 479.068611 230.012506 
L 482.259005 227.108992 
L 485.4494 223.721559 
L 488.639794 219.608247 
L 491.830189 215.252976 
L 495.020583 210.171827 
L 498.210978 233.883857 
L 504.591767 240.658723 
L 510.972556 243.562237 
L 523.734134 254.208455 
L 526.924528 256.62805 
L 530.114923 259.531564 
L 533.305317 261.951159 
L 536.495712 264.612713 
L 539.686106 267.516227 
L 549.25729 274.775012 
L 552.447684 276.952647 
L 558.828473 281.791837 
L 562.018868 259.289604 
L 565.209262 262.918997 
L 568.399657 266.30643 
L 571.590051 267.758186 
L 574.780446 269.451903 
L 577.97084 272.597379 
L 581.161235 275.258928 
L 587.542024 281.065961 
L 590.732419 283.485556 
L 593.922813 286.389067 
L 597.113208 289.050622 
L 600.303602 291.470217 
L 603.493997 294.131771 
L 613.06518 301.390556 
L 622.636364 307.92346 
L 622.636364 307.92346 
" clip-path="url(#pe68548aefc)" style="fill: none; stroke-dasharray: 5.55,2.4; stroke-dashoffset: 0; stroke: #fa7f6f; stroke-opacity: 0.5; stroke-width: 1.5"/>
   </g>
   <g id="line2d_21">
    <path d="M 115.363636 233.641898 
L 118.554031 237.51325 
L 121.744425 240.900683 
L 124.93482 243.078318 
L 128.125214 244.530075 
L 131.315609 247.433589 
L 134.506003 250.095144 
L 156.838765 270.419741 
L 166.409949 278.404404 
L 169.600343 280.823999 
L 172.790738 283.485556 
L 175.981132 285.905151 
L 179.171527 211.381625 
L 182.361921 216.946693 
L 185.552316 221.785883 
L 188.74271 224.205478 
L 191.933105 225.899194 
L 195.123499 229.528587 
L 198.313894 232.190141 
L 207.885077 239.448926 
L 211.075472 242.35244 
L 214.265866 244.772035 
L 217.456261 247.433589 
L 220.646655 250.579062 
L 223.83705 252.998657 
L 239.789022 266.30643 
L 242.979417 233.157979 
L 249.360206 228.802708 
L 252.5506 226.383113 
L 255.740995 223.721559 
L 258.931389 220.818045 
L 262.121784 217.430612 
L 265.312178 215.252976 
L 268.502573 213.317301 
L 271.692967 209.203989 
L 274.883362 205.332637 
L 278.073756 200.977366 
L 284.454545 191.298987 
L 287.64494 185.975878 
L 290.835334 180.894726 
L 297.216123 168.796751 
L 303.596913 155.730946 
L 306.787307 209.687908 
L 313.168096 202.429123 
L 322.73928 190.815068 
L 325.929674 187.669594 
L 329.120069 186.217837 
L 332.310463 181.620607 
L 335.500858 176.781417 
L 338.691252 172.184189 
L 341.881647 166.861078 
L 345.072041 161.296012 
L 351.45283 149.681959 
L 354.643225 143.632971 
L 357.833619 137.100063 
L 367.404803 115.80763 
L 370.595197 232.916019 
L 373.785592 230.738384 
L 376.975986 228.318789 
L 383.356775 222.511761 
L 386.54717 219.124328 
L 389.737564 216.220814 
L 392.927959 214.285139 
L 396.118353 211.623584 
L 399.308748 207.268313 
L 402.499142 203.396961 
L 405.689537 199.04169 
L 412.070326 188.879392 
L 418.451115 178.233176 
L 431.212693 152.82743 
L 434.403087 263.644875 
L 437.593482 260.983321 
L 440.783877 258.079807 
L 443.974271 254.934333 
L 450.35506 249.611225 
L 453.545455 246.707711 
L 456.735849 245.013994 
L 459.926244 243.804197 
L 463.116638 241.384602 
L 475.878216 232.67406 
L 479.068611 230.012506 
L 482.259005 226.867032 
L 485.4494 222.753721 
L 488.639794 218.15649 
L 491.830189 213.075341 
L 495.020583 207.510273 
L 498.210978 233.883857 
L 504.591767 241.626561 
L 507.782161 243.562237 
L 510.972556 245.255954 
L 514.16295 248.401427 
L 517.353345 250.821022 
L 523.734134 256.62805 
L 526.924528 259.773523 
L 530.114923 262.677037 
L 533.305317 265.338592 
L 536.495712 268.484065 
L 549.25729 279.130283 
L 552.447684 281.549878 
L 555.638079 284.211432 
L 558.828473 286.631027 
L 562.018868 262.677037 
L 565.209262 266.548389 
L 568.399657 270.177781 
L 571.590051 271.871498 
L 574.780446 274.049131 
L 577.97084 277.194607 
L 581.161235 280.098118 
L 584.35163 283.243594 
L 587.542024 286.147106 
L 590.732419 289.292581 
L 593.922813 292.196093 
L 597.113208 294.85765 
L 600.303602 297.761164 
L 603.493997 300.42272 
L 606.684391 302.842315 
L 609.874786 305.503865 
L 619.445969 312.76265 
L 622.636364 314.94029 
L 622.636364 314.94029 
" clip-path="url(#pe68548aefc)" style="fill: none; stroke-dasharray: 5.55,2.4; stroke-dashoffset: 0; stroke: #999999; stroke-width: 1.5"/>
   </g>
   <g id="patch_3">
    <path d="M 90 338.4 
L 90 86.4 
" style="fill: none; stroke: #000000; stroke-width: 0.8; stroke-linejoin: miter; stroke-linecap: square"/>
   </g>
   <g id="patch_4">
    <path d="M 648 338.4 
L 648 86.4 
" style="fill: none; stroke: #000000; stroke-width: 0.8; stroke-linejoin: miter; stroke-linecap: square"/>
   </g>
   <g id="patch_5">
    <path d="M 90 338.4 
L 648 338.4 
" style="fill: none; stroke: #000000; stroke-width: 0.8; stroke-linejoin: miter; stroke-linecap: square"/>
   </g>
   <g id="patch_6">
    <path d="M 90 86.4 
L 648 86.4 
" style="fill: none; stroke: #000000; stroke-width: 0.8; stroke-linejoin: miter; stroke-linecap: square"/>
   </g>
   <g id="text_16">
    <!-- Left Chamber Pressure -->
    <g transform="translate(300.8025 80.4) scale(0.12 -0.12)">
     <defs>
      <path id="DejaVuSans-4c" d="M 628 4666 
L 1259 4666 
L 1259 531 
L 3531 531 
L 3531 0 
L 628 0 
L 628 4666 
z
" transform="scale(0.015625)"/>
      <path id="DejaVuSans-65" d="M 3597 1894 
L 3597 1613 
L 953 1613 
Q 991 1019 1311 708 
Q 1631 397 2203 397 
Q 2534 397 2845 478 
Q 3156 559 3463 722 
L 3463 178 
Q 3153 47 2828 -22 
Q 2503 -91 2169 -91 
Q 1331 -91 842 396 
Q 353 884 353 1716 
Q 353 2575 817 3079 
Q 1281 3584 2069 3584 
Q 2775 3584 3186 3129 
Q 3597 2675 3597 1894 
z
M 3022 2063 
Q 3016 2534 2758 2815 
Q 2500 3097 2075 3097 
Q 1594 3097 1305 2825 
Q 1016 2553 972 2059 
L 3022 2063 
z
" transform="scale(0.015625)"/>
      <path id="DejaVuSans-66" d="M 2375 4863 
L 2375 4384 
L 1825 4384 
Q 1516 4384 1395 4259 
Q 1275 4134 1275 3809 
L 1275 3500 
L 2222 3500 
L 2222 3053 
L 1275 3053 
L 1275 0 
L 697 0 
L 697 3053 
L 147 3053 
L 147 3500 
L 697 3500 
L 697 3744 
Q 697 4328 969 4595 
Q 1241 4863 1831 4863 
L 2375 4863 
z
" transform="scale(0.015625)"/>
      <path id="DejaVuSans-74" d="M 1172 4494 
L 1172 3500 
L 2356 3500 
L 2356 3053 
L 1172 3053 
L 1172 1153 
Q 1172 725 1289 603 
Q 1406 481 1766 481 
L 2356 481 
L 2356 0 
L 1766 0 
Q 1100 0 847 248 
Q 594 497 594 1153 
L 594 3053 
L 172 3053 
L 172 3500 
L 594 3500 
L 594 4494 
L 1172 4494 
z
" transform="scale(0.015625)"/>
      <path id="DejaVuSans-20" transform="scale(0.015625)"/>
      <path id="DejaVuSans-43" d="M 4122 4306 
L 4122 3641 
Q 3803 3938 3442 4084 
Q 3081 4231 2675 4231 
Q 1875 4231 1450 3742 
Q 1025 3253 1025 2328 
Q 1025 1406 1450 917 
Q 1875 428 2675 428 
Q 3081 428 3442 575 
Q 3803 722 4122 1019 
L 4122 359 
Q 3791 134 3420 21 
Q 3050 -91 2638 -91 
Q 1578 -91 968 557 
Q 359 1206 359 2328 
Q 359 3453 968 4101 
Q 1578 4750 2638 4750 
Q 3056 4750 3426 4639 
Q 3797 4528 4122 4306 
z
" transform="scale(0.015625)"/>
      <path id="DejaVuSans-68" d="M 3513 2113 
L 3513 0 
L 2938 0 
L 2938 2094 
Q 2938 2591 2744 2837 
Q 2550 3084 2163 3084 
Q 1697 3084 1428 2787 
Q 1159 2491 1159 1978 
L 1159 0 
L 581 0 
L 581 4863 
L 1159 4863 
L 1159 2956 
Q 1366 3272 1645 3428 
Q 1925 3584 2291 3584 
Q 2894 3584 3203 3211 
Q 3513 2838 3513 2113 
z
" transform="scale(0.015625)"/>
      <path id="DejaVuSans-61" d="M 2194 1759 
Q 1497 1759 1228 1600 
Q 959 1441 959 1056 
Q 959 750 1161 570 
Q 1363 391 1709 391 
Q 2188 391 2477 730 
Q 2766 1069 2766 1631 
L 2766 1759 
L 2194 1759 
z
M 3341 1997 
L 3341 0 
L 2766 0 
L 2766 531 
Q 2569 213 2275 61 
Q 1981 -91 1556 -91 
Q 1019 -91 701 211 
Q 384 513 384 1019 
Q 384 1609 779 1909 
Q 1175 2209 1959 2209 
L 2766 2209 
L 2766 2266 
Q 2766 2663 2505 2880 
Q 2244 3097 1772 3097 
Q 1472 3097 1187 3025 
Q 903 2953 641 2809 
L 641 3341 
Q 956 3463 1253 3523 
Q 1550 3584 1831 3584 
Q 2591 3584 2966 3190 
Q 3341 2797 3341 1997 
z
" transform="scale(0.015625)"/>
      <path id="DejaVuSans-6d" d="M 3328 2828 
Q 3544 3216 3844 3400 
Q 4144 3584 4550 3584 
Q 5097 3584 5394 3201 
Q 5691 2819 5691 2113 
L 5691 0 
L 5113 0 
L 5113 2094 
Q 5113 2597 4934 2840 
Q 4756 3084 4391 3084 
Q 3944 3084 3684 2787 
Q 3425 2491 3425 1978 
L 3425 0 
L 2847 0 
L 2847 2094 
Q 2847 2600 2669 2842 
Q 2491 3084 2119 3084 
Q 1678 3084 1418 2786 
Q 1159 2488 1159 1978 
L 1159 0 
L 581 0 
L 581 3500 
L 1159 3500 
L 1159 2956 
Q 1356 3278 1631 3431 
Q 1906 3584 2284 3584 
Q 2666 3584 2933 3390 
Q 3200 3197 3328 2828 
z
" transform="scale(0.015625)"/>
      <path id="DejaVuSans-62" d="M 3116 1747 
Q 3116 2381 2855 2742 
Q 2594 3103 2138 3103 
Q 1681 3103 1420 2742 
Q 1159 2381 1159 1747 
Q 1159 1113 1420 752 
Q 1681 391 2138 391 
Q 2594 391 2855 752 
Q 3116 1113 3116 1747 
z
M 1159 2969 
Q 1341 3281 1617 3432 
Q 1894 3584 2278 3584 
Q 2916 3584 3314 3078 
Q 3713 2572 3713 1747 
Q 3713 922 3314 415 
Q 2916 -91 2278 -91 
Q 1894 -91 1617 61 
Q 1341 213 1159 525 
L 1159 0 
L 581 0 
L 581 4863 
L 1159 4863 
L 1159 2969 
z
" transform="scale(0.015625)"/>
      <path id="DejaVuSans-72" d="M 2631 2963 
Q 2534 3019 2420 3045 
Q 2306 3072 2169 3072 
Q 1681 3072 1420 2755 
Q 1159 2438 1159 1844 
L 1159 0 
L 581 0 
L 581 3500 
L 1159 3500 
L 1159 2956 
Q 1341 3275 1631 3429 
Q 1922 3584 2338 3584 
Q 2397 3584 2469 3576 
Q 2541 3569 2628 3553 
L 2631 2963 
z
" transform="scale(0.015625)"/>
      <path id="DejaVuSans-50" d="M 1259 4147 
L 1259 2394 
L 2053 2394 
Q 2494 2394 2734 2622 
Q 2975 2850 2975 3272 
Q 2975 3691 2734 3919 
Q 2494 4147 2053 4147 
L 1259 4147 
z
M 628 4666 
L 2053 4666 
Q 2838 4666 3239 4311 
Q 3641 3956 3641 3272 
Q 3641 2581 3239 2228 
Q 2838 1875 2053 1875 
L 1259 1875 
L 1259 0 
L 628 0 
L 628 4666 
z
" transform="scale(0.015625)"/>
      <path id="DejaVuSans-73" d="M 2834 3397 
L 2834 2853 
Q 2591 2978 2328 3040 
Q 2066 3103 1784 3103 
Q 1356 3103 1142 2972 
Q 928 2841 928 2578 
Q 928 2378 1081 2264 
Q 1234 2150 1697 2047 
L 1894 2003 
Q 2506 1872 2764 1633 
Q 3022 1394 3022 966 
Q 3022 478 2636 193 
Q 2250 -91 1575 -91 
Q 1294 -91 989 -36 
Q 684 19 347 128 
L 347 722 
Q 666 556 975 473 
Q 1284 391 1588 391 
Q 1994 391 2212 530 
Q 2431 669 2431 922 
Q 2431 1156 2273 1281 
Q 2116 1406 1581 1522 
L 1381 1569 
Q 847 1681 609 1914 
Q 372 2147 372 2553 
Q 372 3047 722 3315 
Q 1072 3584 1716 3584 
Q 2034 3584 2315 3537 
Q 2597 3491 2834 3397 
z
" transform="scale(0.015625)"/>
      <path id="DejaVuSans-75" d="M 544 1381 
L 544 3500 
L 1119 3500 
L 1119 1403 
Q 1119 906 1312 657 
Q 1506 409 1894 409 
Q 2359 409 2629 706 
Q 2900 1003 2900 1516 
L 2900 3500 
L 3475 3500 
L 3475 0 
L 2900 0 
L 2900 538 
Q 2691 219 2414 64 
Q 2138 -91 1772 -91 
Q 1169 -91 856 284 
Q 544 659 544 1381 
z
M 1991 3584 
L 1991 3584 
z
" transform="scale(0.015625)"/>
     </defs>
     <use xlink:href="#DejaVuSans-4c"/>
     <use xlink:href="#DejaVuSans-65" x="53.962891"/>
     <use xlink:href="#DejaVuSans-66" x="115.486328"/>
     <use xlink:href="#DejaVuSans-74" x="148.941406"/>
     <use xlink:href="#DejaVuSans-20" x="188.150391"/>
     <use xlink:href="#DejaVuSans-43" x="219.9375"/>
     <use xlink:href="#DejaVuSans-68" x="289.761719"/>
     <use xlink:href="#DejaVuSans-61" x="353.140625"/>
     <use xlink:href="#DejaVuSans-6d" x="414.419922"/>
     <use xlink:href="#DejaVuSans-62" x="511.832031"/>
     <use xlink:href="#DejaVuSans-65" x="575.308594"/>
     <use xlink:href="#DejaVuSans-72" x="636.832031"/>
     <use xlink:href="#DejaVuSans-20" x="677.945312"/>
     <use xlink:href="#DejaVuSans-50" x="709.732422"/>
     <use xlink:href="#DejaVuSans-72" x="768.285156"/>
     <use xlink:href="#DejaVuSans-65" x="807.148438"/>
     <use xlink:href="#DejaVuSans-73" x="868.671875"/>
     <use xlink:href="#DejaVuSans-73" x="920.771484"/>
     <use xlink:href="#DejaVuSans-75" x="972.871094"/>
     <use xlink:href="#DejaVuSans-72" x="1036.25"/>
     <use xlink:href="#DejaVuSans-65" x="1075.113281"/>
    </g>
   </g>
   <g id="legend_1">
    <g id="patch_7">
     <path d="M 442.91875 183.025 
L 641 183.025 
Q 643 183.025 643 181.025 
L 643 93.4 
Q 643 91.4 641 91.4 
L 442.91875 91.4 
Q 440.91875 91.4 440.91875 93.4 
L 440.91875 181.025 
Q 440.91875 183.025 442.91875 183.025 
z
" style="fill: #ffffff; opacity: 0.8; stroke: #cccccc; stroke-linejoin: miter"/>
    </g>
    <g id="line2d_22">
     <path d="M 444.91875 99.498438 
L 454.91875 99.498438 
L 464.91875 99.498438 
" style="fill: none; stroke-dasharray: 5.55,2.4; stroke-dashoffset: 0; stroke: #beb8dc; stroke-opacity: 0.5; stroke-width: 1.5"/>
    </g>
    <g id="text_17">
     <!-- Real, range 0.010 -->
     <g transform="translate(472.91875 102.998438) scale(0.1 -0.1)">
      <defs>
       <path id="DejaVuSans-52" d="M 2841 2188 
Q 3044 2119 3236 1894 
Q 3428 1669 3622 1275 
L 4263 0 
L 3584 0 
L 2988 1197 
Q 2756 1666 2539 1819 
Q 2322 1972 1947 1972 
L 1259 1972 
L 1259 0 
L 628 0 
L 628 4666 
L 2053 4666 
Q 2853 4666 3247 4331 
Q 3641 3997 3641 3322 
Q 3641 2881 3436 2590 
Q 3231 2300 2841 2188 
z
M 1259 4147 
L 1259 2491 
L 2053 2491 
Q 2509 2491 2742 2702 
Q 2975 2913 2975 3322 
Q 2975 3731 2742 3939 
Q 2509 4147 2053 4147 
L 1259 4147 
z
" transform="scale(0.015625)"/>
       <path id="DejaVuSans-6c" d="M 603 4863 
L 1178 4863 
L 1178 0 
L 603 0 
L 603 4863 
z
" transform="scale(0.015625)"/>
       <path id="DejaVuSans-2c" d="M 750 794 
L 1409 794 
L 1409 256 
L 897 -744 
L 494 -744 
L 750 256 
L 750 794 
z
" transform="scale(0.015625)"/>
       <path id="DejaVuSans-6e" d="M 3513 2113 
L 3513 0 
L 2938 0 
L 2938 2094 
Q 2938 2591 2744 2837 
Q 2550 3084 2163 3084 
Q 1697 3084 1428 2787 
Q 1159 2491 1159 1978 
L 1159 0 
L 581 0 
L 581 3500 
L 1159 3500 
L 1159 2956 
Q 1366 3272 1645 3428 
Q 1925 3584 2291 3584 
Q 2894 3584 3203 3211 
Q 3513 2838 3513 2113 
z
" transform="scale(0.015625)"/>
       <path id="DejaVuSans-67" d="M 2906 1791 
Q 2906 2416 2648 2759 
Q 2391 3103 1925 3103 
Q 1463 3103 1205 2759 
Q 947 2416 947 1791 
Q 947 1169 1205 825 
Q 1463 481 1925 481 
Q 2391 481 2648 825 
Q 2906 1169 2906 1791 
z
M 3481 434 
Q 3481 -459 3084 -895 
Q 2688 -1331 1869 -1331 
Q 1566 -1331 1297 -1286 
Q 1028 -1241 775 -1147 
L 775 -588 
Q 1028 -725 1275 -790 
Q 1522 -856 1778 -856 
Q 2344 -856 2625 -561 
Q 2906 -266 2906 331 
L 2906 616 
Q 2728 306 2450 153 
Q 2172 0 1784 0 
Q 1141 0 747 490 
Q 353 981 353 1791 
Q 353 2603 747 3093 
Q 1141 3584 1784 3584 
Q 2172 3584 2450 3431 
Q 2728 3278 2906 2969 
L 2906 3500 
L 3481 3500 
L 3481 434 
z
" transform="scale(0.015625)"/>
       <path id="DejaVuSans-2e" d="M 684 794 
L 1344 794 
L 1344 0 
L 684 0 
L 684 794 
z
" transform="scale(0.015625)"/>
      </defs>
      <use xlink:href="#DejaVuSans-52"/>
      <use xlink:href="#DejaVuSans-65" x="64.982422"/>
      <use xlink:href="#DejaVuSans-61" x="126.505859"/>
      <use xlink:href="#DejaVuSans-6c" x="187.785156"/>
      <use xlink:href="#DejaVuSans-2c" x="215.568359"/>
      <use xlink:href="#DejaVuSans-20" x="247.355469"/>
      <use xlink:href="#DejaVuSans-72" x="279.142578"/>
      <use xlink:href="#DejaVuSans-61" x="320.255859"/>
      <use xlink:href="#DejaVuSans-6e" x="381.535156"/>
      <use xlink:href="#DejaVuSans-67" x="444.914062"/>
      <use xlink:href="#DejaVuSans-65" x="508.390625"/>
      <use xlink:href="#DejaVuSans-20" x="569.914062"/>
      <use xlink:href="#DejaVuSans-30" x="601.701172"/>
      <use xlink:href="#DejaVuSans-2e" x="665.324219"/>
      <use xlink:href="#DejaVuSans-30" x="697.111328"/>
      <use xlink:href="#DejaVuSans-31" x="760.734375"/>
      <use xlink:href="#DejaVuSans-30" x="824.357422"/>
     </g>
    </g>
    <g id="line2d_23">
     <path d="M 444.91875 114.176563 
L 454.91875 114.176563 
L 464.91875 114.176563 
" style="fill: none; stroke: #8ecfc9; stroke-opacity: 0.5; stroke-width: 1.5; stroke-linecap: square"/>
    </g>
    <g id="text_18">
     <!-- Sim, range 0.009 -->
     <g transform="translate(472.91875 117.676563) scale(0.1 -0.1)">
      <defs>
       <path id="DejaVuSans-53" d="M 3425 4513 
L 3425 3897 
Q 3066 4069 2747 4153 
Q 2428 4238 2131 4238 
Q 1616 4238 1336 4038 
Q 1056 3838 1056 3469 
Q 1056 3159 1242 3001 
Q 1428 2844 1947 2747 
L 2328 2669 
Q 3034 2534 3370 2195 
Q 3706 1856 3706 1288 
Q 3706 609 3251 259 
Q 2797 -91 1919 -91 
Q 1588 -91 1214 -16 
Q 841 59 441 206 
L 441 856 
Q 825 641 1194 531 
Q 1563 422 1919 422 
Q 2459 422 2753 634 
Q 3047 847 3047 1241 
Q 3047 1584 2836 1778 
Q 2625 1972 2144 2069 
L 1759 2144 
Q 1053 2284 737 2584 
Q 422 2884 422 3419 
Q 422 4038 858 4394 
Q 1294 4750 2059 4750 
Q 2388 4750 2728 4690 
Q 3069 4631 3425 4513 
z
" transform="scale(0.015625)"/>
       <path id="DejaVuSans-69" d="M 603 3500 
L 1178 3500 
L 1178 0 
L 603 0 
L 603 3500 
z
M 603 4863 
L 1178 4863 
L 1178 4134 
L 603 4134 
L 603 4863 
z
" transform="scale(0.015625)"/>
       <path id="DejaVuSans-39" d="M 703 97 
L 703 672 
Q 941 559 1184 500 
Q 1428 441 1663 441 
Q 2288 441 2617 861 
Q 2947 1281 2994 2138 
Q 2813 1869 2534 1725 
Q 2256 1581 1919 1581 
Q 1219 1581 811 2004 
Q 403 2428 403 3163 
Q 403 3881 828 4315 
Q 1253 4750 1959 4750 
Q 2769 4750 3195 4129 
Q 3622 3509 3622 2328 
Q 3622 1225 3098 567 
Q 2575 -91 1691 -91 
Q 1453 -91 1209 -44 
Q 966 3 703 97 
z
M 1959 2075 
Q 2384 2075 2632 2365 
Q 2881 2656 2881 3163 
Q 2881 3666 2632 3958 
Q 2384 4250 1959 4250 
Q 1534 4250 1286 3958 
Q 1038 3666 1038 3163 
Q 1038 2656 1286 2365 
Q 1534 2075 1959 2075 
z
" transform="scale(0.015625)"/>
      </defs>
      <use xlink:href="#DejaVuSans-53"/>
      <use xlink:href="#DejaVuSans-69" x="63.476562"/>
      <use xlink:href="#DejaVuSans-6d" x="91.259766"/>
      <use xlink:href="#DejaVuSans-2c" x="188.671875"/>
      <use xlink:href="#DejaVuSans-20" x="220.458984"/>
      <use xlink:href="#DejaVuSans-72" x="252.246094"/>
      <use xlink:href="#DejaVuSans-61" x="293.359375"/>
      <use xlink:href="#DejaVuSans-6e" x="354.638672"/>
      <use xlink:href="#DejaVuSans-67" x="418.017578"/>
      <use xlink:href="#DejaVuSans-65" x="481.494141"/>
      <use xlink:href="#DejaVuSans-20" x="543.017578"/>
      <use xlink:href="#DejaVuSans-30" x="574.804688"/>
      <use xlink:href="#DejaVuSans-2e" x="638.427734"/>
      <use xlink:href="#DejaVuSans-30" x="670.214844"/>
      <use xlink:href="#DejaVuSans-30" x="733.837891"/>
      <use xlink:href="#DejaVuSans-39" x="797.460938"/>
     </g>
    </g>
    <g id="line2d_24">
     <path d="M 444.91875 128.854688 
L 454.91875 128.854688 
L 464.91875 128.854688 
" style="fill: none; stroke-dasharray: 5.55,2.4; stroke-dashoffset: 0; stroke: #8ecfc9; stroke-opacity: 0.5; stroke-width: 1.5"/>
    </g>
    <g id="text_19">
     <!-- Real, range 0.009 -->
     <g transform="translate(472.91875 132.354688) scale(0.1 -0.1)">
      <use xlink:href="#DejaVuSans-52"/>
      <use xlink:href="#DejaVuSans-65" x="64.982422"/>
      <use xlink:href="#DejaVuSans-61" x="126.505859"/>
      <use xlink:href="#DejaVuSans-6c" x="187.785156"/>
      <use xlink:href="#DejaVuSans-2c" x="215.568359"/>
      <use xlink:href="#DejaVuSans-20" x="247.355469"/>
      <use xlink:href="#DejaVuSans-72" x="279.142578"/>
      <use xlink:href="#DejaVuSans-61" x="320.255859"/>
      <use xlink:href="#DejaVuSans-6e" x="381.535156"/>
      <use xlink:href="#DejaVuSans-67" x="444.914062"/>
      <use xlink:href="#DejaVuSans-65" x="508.390625"/>
      <use xlink:href="#DejaVuSans-20" x="569.914062"/>
      <use xlink:href="#DejaVuSans-30" x="601.701172"/>
      <use xlink:href="#DejaVuSans-2e" x="665.324219"/>
      <use xlink:href="#DejaVuSans-30" x="697.111328"/>
      <use xlink:href="#DejaVuSans-30" x="760.734375"/>
      <use xlink:href="#DejaVuSans-39" x="824.357422"/>
     </g>
    </g>
    <g id="line2d_25">
     <path d="M 444.91875 143.532812 
L 454.91875 143.532812 
L 464.91875 143.532812 
" style="fill: none; stroke: #999999; stroke-width: 1.5; stroke-linecap: square"/>
    </g>
    <g id="text_20">
     <!-- Sim, range 0.008 -->
     <g transform="translate(472.91875 147.032812) scale(0.1 -0.1)">
      <use xlink:href="#DejaVuSans-53"/>
      <use xlink:href="#DejaVuSans-69" x="63.476562"/>
      <use xlink:href="#DejaVuSans-6d" x="91.259766"/>
      <use xlink:href="#DejaVuSans-2c" x="188.671875"/>
      <use xlink:href="#DejaVuSans-20" x="220.458984"/>
      <use xlink:href="#DejaVuSans-72" x="252.246094"/>
      <use xlink:href="#DejaVuSans-61" x="293.359375"/>
      <use xlink:href="#DejaVuSans-6e" x="354.638672"/>
      <use xlink:href="#DejaVuSans-67" x="418.017578"/>
      <use xlink:href="#DejaVuSans-65" x="481.494141"/>
      <use xlink:href="#DejaVuSans-20" x="543.017578"/>
      <use xlink:href="#DejaVuSans-30" x="574.804688"/>
      <use xlink:href="#DejaVuSans-2e" x="638.427734"/>
      <use xlink:href="#DejaVuSans-30" x="670.214844"/>
      <use xlink:href="#DejaVuSans-30" x="733.837891"/>
      <use xlink:href="#DejaVuSans-38" x="797.460938"/>
     </g>
    </g>
    <g id="line2d_26">
     <path d="M 444.91875 158.210938 
L 454.91875 158.210938 
L 464.91875 158.210938 
" style="fill: none; stroke-dasharray: 5.55,2.4; stroke-dashoffset: 0; stroke: #fa7f6f; stroke-opacity: 0.5; stroke-width: 1.5"/>
    </g>
    <g id="text_21">
     <!-- Real, range 0.009, motor_r 0.038 -->
     <g transform="translate(472.91875 161.710938) scale(0.1 -0.1)">
      <defs>
       <path id="DejaVuSans-6f" d="M 1959 3097 
Q 1497 3097 1228 2736 
Q 959 2375 959 1747 
Q 959 1119 1226 758 
Q 1494 397 1959 397 
Q 2419 397 2687 759 
Q 2956 1122 2956 1747 
Q 2956 2369 2687 2733 
Q 2419 3097 1959 3097 
z
M 1959 3584 
Q 2709 3584 3137 3096 
Q 3566 2609 3566 1747 
Q 3566 888 3137 398 
Q 2709 -91 1959 -91 
Q 1206 -91 779 398 
Q 353 888 353 1747 
Q 353 2609 779 3096 
Q 1206 3584 1959 3584 
z
" transform="scale(0.015625)"/>
       <path id="DejaVuSans-5f" d="M 3263 -1063 
L 3263 -1509 
L -63 -1509 
L -63 -1063 
L 3263 -1063 
z
" transform="scale(0.015625)"/>
       <path id="DejaVuSans-33" d="M 2597 2516 
Q 3050 2419 3304 2112 
Q 3559 1806 3559 1356 
Q 3559 666 3084 287 
Q 2609 -91 1734 -91 
Q 1441 -91 1130 -33 
Q 819 25 488 141 
L 488 750 
Q 750 597 1062 519 
Q 1375 441 1716 441 
Q 2309 441 2620 675 
Q 2931 909 2931 1356 
Q 2931 1769 2642 2001 
Q 2353 2234 1838 2234 
L 1294 2234 
L 1294 2753 
L 1863 2753 
Q 2328 2753 2575 2939 
Q 2822 3125 2822 3475 
Q 2822 3834 2567 4026 
Q 2313 4219 1838 4219 
Q 1578 4219 1281 4162 
Q 984 4106 628 3988 
L 628 4550 
Q 988 4650 1302 4700 
Q 1616 4750 1894 4750 
Q 2613 4750 3031 4423 
Q 3450 4097 3450 3541 
Q 3450 3153 3228 2886 
Q 3006 2619 2597 2516 
z
" transform="scale(0.015625)"/>
      </defs>
      <use xlink:href="#DejaVuSans-52"/>
      <use xlink:href="#DejaVuSans-65" x="64.982422"/>
      <use xlink:href="#DejaVuSans-61" x="126.505859"/>
      <use xlink:href="#DejaVuSans-6c" x="187.785156"/>
      <use xlink:href="#DejaVuSans-2c" x="215.568359"/>
      <use xlink:href="#DejaVuSans-20" x="247.355469"/>
      <use xlink:href="#DejaVuSans-72" x="279.142578"/>
      <use xlink:href="#DejaVuSans-61" x="320.255859"/>
      <use xlink:href="#DejaVuSans-6e" x="381.535156"/>
      <use xlink:href="#DejaVuSans-67" x="444.914062"/>
      <use xlink:href="#DejaVuSans-65" x="508.390625"/>
      <use xlink:href="#DejaVuSans-20" x="569.914062"/>
      <use xlink:href="#DejaVuSans-30" x="601.701172"/>
      <use xlink:href="#DejaVuSans-2e" x="665.324219"/>
      <use xlink:href="#DejaVuSans-30" x="697.111328"/>
      <use xlink:href="#DejaVuSans-30" x="760.734375"/>
      <use xlink:href="#DejaVuSans-39" x="824.357422"/>
      <use xlink:href="#DejaVuSans-2c" x="887.980469"/>
      <use xlink:href="#DejaVuSans-20" x="919.767578"/>
      <use xlink:href="#DejaVuSans-6d" x="951.554688"/>
      <use xlink:href="#DejaVuSans-6f" x="1048.966797"/>
      <use xlink:href="#DejaVuSans-74" x="1110.148438"/>
      <use xlink:href="#DejaVuSans-6f" x="1149.357422"/>
      <use xlink:href="#DejaVuSans-72" x="1210.539062"/>
      <use xlink:href="#DejaVuSans-5f" x="1251.652344"/>
      <use xlink:href="#DejaVuSans-72" x="1301.652344"/>
      <use xlink:href="#DejaVuSans-20" x="1342.765625"/>
      <use xlink:href="#DejaVuSans-30" x="1374.552734"/>
      <use xlink:href="#DejaVuSans-2e" x="1438.175781"/>
      <use xlink:href="#DejaVuSans-30" x="1469.962891"/>
      <use xlink:href="#DejaVuSans-33" x="1533.585938"/>
      <use xlink:href="#DejaVuSans-38" x="1597.208984"/>
     </g>
    </g>
    <g id="line2d_27">
     <path d="M 444.91875 173.167188 
L 454.91875 173.167188 
L 464.91875 173.167188 
" style="fill: none; stroke-dasharray: 5.55,2.4; stroke-dashoffset: 0; stroke: #999999; stroke-width: 1.5"/>
    </g>
    <g id="text_22">
     <!-- Real, range 0.009, motor_r 0.035 -->
     <g transform="translate(472.91875 176.667188) scale(0.1 -0.1)">
      <defs>
       <path id="DejaVuSans-35" d="M 691 4666 
L 3169 4666 
L 3169 4134 
L 1269 4134 
L 1269 2991 
Q 1406 3038 1543 3061 
Q 1681 3084 1819 3084 
Q 2600 3084 3056 2656 
Q 3513 2228 3513 1497 
Q 3513 744 3044 326 
Q 2575 -91 1722 -91 
Q 1428 -91 1123 -41 
Q 819 9 494 109 
L 494 744 
Q 775 591 1075 516 
Q 1375 441 1709 441 
Q 2250 441 2565 725 
Q 2881 1009 2881 1497 
Q 2881 1984 2565 2268 
Q 2250 2553 1709 2553 
Q 1456 2553 1204 2497 
Q 953 2441 691 2322 
L 691 4666 
z
" transform="scale(0.015625)"/>
      </defs>
      <use xlink:href="#DejaVuSans-52"/>
      <use xlink:href="#DejaVuSans-65" x="64.982422"/>
      <use xlink:href="#DejaVuSans-61" x="126.505859"/>
      <use xlink:href="#DejaVuSans-6c" x="187.785156"/>
      <use xlink:href="#DejaVuSans-2c" x="215.568359"/>
      <use xlink:href="#DejaVuSans-20" x="247.355469"/>
      <use xlink:href="#DejaVuSans-72" x="279.142578"/>
      <use xlink:href="#DejaVuSans-61" x="320.255859"/>
      <use xlink:href="#DejaVuSans-6e" x="381.535156"/>
      <use xlink:href="#DejaVuSans-67" x="444.914062"/>
      <use xlink:href="#DejaVuSans-65" x="508.390625"/>
      <use xlink:href="#DejaVuSans-20" x="569.914062"/>
      <use xlink:href="#DejaVuSans-30" x="601.701172"/>
      <use xlink:href="#DejaVuSans-2e" x="665.324219"/>
      <use xlink:href="#DejaVuSans-30" x="697.111328"/>
      <use xlink:href="#DejaVuSans-30" x="760.734375"/>
      <use xlink:href="#DejaVuSans-39" x="824.357422"/>
      <use xlink:href="#DejaVuSans-2c" x="887.980469"/>
      <use xlink:href="#DejaVuSans-20" x="919.767578"/>
      <use xlink:href="#DejaVuSans-6d" x="951.554688"/>
      <use xlink:href="#DejaVuSans-6f" x="1048.966797"/>
      <use xlink:href="#DejaVuSans-74" x="1110.148438"/>
      <use xlink:href="#DejaVuSans-6f" x="1149.357422"/>
      <use xlink:href="#DejaVuSans-72" x="1210.539062"/>
      <use xlink:href="#DejaVuSans-5f" x="1251.652344"/>
      <use xlink:href="#DejaVuSans-72" x="1301.652344"/>
      <use xlink:href="#DejaVuSans-20" x="1342.765625"/>
      <use xlink:href="#DejaVuSans-30" x="1374.552734"/>
      <use xlink:href="#DejaVuSans-2e" x="1438.175781"/>
      <use xlink:href="#DejaVuSans-30" x="1469.962891"/>
      <use xlink:href="#DejaVuSans-33" x="1533.585938"/>
      <use xlink:href="#DejaVuSans-35" x="1597.208984"/>
     </g>
    </g>
   </g>
  </g>
  <g id="axes_2">
   <g id="patch_8">
    <path d="M 90 640.8 
L 648 640.8 
L 648 388.8 
L 90 388.8 
z
" style="fill: #ffffff"/>
   </g>
   <g id="matplotlib.axis_3">
    <g id="xtick_10">
     <g id="line2d_28">
      <g>
       <use xlink:href="#m2111207ef9" x="115.363636" y="640.8" style="stroke: #000000; stroke-width: 0.8"/>
      </g>
     </g>
     <g id="text_23">
      <!-- 0 -->
      <g transform="translate(112.182386 655.398438) scale(0.1 -0.1)">
       <use xlink:href="#DejaVuSans-30"/>
      </g>
     </g>
    </g>
    <g id="xtick_11">
     <g id="line2d_29">
      <g>
       <use xlink:href="#m2111207ef9" x="179.171527" y="640.8" style="stroke: #000000; stroke-width: 0.8"/>
      </g>
     </g>
     <g id="text_24">
      <!-- 20 -->
      <g transform="translate(172.809027 655.398438) scale(0.1 -0.1)">
       <use xlink:href="#DejaVuSans-32"/>
       <use xlink:href="#DejaVuSans-30" x="63.623047"/>
      </g>
     </g>
    </g>
    <g id="xtick_12">
     <g id="line2d_30">
      <g>
       <use xlink:href="#m2111207ef9" x="242.979417" y="640.8" style="stroke: #000000; stroke-width: 0.8"/>
      </g>
     </g>
     <g id="text_25">
      <!-- 40 -->
      <g transform="translate(236.616917 655.398438) scale(0.1 -0.1)">
       <use xlink:href="#DejaVuSans-34"/>
       <use xlink:href="#DejaVuSans-30" x="63.623047"/>
      </g>
     </g>
    </g>
    <g id="xtick_13">
     <g id="line2d_31">
      <g>
       <use xlink:href="#m2111207ef9" x="306.787307" y="640.8" style="stroke: #000000; stroke-width: 0.8"/>
      </g>
     </g>
     <g id="text_26">
      <!-- 60 -->
      <g transform="translate(300.424807 655.398438) scale(0.1 -0.1)">
       <use xlink:href="#DejaVuSans-36"/>
       <use xlink:href="#DejaVuSans-30" x="63.623047"/>
      </g>
     </g>
    </g>
    <g id="xtick_14">
     <g id="line2d_32">
      <g>
       <use xlink:href="#m2111207ef9" x="370.595197" y="640.8" style="stroke: #000000; stroke-width: 0.8"/>
      </g>
     </g>
     <g id="text_27">
      <!-- 80 -->
      <g transform="translate(364.232697 655.398438) scale(0.1 -0.1)">
       <use xlink:href="#DejaVuSans-38"/>
       <use xlink:href="#DejaVuSans-30" x="63.623047"/>
      </g>
     </g>
    </g>
    <g id="xtick_15">
     <g id="line2d_33">
      <g>
       <use xlink:href="#m2111207ef9" x="434.403087" y="640.8" style="stroke: #000000; stroke-width: 0.8"/>
      </g>
     </g>
     <g id="text_28">
      <!-- 100 -->
      <g transform="translate(424.859337 655.398438) scale(0.1 -0.1)">
       <use xlink:href="#DejaVuSans-31"/>
       <use xlink:href="#DejaVuSans-30" x="63.623047"/>
       <use xlink:href="#DejaVuSans-30" x="127.246094"/>
      </g>
     </g>
    </g>
    <g id="xtick_16">
     <g id="line2d_34">
      <g>
       <use xlink:href="#m2111207ef9" x="498.210978" y="640.8" style="stroke: #000000; stroke-width: 0.8"/>
      </g>
     </g>
     <g id="text_29">
      <!-- 120 -->
      <g transform="translate(488.667228 655.398438) scale(0.1 -0.1)">
       <use xlink:href="#DejaVuSans-31"/>
       <use xlink:href="#DejaVuSans-32" x="63.623047"/>
       <use xlink:href="#DejaVuSans-30" x="127.246094"/>
      </g>
     </g>
    </g>
    <g id="xtick_17">
     <g id="line2d_35">
      <g>
       <use xlink:href="#m2111207ef9" x="562.018868" y="640.8" style="stroke: #000000; stroke-width: 0.8"/>
      </g>
     </g>
     <g id="text_30">
      <!-- 140 -->
      <g transform="translate(552.475118 655.398438) scale(0.1 -0.1)">
       <use xlink:href="#DejaVuSans-31"/>
       <use xlink:href="#DejaVuSans-34" x="63.623047"/>
       <use xlink:href="#DejaVuSans-30" x="127.246094"/>
      </g>
     </g>
    </g>
    <g id="xtick_18">
     <g id="line2d_36">
      <g>
       <use xlink:href="#m2111207ef9" x="625.826758" y="640.8" style="stroke: #000000; stroke-width: 0.8"/>
      </g>
     </g>
     <g id="text_31">
      <!-- 160 -->
      <g transform="translate(616.283008 655.398438) scale(0.1 -0.1)">
       <use xlink:href="#DejaVuSans-31"/>
       <use xlink:href="#DejaVuSans-36" x="63.623047"/>
       <use xlink:href="#DejaVuSans-30" x="127.246094"/>
      </g>
     </g>
    </g>
   </g>
   <g id="matplotlib.axis_4">
    <g id="ytick_7">
     <g id="line2d_37">
      <g>
       <use xlink:href="#m53f7125786" x="90" y="635.003331" style="stroke: #000000; stroke-width: 0.8"/>
      </g>
     </g>
     <g id="text_32">
      <!-- 60000 -->
      <g transform="translate(51.1875 638.802549) scale(0.1 -0.1)">
       <use xlink:href="#DejaVuSans-36"/>
       <use xlink:href="#DejaVuSans-30" x="63.623047"/>
       <use xlink:href="#DejaVuSans-30" x="127.246094"/>
       <use xlink:href="#DejaVuSans-30" x="190.869141"/>
       <use xlink:href="#DejaVuSans-30" x="254.492188"/>
      </g>
     </g>
    </g>
    <g id="ytick_8">
     <g id="line2d_38">
      <g>
       <use xlink:href="#m53f7125786" x="90" y="586.611432" style="stroke: #000000; stroke-width: 0.8"/>
      </g>
     </g>
     <g id="text_33">
      <!-- 80000 -->
      <g transform="translate(51.1875 590.410651) scale(0.1 -0.1)">
       <use xlink:href="#DejaVuSans-38"/>
       <use xlink:href="#DejaVuSans-30" x="63.623047"/>
       <use xlink:href="#DejaVuSans-30" x="127.246094"/>
       <use xlink:href="#DejaVuSans-30" x="190.869141"/>
       <use xlink:href="#DejaVuSans-30" x="254.492188"/>
      </g>
     </g>
    </g>
    <g id="ytick_9">
     <g id="line2d_39">
      <g>
       <use xlink:href="#m53f7125786" x="90" y="538.219533" style="stroke: #000000; stroke-width: 0.8"/>
      </g>
     </g>
     <g id="text_34">
      <!-- 100000 -->
      <g transform="translate(44.825 542.018752) scale(0.1 -0.1)">
       <use xlink:href="#DejaVuSans-31"/>
       <use xlink:href="#DejaVuSans-30" x="63.623047"/>
       <use xlink:href="#DejaVuSans-30" x="127.246094"/>
       <use xlink:href="#DejaVuSans-30" x="190.869141"/>
       <use xlink:href="#DejaVuSans-30" x="254.492188"/>
       <use xlink:href="#DejaVuSans-30" x="318.115234"/>
      </g>
     </g>
    </g>
    <g id="ytick_10">
     <g id="line2d_40">
      <g>
       <use xlink:href="#m53f7125786" x="90" y="489.827635" style="stroke: #000000; stroke-width: 0.8"/>
      </g>
     </g>
     <g id="text_35">
      <!-- 120000 -->
      <g transform="translate(44.825 493.626854) scale(0.1 -0.1)">
       <use xlink:href="#DejaVuSans-31"/>
       <use xlink:href="#DejaVuSans-32" x="63.623047"/>
       <use xlink:href="#DejaVuSans-30" x="127.246094"/>
       <use xlink:href="#DejaVuSans-30" x="190.869141"/>
       <use xlink:href="#DejaVuSans-30" x="254.492188"/>
       <use xlink:href="#DejaVuSans-30" x="318.115234"/>
      </g>
     </g>
    </g>
    <g id="ytick_11">
     <g id="line2d_41">
      <g>
       <use xlink:href="#m53f7125786" x="90" y="441.435736" style="stroke: #000000; stroke-width: 0.8"/>
      </g>
     </g>
     <g id="text_36">
      <!-- 140000 -->
      <g transform="translate(44.825 445.234955) scale(0.1 -0.1)">
       <use xlink:href="#DejaVuSans-31"/>
       <use xlink:href="#DejaVuSans-34" x="63.623047"/>
       <use xlink:href="#DejaVuSans-30" x="127.246094"/>
       <use xlink:href="#DejaVuSans-30" x="190.869141"/>
       <use xlink:href="#DejaVuSans-30" x="254.492188"/>
       <use xlink:href="#DejaVuSans-30" x="318.115234"/>
      </g>
     </g>
    </g>
    <g id="ytick_12">
     <g id="line2d_42">
      <g>
       <use xlink:href="#m53f7125786" x="90" y="393.043838" style="stroke: #000000; stroke-width: 0.8"/>
      </g>
     </g>
     <g id="text_37">
      <!-- 160000 -->
      <g transform="translate(44.825 396.843056) scale(0.1 -0.1)">
       <use xlink:href="#DejaVuSans-31"/>
       <use xlink:href="#DejaVuSans-36" x="63.623047"/>
       <use xlink:href="#DejaVuSans-30" x="127.246094"/>
       <use xlink:href="#DejaVuSans-30" x="190.869141"/>
       <use xlink:href="#DejaVuSans-30" x="254.492188"/>
       <use xlink:href="#DejaVuSans-30" x="318.115234"/>
      </g>
     </g>
    </g>
   </g>
   <g id="line2d_43">
    <path d="M 115.363636 535.799938 
L 118.554031 534.106222 
L 121.744425 531.928587 
L 124.93482 530.718789 
L 128.125214 529.267032 
L 131.315609 526.847437 
L 134.506003 524.185883 
L 137.696398 520.55649 
L 140.886792 516.685139 
L 144.077187 512.571827 
L 147.267581 507.974597 
L 150.457976 503.619326 
L 153.64837 498.296217 
L 156.838765 493.215068 
L 160.02916 487.649999 
L 166.409949 475.552025 
L 172.790738 462.970131 
L 175.981132 456.19526 
L 179.171527 515.95926 
L 182.361921 512.571827 
L 185.552316 508.942435 
L 188.74271 507.248718 
L 191.933105 505.313042 
L 195.123499 501.44169 
L 201.504288 493.215068 
L 204.694683 488.617837 
L 207.885077 483.536688 
L 214.265866 472.89047 
L 217.456261 466.841483 
L 220.646655 461.034455 
L 223.83705 454.743508 
L 230.217839 440.951815 
L 233.408233 433.934997 
L 239.789022 419.17546 
L 242.979417 537.735614 
L 246.169811 542.574804 
L 249.360206 546.688116 
L 252.5506 550.559468 
L 255.740995 553.9469 
L 258.931389 557.576293 
L 262.121784 560.237847 
L 265.312178 562.415483 
L 268.502573 563.86724 
L 271.692967 567.012713 
L 278.073756 572.819741 
L 281.264151 575.481295 
L 284.454545 578.384809 
L 287.64494 580.804404 
L 290.835334 583.465961 
L 297.216123 588.305151 
L 300.406518 590.9667 
L 303.596913 593.386295 
L 306.787307 509.910273 
L 309.977702 514.991422 
L 313.168096 519.830612 
L 316.358491 524.911761 
L 319.548885 529.025073 
L 322.73928 533.380344 
L 325.929674 535.799938 
L 329.120069 537.251695 
L 332.310463 540.881088 
L 335.500858 544.75244 
L 338.691252 547.655954 
L 341.881647 550.801427 
L 345.072041 554.18886 
L 348.262436 556.366495 
L 351.45283 559.270009 
L 357.833619 564.109199 
L 361.024014 567.012713 
L 367.404803 571.851903 
L 370.595197 536.283857 
L 373.785592 541.606966 
L 376.975986 545.720278 
L 380.166381 550.075549 
L 383.356775 553.704941 
L 386.54717 557.576293 
L 389.737564 560.237847 
L 392.927959 562.415483 
L 396.118353 564.351159 
L 399.308748 567.496632 
L 408.879931 576.207176 
L 418.451115 584.191837 
L 421.641509 586.611432 
L 424.831904 589.272986 
L 431.212693 594.112176 
L 434.403087 563.86724 
L 437.593482 568.222511 
L 440.783877 572.093862 
L 443.974271 576.207176 
L 453.545455 586.369473 
L 456.735849 588.547106 
L 459.926244 590.482784 
L 463.116638 592.660419 
L 466.307033 595.80589 
L 475.878216 603.790556 
L 488.639794 613.468931 
L 491.830189 616.130493 
L 495.020583 618.066166 
L 498.210978 535.799938 
L 501.401372 534.348182 
L 504.591767 532.654465 
L 510.972556 529.750951 
L 517.353345 524.911761 
L 520.543739 521.766288 
L 523.734134 517.411017 
L 526.924528 513.539665 
L 530.114923 509.426354 
L 533.305317 504.587164 
L 536.495712 499.264055 
L 539.686106 494.182903 
L 542.876501 488.859797 
L 549.25729 476.761822 
L 555.638079 463.937967 
L 558.828473 457.405058 
L 562.018868 565.077037 
L 565.209262 562.415483 
L 568.399657 559.511969 
L 571.590051 558.302171 
L 574.780446 556.850414 
L 577.97084 554.18886 
L 581.161235 552.011225 
L 587.542024 546.688116 
L 590.732419 543.784602 
L 593.922813 540.397169 
L 597.113208 537.493655 
L 600.303602 534.832101 
L 603.493997 530.47683 
L 606.684391 526.847437 
L 609.874786 521.524328 
L 613.06518 516.927098 
L 616.255575 511.845949 
L 619.445969 506.52284 
L 622.636364 500.957771 
L 622.636364 500.957771 
" clip-path="url(#p02ae51eb9e)" style="fill: none; stroke-dasharray: 5.55,2.4; stroke-dashoffset: 0; stroke: #beb8dc; stroke-opacity: 0.5; stroke-width: 1.5"/>
   </g>
   <g id="line2d_44">
    <path d="M 115.363636 535.799938 
L 118.554031 534.397209 
L 121.744425 532.183934 
L 124.93482 529.521863 
L 128.125214 526.531049 
L 131.315609 523.265746 
L 134.506003 519.753444 
L 137.696398 516.0082 
L 140.886792 512.036312 
L 144.077187 507.839086 
L 147.267581 503.414302 
L 150.457976 498.757048 
L 153.64837 493.860188 
L 156.838765 488.714638 
L 160.02916 483.309507 
L 163.219554 477.632148 
L 166.409949 471.668148 
L 169.600343 465.401265 
L 172.790738 458.813327 
L 175.981132 451.884079 
L 179.171527 497.367491 
L 182.361921 495.74416 
L 185.552316 493.182813 
L 188.74271 490.102089 
L 191.933105 486.640923 
L 195.123499 482.8621 
L 198.313894 478.797434 
L 201.504288 474.463191 
L 204.694683 469.866661 
L 207.885077 465.009355 
L 211.075472 459.888705 
L 214.265866 454.499024 
L 217.456261 448.832056 
L 220.646655 442.877288 
L 223.83705 436.622115 
L 227.027444 430.051903 
L 230.217839 423.14997 
L 233.408233 415.897521 
L 236.598628 408.273526 
L 239.789022 400.254545 
L 242.979417 535.799938 
L 246.169811 541.110838 
L 249.360206 546.156796 
L 252.5506 550.95421 
L 255.740995 555.517826 
L 258.931389 559.860881 
L 262.121784 563.995199 
L 265.312178 567.931278 
L 268.502573 571.678327 
L 271.692967 575.244278 
L 274.883362 578.635744 
L 278.073756 581.857923 
L 281.264151 584.914392 
L 284.454545 587.806766 
L 287.64494 590.534097 
L 290.835334 593.091796 
L 294.025729 595.469627 
L 297.216123 597.647572 
L 300.406518 599.586124 
L 303.596913 601.197856 
L 306.787307 497.367491 
L 309.977702 503.513613 
L 313.168096 509.353127 
L 316.358491 514.905009 
L 319.548885 520.186326 
L 322.73928 525.212394 
L 325.929674 529.996899 
L 329.120069 534.551988 
L 332.310463 538.888319 
L 335.500858 543.015072 
L 338.691252 546.9399 
L 341.881647 550.668816 
L 345.072041 554.205963 
L 348.262436 557.553209 
L 351.45283 560.709455 
L 354.643225 563.669392 
L 357.833619 566.421175 
L 361.024014 568.941636 
L 364.214408 571.185055 
L 367.404803 573.050258 
L 370.595197 535.799938 
L 373.785592 541.110838 
L 376.975986 546.156796 
L 380.166381 550.95421 
L 383.356775 555.517826 
L 386.54717 559.860881 
L 389.737564 563.995199 
L 392.927959 567.931278 
L 396.118353 571.678327 
L 399.308748 575.244278 
L 402.499142 578.635744 
L 405.689537 581.857923 
L 408.879931 584.914392 
L 412.070326 587.806766 
L 415.26072 590.534097 
L 418.451115 593.091796 
L 421.641509 595.469627 
L 424.831904 597.647572 
L 428.022298 599.586124 
L 431.212693 601.197856 
L 434.403087 574.232386 
L 437.593482 578.708063 
L 440.783877 582.960465 
L 443.974271 587.00341 
L 447.164666 590.849327 
L 450.35506 594.509367 
L 453.545455 597.9935 
L 459.926244 604.468335 
L 466.307033 610.331589 
L 472.687822 615.62282 
L 479.068611 620.358739 
L 482.259005 622.5142 
L 485.4494 624.51808 
L 488.639794 626.353509 
L 491.830189 627.987192 
L 495.020583 629.345455 
L 498.210978 535.799938 
L 501.401372 534.397209 
L 504.591767 532.183934 
L 507.782161 529.521863 
L 510.972556 526.531049 
L 514.16295 523.265746 
L 517.353345 519.753444 
L 520.543739 516.0082 
L 523.734134 512.036312 
L 526.924528 507.839086 
L 530.114923 503.414302 
L 533.305317 498.757048 
L 536.495712 493.860188 
L 539.686106 488.714638 
L 542.876501 483.309507 
L 546.066895 477.632148 
L 549.25729 471.668148 
L 552.447684 465.401265 
L 555.638079 458.813327 
L 558.828473 451.884079 
L 562.018868 574.232386 
L 565.209262 573.050258 
L 568.399657 571.185055 
L 571.590051 568.941636 
L 574.780446 566.421175 
L 577.97084 563.669392 
L 581.161235 560.709455 
L 584.35163 557.553209 
L 587.542024 554.205963 
L 590.732419 550.668816 
L 593.922813 546.9399 
L 597.113208 543.015072 
L 600.303602 538.888319 
L 603.493997 534.551988 
L 606.684391 529.996899 
L 609.874786 525.212394 
L 613.06518 520.186326 
L 616.255575 514.905009 
L 619.445969 509.353127 
L 622.636364 503.513613 
L 622.636364 503.513613 
" clip-path="url(#p02ae51eb9e)" style="fill: none; stroke: #8ecfc9; stroke-opacity: 0.5; stroke-width: 1.5; stroke-linecap: square"/>
   </g>
   <g id="line2d_45">
    <path d="M 115.363636 535.799938 
L 118.554031 534.348182 
L 121.744425 532.412506 
L 124.93482 531.202708 
L 128.125214 530.23487 
L 131.315609 528.057235 
L 134.506003 525.63764 
L 137.696398 522.492166 
L 140.886792 519.104733 
L 144.077187 515.475341 
L 150.457976 507.732637 
L 153.64837 503.377366 
L 160.02916 493.698987 
L 163.219554 488.617837 
L 166.409949 483.294726 
L 169.600343 477.72966 
L 175.981132 466.115607 
L 179.171527 518.378855 
L 182.361921 515.717301 
L 185.552316 512.571827 
L 188.74271 510.878111 
L 191.933105 508.942435 
L 195.123499 505.796961 
L 198.313894 502.409528 
L 204.694683 494.182903 
L 211.075472 485.472366 
L 214.265866 480.633176 
L 220.646655 470.470875 
L 223.83705 464.905809 
L 227.027444 459.098777 
L 230.217839 453.533711 
L 239.789022 434.418906 
L 242.979417 536.041898 
L 246.169811 541.606966 
L 249.360206 545.720278 
L 252.5506 549.107711 
L 255.740995 552.253184 
L 258.931389 555.156698 
L 262.121784 557.818252 
L 265.312178 559.511969 
L 268.502573 560.721766 
L 274.883362 566.044875 
L 278.073756 568.46447 
L 281.264151 571.126024 
L 294.025729 580.804404 
L 303.596913 587.337308 
L 306.787307 512.087908 
L 309.977702 517.169058 
L 316.358491 525.879599 
L 319.548885 529.750951 
L 322.73928 533.380344 
L 329.120069 537.251695 
L 332.310463 540.155209 
L 335.500858 542.816764 
L 338.691252 545.962237 
L 341.881647 548.623792 
L 345.072041 551.043387 
L 351.45283 556.366495 
L 354.643225 558.544131 
L 357.833619 560.963726 
L 361.024014 563.141361 
L 367.404803 567.980551 
L 370.595197 536.525817 
L 373.785592 541.123047 
L 376.975986 544.994399 
L 380.166381 548.623792 
L 383.356775 552.011225 
L 389.737564 558.302171 
L 392.927959 559.995888 
L 396.118353 560.963726 
L 399.308748 563.86724 
L 402.499142 567.012713 
L 405.689537 569.190349 
L 412.070326 574.029538 
L 415.26072 576.691093 
L 418.451115 578.868726 
L 421.641509 581.288321 
L 424.831904 583.465961 
L 428.022298 585.401635 
L 431.212693 588.063189 
L 434.403087 560.963726 
L 437.593482 564.835078 
L 443.974271 571.609943 
L 450.35506 577.90089 
L 453.545455 580.804404 
L 459.926244 585.159675 
L 463.116638 586.611432 
L 466.307033 589.272986 
L 469.497427 591.692581 
L 472.687822 594.596093 
L 475.878216 596.531771 
L 479.068611 598.951366 
L 491.830189 607.66191 
L 495.020583 609.597584 
L 498.210978 535.799938 
L 501.401372 534.348182 
L 504.591767 532.654465 
L 507.782161 531.686627 
L 510.972556 531.202708 
L 517.353345 525.879599 
L 520.543739 522.976085 
L 526.924528 516.20122 
L 533.305317 508.458516 
L 536.495712 504.103245 
L 539.686106 499.506015 
L 542.876501 494.666825 
L 546.066895 489.585675 
L 552.447684 478.939458 
L 558.828473 467.325404 
L 562.018868 562.173523 
L 565.209262 559.511969 
L 568.399657 557.334333 
L 571.590051 556.366495 
L 574.780446 555.156698 
L 577.97084 552.737103 
L 581.161235 550.075549 
L 587.542024 545.720278 
L 590.732419 542.816764 
L 593.922813 540.397169 
L 597.113208 537.493655 
L 603.493997 531.202708 
L 606.684391 527.815275 
L 609.874786 523.460004 
L 613.06518 519.346693 
L 616.255575 514.991422 
L 619.445969 510.152232 
L 622.636364 505.071083 
L 622.636364 505.071083 
" clip-path="url(#p02ae51eb9e)" style="fill: none; stroke-dasharray: 5.55,2.4; stroke-dashoffset: 0; stroke: #8ecfc9; stroke-opacity: 0.5; stroke-width: 1.5"/>
   </g>
   <g id="line2d_46">
    <path d="M 115.363636 535.799938 
L 118.554031 533.816556 
L 121.744425 531.483361 
L 124.93482 528.886041 
L 128.125214 526.066607 
L 131.315609 523.047823 
L 134.506003 519.842363 
L 137.696398 516.456933 
L 140.886792 512.89437 
L 144.077187 509.154802 
L 147.267581 505.236323 
L 150.457976 501.135402 
L 153.64837 496.847137 
L 156.838765 492.365404 
L 160.02916 487.682949 
L 163.219554 482.791421 
L 166.409949 477.681385 
L 169.600343 472.342297 
L 172.790738 466.762462 
L 175.981132 460.928968 
L 179.171527 501.067824 
L 182.361921 498.802555 
L 185.552316 496.137757 
L 188.74271 493.171296 
L 191.933105 489.951153 
L 195.123499 486.503328 
L 198.313894 482.842296 
L 201.504288 478.975715 
L 204.694683 474.906827 
L 207.885077 470.635777 
L 211.075472 466.160388 
L 214.265866 461.476628 
L 217.456261 456.578897 
L 220.646655 451.460204 
L 223.83705 446.112259 
L 227.027444 440.525529 
L 230.217839 434.689234 
L 233.408233 428.591334 
L 236.598628 422.218471 
L 239.789022 415.555898 
L 242.979417 535.799938 
L 246.169811 540.382816 
L 249.360206 544.76449 
L 255.740995 552.96595 
L 262.121784 560.478359 
L 268.502573 567.361795 
L 274.883362 573.66311 
L 281.264151 579.415249 
L 287.64494 584.63405 
L 290.835334 587.041746 
L 294.025729 589.309225 
L 297.216123 591.426968 
L 300.406518 593.377876 
L 303.596913 595.130394 
L 306.787307 501.067824 
L 309.977702 506.302038 
L 313.168096 511.306453 
L 316.358491 516.09326 
L 319.548885 520.673536 
L 325.929674 529.253638 
L 332.310463 537.115376 
L 338.691252 544.312258 
L 345.072041 550.881914 
L 351.45283 556.842431 
L 354.643225 559.592318 
L 357.833619 562.18206 
L 361.024014 564.600785 
L 364.214408 566.828964 
L 367.404803 568.830556 
L 370.595197 535.799938 
L 373.785592 540.382816 
L 376.975986 544.76449 
L 383.356775 552.96595 
L 389.737564 560.478359 
L 396.118353 567.361795 
L 402.499142 573.66311 
L 408.879931 579.415249 
L 415.26072 584.63405 
L 418.451115 587.041746 
L 421.641509 589.309225 
L 424.831904 591.426968 
L 428.022298 593.377876 
L 431.212693 595.130394 
L 434.403087 570.532053 
L 440.783877 578.222527 
L 447.164666 585.258363 
L 453.545455 591.703079 
L 459.926244 597.608215 
L 466.307033 603.013962 
L 472.687822 607.948584 
L 479.068611 612.425669 
L 485.4494 616.43639 
L 488.639794 618.253151 
L 491.830189 619.926788 
L 495.020583 621.430231 
L 498.210978 535.799938 
L 501.401372 533.816556 
L 504.591767 531.483361 
L 507.782161 528.886041 
L 510.972556 526.066607 
L 514.16295 523.047823 
L 517.353345 519.842363 
L 520.543739 516.456933 
L 523.734134 512.89437 
L 526.924528 509.154802 
L 530.114923 505.236323 
L 533.305317 501.135402 
L 536.495712 496.847137 
L 539.686106 492.365404 
L 542.876501 487.682949 
L 546.066895 482.791421 
L 549.25729 477.681385 
L 552.447684 472.342297 
L 555.638079 466.762462 
L 558.828473 460.928968 
L 562.018868 570.532053 
L 565.209262 568.830556 
L 568.399657 566.828964 
L 571.590051 564.600785 
L 574.780446 562.18206 
L 577.97084 559.592318 
L 581.161235 556.842431 
L 584.35163 553.938151 
L 590.732419 547.673828 
L 597.113208 540.794176 
L 603.493997 533.270605 
L 606.684391 529.253638 
L 609.874786 525.057314 
L 613.06518 520.673536 
L 616.255575 516.09326 
L 619.445969 511.306453 
L 622.636364 506.302038 
L 622.636364 506.302038 
" clip-path="url(#p02ae51eb9e)" style="fill: none; stroke: #999999; stroke-width: 1.5; stroke-linecap: square"/>
   </g>
   <g id="line2d_47">
    <path d="M 115.363636 535.799938 
L 118.554031 534.348182 
L 121.744425 532.170546 
L 124.93482 531.202708 
L 128.125214 529.992911 
L 131.315609 527.573316 
L 134.506003 524.911761 
L 137.696398 521.524328 
L 144.077187 514.265544 
L 147.267581 509.910273 
L 150.457976 505.796961 
L 153.64837 500.957771 
L 160.02916 490.795473 
L 163.219554 485.472366 
L 166.409949 479.423379 
L 169.600343 473.858308 
L 175.981132 461.518372 
L 179.171527 517.169058 
L 182.361921 514.023584 
L 185.552316 510.394192 
L 188.74271 508.942435 
L 191.933105 507.006759 
L 195.123499 503.619326 
L 198.313894 499.747974 
L 201.504288 495.634663 
L 204.694683 491.279392 
L 207.885077 487.16608 
L 211.075472 481.601012 
L 214.265866 476.519863 
L 217.456261 471.196751 
L 220.646655 465.389726 
L 223.83705 459.824658 
L 227.027444 453.775665 
L 233.408233 440.951815 
L 236.598628 433.69303 
L 239.789022 426.918167 
L 242.979417 536.283857 
L 246.169811 542.090885 
L 249.360206 546.204197 
L 252.5506 549.833589 
L 255.740995 552.979062 
L 258.931389 556.850414 
L 262.121784 559.270009 
L 265.312178 561.205685 
L 268.502573 562.415483 
L 271.692967 565.318997 
L 274.883362 567.980551 
L 281.264151 573.787579 
L 284.454545 575.965214 
L 297.216123 585.643594 
L 300.406518 587.821229 
L 303.596913 590.482784 
L 306.787307 511.12007 
L 309.977702 516.20122 
L 316.358491 525.39568 
L 319.548885 529.508992 
L 322.73928 533.380344 
L 325.929674 535.799938 
L 329.120069 537.251695 
L 332.310463 540.397169 
L 335.500858 543.784602 
L 338.691252 546.930075 
L 341.881647 549.833589 
L 348.262436 555.156698 
L 351.45283 558.060212 
L 354.643225 560.237847 
L 357.833619 562.657442 
L 361.024014 564.835078 
L 364.214408 567.254673 
L 367.404803 570.158186 
L 370.595197 536.283857 
L 373.785592 541.606966 
L 376.975986 545.478318 
L 386.54717 556.366495 
L 389.737564 559.270009 
L 392.927959 561.205685 
L 396.118353 562.657442 
L 408.879931 574.271498 
L 412.070326 576.449131 
L 415.26072 578.868726 
L 418.451115 581.530283 
L 421.641509 583.949878 
L 424.831904 586.127511 
L 431.212693 590.9667 
L 434.403087 562.657442 
L 437.593482 566.528794 
L 443.974271 573.787579 
L 450.35506 580.562445 
L 453.545455 583.707916 
L 456.735849 586.127511 
L 463.116638 589.514948 
L 469.497427 595.321974 
L 482.259005 605.000354 
L 485.4494 607.177989 
L 488.639794 609.597584 
L 491.830189 611.533257 
L 495.020583 613.710898 
L 498.210978 536.041898 
L 501.401372 534.348182 
L 504.591767 532.412506 
L 507.782161 531.444668 
L 510.972556 530.960749 
L 514.16295 528.057235 
L 517.353345 525.879599 
L 520.543739 522.492166 
L 526.924528 515.233382 
L 530.114923 511.12007 
L 533.305317 506.764799 
L 536.495712 501.925609 
L 539.686106 496.84446 
L 542.876501 492.00527 
L 546.066895 486.440202 
L 549.25729 480.633176 
L 552.447684 475.068106 
L 558.828473 462.970131 
L 562.018868 563.383321 
L 565.209262 560.721766 
L 568.399657 558.302171 
L 571.590051 557.092374 
L 574.780446 555.640617 
L 577.97084 553.221022 
L 581.161235 551.043387 
L 584.35163 548.623792 
L 587.542024 545.962237 
L 590.732419 543.058723 
L 593.922813 540.397169 
L 597.113208 537.251695 
L 600.303602 534.348182 
L 603.493997 530.47683 
L 606.684391 526.847437 
L 609.874786 522.734126 
L 613.06518 517.894936 
L 616.255575 513.297706 
L 622.636364 503.135407 
L 622.636364 503.135407 
" clip-path="url(#p02ae51eb9e)" style="fill: none; stroke-dasharray: 5.55,2.4; stroke-dashoffset: 0; stroke: #fa7f6f; stroke-opacity: 0.5; stroke-width: 1.5"/>
   </g>
   <g id="line2d_48">
    <path d="M 115.363636 536.041898 
L 118.554031 534.106222 
L 121.744425 531.928587 
L 124.93482 530.47683 
L 128.125214 529.267032 
L 131.315609 526.605478 
L 134.506003 523.701964 
L 137.696398 520.314531 
L 140.886792 516.443179 
L 144.077187 512.087908 
L 147.267581 507.490678 
L 150.457976 502.651488 
L 153.64837 497.328379 
L 156.838765 491.521354 
L 160.02916 485.956283 
L 166.409949 473.374392 
L 169.600343 467.567359 
L 172.790738 459.824658 
L 175.981132 452.565868 
L 179.171527 514.991422 
L 185.552316 507.732637 
L 188.74271 505.796961 
L 191.933105 503.619326 
L 195.123499 499.506015 
L 198.313894 495.634663 
L 201.504288 490.795473 
L 204.694683 486.198242 
L 207.885077 481.117093 
L 214.265866 469.986954 
L 220.646655 457.163103 
L 223.83705 450.630194 
L 233.408233 429.337762 
L 236.598628 421.353101 
L 239.789022 412.884518 
L 242.979417 536.041898 
L 246.169811 541.606966 
L 249.360206 545.962237 
L 252.5506 550.075549 
L 255.740995 553.704941 
L 262.121784 560.479807 
L 265.312178 562.415483 
L 268.502573 563.86724 
L 274.883362 570.642105 
L 278.073756 573.0617 
L 281.264151 575.965214 
L 284.454545 578.626771 
L 287.64494 581.772242 
L 290.835334 583.949878 
L 297.216123 589.272986 
L 303.596913 594.112176 
L 306.787307 510.152232 
L 309.977702 514.749463 
L 313.168096 519.588652 
L 316.358491 524.669802 
L 322.73928 533.380344 
L 325.929674 536.041898 
L 329.120069 537.251695 
L 332.310463 541.123047 
L 335.500858 545.478318 
L 338.691252 548.139873 
L 341.881647 551.285346 
L 348.262436 557.092374 
L 351.45283 559.753928 
L 354.643225 562.657442 
L 357.833619 565.077037 
L 361.024014 567.980551 
L 367.404803 572.819741 
L 370.595197 536.767776 
L 376.975986 546.446156 
L 380.166381 550.801427 
L 383.356775 554.430819 
L 386.54717 558.302171 
L 389.737564 560.963726 
L 392.927959 562.899402 
L 396.118353 565.560956 
L 399.308748 568.948389 
L 412.070326 580.562445 
L 415.26072 582.98204 
L 421.641509 588.789067 
L 424.831904 590.9667 
L 428.022298 593.628257 
L 431.212693 595.80589 
L 434.403087 565.560956 
L 437.593482 569.674268 
L 440.783877 573.545619 
L 443.974271 577.658928 
L 447.164666 581.530283 
L 453.545455 588.305151 
L 456.735849 590.482784 
L 459.926244 592.176498 
L 469.497427 600.887042 
L 475.878216 606.210151 
L 479.068611 608.629746 
L 482.259005 611.291303 
L 488.639794 616.130493 
L 491.830189 618.308121 
L 495.020583 620.727716 
L 498.210978 536.283857 
L 504.591767 532.412506 
L 507.782161 531.202708 
L 510.972556 530.23487 
L 514.16295 527.815275 
L 517.353345 525.153721 
L 520.543739 522.008247 
L 530.114923 508.942435 
L 533.305317 504.103245 
L 536.495712 498.780136 
L 542.876501 487.649999 
L 546.066895 481.601012 
L 552.447684 469.019118 
L 558.828473 454.743508 
L 562.018868 566.286835 
L 565.209262 563.62528 
L 568.399657 560.721766 
L 571.590051 559.511969 
L 574.780446 557.818252 
L 581.161235 552.979062 
L 584.35163 550.075549 
L 587.542024 547.413994 
L 590.732419 544.51048 
L 597.113208 538.219533 
L 600.303602 534.590141 
L 603.493997 530.718789 
L 606.684391 526.605478 
L 613.06518 516.927098 
L 619.445969 505.796961 
L 622.636364 499.022096 
L 622.636364 499.022096 
" clip-path="url(#p02ae51eb9e)" style="fill: none; stroke-dasharray: 5.55,2.4; stroke-dashoffset: 0; stroke: #999999; stroke-width: 1.5"/>
   </g>
   <g id="patch_9">
    <path d="M 90 640.8 
L 90 388.8 
" style="fill: none; stroke: #000000; stroke-width: 0.8; stroke-linejoin: miter; stroke-linecap: square"/>
   </g>
   <g id="patch_10">
    <path d="M 648 640.8 
L 648 388.8 
" style="fill: none; stroke: #000000; stroke-width: 0.8; stroke-linejoin: miter; stroke-linecap: square"/>
   </g>
   <g id="patch_11">
    <path d="M 90 640.8 
L 648 640.8 
" style="fill: none; stroke: #000000; stroke-width: 0.8; stroke-linejoin: miter; stroke-linecap: square"/>
   </g>
   <g id="patch_12">
    <path d="M 90 388.8 
L 648 388.8 
" style="fill: none; stroke: #000000; stroke-width: 0.8; stroke-linejoin: miter; stroke-linecap: square"/>
   </g>
   <g id="text_38">
    <!-- Right Chamber Pressure -->
    <g transform="translate(296.292188 382.8) scale(0.12 -0.12)">
     <use xlink:href="#DejaVuSans-52"/>
     <use xlink:href="#DejaVuSans-69" x="69.482422"/>
     <use xlink:href="#DejaVuSans-67" x="97.265625"/>
     <use xlink:href="#DejaVuSans-68" x="160.742188"/>
     <use xlink:href="#DejaVuSans-74" x="224.121094"/>
     <use xlink:href="#DejaVuSans-20" x="263.330078"/>
     <use xlink:href="#DejaVuSans-43" x="295.117188"/>
     <use xlink:href="#DejaVuSans-68" x="364.941406"/>
     <use xlink:href="#DejaVuSans-61" x="428.320312"/>
     <use xlink:href="#DejaVuSans-6d" x="489.599609"/>
     <use xlink:href="#DejaVuSans-62" x="587.011719"/>
     <use xlink:href="#DejaVuSans-65" x="650.488281"/>
     <use xlink:href="#DejaVuSans-72" x="712.011719"/>
     <use xlink:href="#DejaVuSans-20" x="753.125"/>
     <use xlink:href="#DejaVuSans-50" x="784.912109"/>
     <use xlink:href="#DejaVuSans-72" x="843.464844"/>
     <use xlink:href="#DejaVuSans-65" x="882.328125"/>
     <use xlink:href="#DejaVuSans-73" x="943.851562"/>
     <use xlink:href="#DejaVuSans-73" x="995.951172"/>
     <use xlink:href="#DejaVuSans-75" x="1048.050781"/>
     <use xlink:href="#DejaVuSans-72" x="1111.429688"/>
     <use xlink:href="#DejaVuSans-65" x="1150.292969"/>
    </g>
   </g>
   <g id="legend_2">
    <g id="patch_13">
     <path d="M 269.959375 485.425 
L 468.040625 485.425 
Q 470.040625 485.425 470.040625 483.425 
L 470.040625 395.8 
Q 470.040625 393.8 468.040625 393.8 
L 269.959375 393.8 
Q 267.959375 393.8 267.959375 395.8 
L 267.959375 483.425 
Q 267.959375 485.425 269.959375 485.425 
z
" style="fill: #ffffff; opacity: 0.8; stroke: #cccccc; stroke-linejoin: miter"/>
    </g>
    <g id="line2d_49">
     <path d="M 271.959375 401.898438 
L 281.959375 401.898438 
L 291.959375 401.898438 
" style="fill: none; stroke-dasharray: 5.55,2.4; stroke-dashoffset: 0; stroke: #beb8dc; stroke-opacity: 0.5; stroke-width: 1.5"/>
    </g>
    <g id="text_39">
     <!-- Real, range 0.010 -->
     <g transform="translate(299.959375 405.398438) scale(0.1 -0.1)">
      <use xlink:href="#DejaVuSans-52"/>
      <use xlink:href="#DejaVuSans-65" x="64.982422"/>
      <use xlink:href="#DejaVuSans-61" x="126.505859"/>
      <use xlink:href="#DejaVuSans-6c" x="187.785156"/>
      <use xlink:href="#DejaVuSans-2c" x="215.568359"/>
      <use xlink:href="#DejaVuSans-20" x="247.355469"/>
      <use xlink:href="#DejaVuSans-72" x="279.142578"/>
      <use xlink:href="#DejaVuSans-61" x="320.255859"/>
      <use xlink:href="#DejaVuSans-6e" x="381.535156"/>
      <use xlink:href="#DejaVuSans-67" x="444.914062"/>
      <use xlink:href="#DejaVuSans-65" x="508.390625"/>
      <use xlink:href="#DejaVuSans-20" x="569.914062"/>
      <use xlink:href="#DejaVuSans-30" x="601.701172"/>
      <use xlink:href="#DejaVuSans-2e" x="665.324219"/>
      <use xlink:href="#DejaVuSans-30" x="697.111328"/>
      <use xlink:href="#DejaVuSans-31" x="760.734375"/>
      <use xlink:href="#DejaVuSans-30" x="824.357422"/>
     </g>
    </g>
    <g id="line2d_50">
     <path d="M 271.959375 416.576563 
L 281.959375 416.576563 
L 291.959375 416.576563 
" style="fill: none; stroke: #8ecfc9; stroke-opacity: 0.5; stroke-width: 1.5; stroke-linecap: square"/>
    </g>
    <g id="text_40">
     <!-- Sim, range 0.009 -->
     <g transform="translate(299.959375 420.076563) scale(0.1 -0.1)">
      <use xlink:href="#DejaVuSans-53"/>
      <use xlink:href="#DejaVuSans-69" x="63.476562"/>
      <use xlink:href="#DejaVuSans-6d" x="91.259766"/>
      <use xlink:href="#DejaVuSans-2c" x="188.671875"/>
      <use xlink:href="#DejaVuSans-20" x="220.458984"/>
      <use xlink:href="#DejaVuSans-72" x="252.246094"/>
      <use xlink:href="#DejaVuSans-61" x="293.359375"/>
      <use xlink:href="#DejaVuSans-6e" x="354.638672"/>
      <use xlink:href="#DejaVuSans-67" x="418.017578"/>
      <use xlink:href="#DejaVuSans-65" x="481.494141"/>
      <use xlink:href="#DejaVuSans-20" x="543.017578"/>
      <use xlink:href="#DejaVuSans-30" x="574.804688"/>
      <use xlink:href="#DejaVuSans-2e" x="638.427734"/>
      <use xlink:href="#DejaVuSans-30" x="670.214844"/>
      <use xlink:href="#DejaVuSans-30" x="733.837891"/>
      <use xlink:href="#DejaVuSans-39" x="797.460938"/>
     </g>
    </g>
    <g id="line2d_51">
     <path d="M 271.959375 431.254687 
L 281.959375 431.254687 
L 291.959375 431.254687 
" style="fill: none; stroke-dasharray: 5.55,2.4; stroke-dashoffset: 0; stroke: #8ecfc9; stroke-opacity: 0.5; stroke-width: 1.5"/>
    </g>
    <g id="text_41">
     <!-- Real, range 0.009 -->
     <g transform="translate(299.959375 434.754687) scale(0.1 -0.1)">
      <use xlink:href="#DejaVuSans-52"/>
      <use xlink:href="#DejaVuSans-65" x="64.982422"/>
      <use xlink:href="#DejaVuSans-61" x="126.505859"/>
      <use xlink:href="#DejaVuSans-6c" x="187.785156"/>
      <use xlink:href="#DejaVuSans-2c" x="215.568359"/>
      <use xlink:href="#DejaVuSans-20" x="247.355469"/>
      <use xlink:href="#DejaVuSans-72" x="279.142578"/>
      <use xlink:href="#DejaVuSans-61" x="320.255859"/>
      <use xlink:href="#DejaVuSans-6e" x="381.535156"/>
      <use xlink:href="#DejaVuSans-67" x="444.914062"/>
      <use xlink:href="#DejaVuSans-65" x="508.390625"/>
      <use xlink:href="#DejaVuSans-20" x="569.914062"/>
      <use xlink:href="#DejaVuSans-30" x="601.701172"/>
      <use xlink:href="#DejaVuSans-2e" x="665.324219"/>
      <use xlink:href="#DejaVuSans-30" x="697.111328"/>
      <use xlink:href="#DejaVuSans-30" x="760.734375"/>
      <use xlink:href="#DejaVuSans-39" x="824.357422"/>
     </g>
    </g>
    <g id="line2d_52">
     <path d="M 271.959375 445.932813 
L 281.959375 445.932813 
L 291.959375 445.932813 
" style="fill: none; stroke: #999999; stroke-width: 1.5; stroke-linecap: square"/>
    </g>
    <g id="text_42">
     <!-- Sim, range 0.008 -->
     <g transform="translate(299.959375 449.432813) scale(0.1 -0.1)">
      <use xlink:href="#DejaVuSans-53"/>
      <use xlink:href="#DejaVuSans-69" x="63.476562"/>
      <use xlink:href="#DejaVuSans-6d" x="91.259766"/>
      <use xlink:href="#DejaVuSans-2c" x="188.671875"/>
      <use xlink:href="#DejaVuSans-20" x="220.458984"/>
      <use xlink:href="#DejaVuSans-72" x="252.246094"/>
      <use xlink:href="#DejaVuSans-61" x="293.359375"/>
      <use xlink:href="#DejaVuSans-6e" x="354.638672"/>
      <use xlink:href="#DejaVuSans-67" x="418.017578"/>
      <use xlink:href="#DejaVuSans-65" x="481.494141"/>
      <use xlink:href="#DejaVuSans-20" x="543.017578"/>
      <use xlink:href="#DejaVuSans-30" x="574.804688"/>
      <use xlink:href="#DejaVuSans-2e" x="638.427734"/>
      <use xlink:href="#DejaVuSans-30" x="670.214844"/>
      <use xlink:href="#DejaVuSans-30" x="733.837891"/>
      <use xlink:href="#DejaVuSans-38" x="797.460938"/>
     </g>
    </g>
    <g id="line2d_53">
     <path d="M 271.959375 460.610937 
L 281.959375 460.610937 
L 291.959375 460.610937 
" style="fill: none; stroke-dasharray: 5.55,2.4; stroke-dashoffset: 0; stroke: #fa7f6f; stroke-opacity: 0.5; stroke-width: 1.5"/>
    </g>
    <g id="text_43">
     <!-- Real, range 0.009, motor_r 0.038 -->
     <g transform="translate(299.959375 464.110937) scale(0.1 -0.1)">
      <use xlink:href="#DejaVuSans-52"/>
      <use xlink:href="#DejaVuSans-65" x="64.982422"/>
      <use xlink:href="#DejaVuSans-61" x="126.505859"/>
      <use xlink:href="#DejaVuSans-6c" x="187.785156"/>
      <use xlink:href="#DejaVuSans-2c" x="215.568359"/>
      <use xlink:href="#DejaVuSans-20" x="247.355469"/>
      <use xlink:href="#DejaVuSans-72" x="279.142578"/>
      <use xlink:href="#DejaVuSans-61" x="320.255859"/>
      <use xlink:href="#DejaVuSans-6e" x="381.535156"/>
      <use xlink:href="#DejaVuSans-67" x="444.914062"/>
      <use xlink:href="#DejaVuSans-65" x="508.390625"/>
      <use xlink:href="#DejaVuSans-20" x="569.914062"/>
      <use xlink:href="#DejaVuSans-30" x="601.701172"/>
      <use xlink:href="#DejaVuSans-2e" x="665.324219"/>
      <use xlink:href="#DejaVuSans-30" x="697.111328"/>
      <use xlink:href="#DejaVuSans-30" x="760.734375"/>
      <use xlink:href="#DejaVuSans-39" x="824.357422"/>
      <use xlink:href="#DejaVuSans-2c" x="887.980469"/>
      <use xlink:href="#DejaVuSans-20" x="919.767578"/>
      <use xlink:href="#DejaVuSans-6d" x="951.554688"/>
      <use xlink:href="#DejaVuSans-6f" x="1048.966797"/>
      <use xlink:href="#DejaVuSans-74" x="1110.148438"/>
      <use xlink:href="#DejaVuSans-6f" x="1149.357422"/>
      <use xlink:href="#DejaVuSans-72" x="1210.539062"/>
      <use xlink:href="#DejaVuSans-5f" x="1251.652344"/>
      <use xlink:href="#DejaVuSans-72" x="1301.652344"/>
      <use xlink:href="#DejaVuSans-20" x="1342.765625"/>
      <use xlink:href="#DejaVuSans-30" x="1374.552734"/>
      <use xlink:href="#DejaVuSans-2e" x="1438.175781"/>
      <use xlink:href="#DejaVuSans-30" x="1469.962891"/>
      <use xlink:href="#DejaVuSans-33" x="1533.585938"/>
      <use xlink:href="#DejaVuSans-38" x="1597.208984"/>
     </g>
    </g>
    <g id="line2d_54">
     <path d="M 271.959375 475.567187 
L 281.959375 475.567187 
L 291.959375 475.567187 
" style="fill: none; stroke-dasharray: 5.55,2.4; stroke-dashoffset: 0; stroke: #999999; stroke-width: 1.5"/>
    </g>
    <g id="text_44">
     <!-- Real, range 0.009, motor_r 0.035 -->
     <g transform="translate(299.959375 479.067187) scale(0.1 -0.1)">
      <use xlink:href="#DejaVuSans-52"/>
      <use xlink:href="#DejaVuSans-65" x="64.982422"/>
      <use xlink:href="#DejaVuSans-61" x="126.505859"/>
      <use xlink:href="#DejaVuSans-6c" x="187.785156"/>
      <use xlink:href="#DejaVuSans-2c" x="215.568359"/>
      <use xlink:href="#DejaVuSans-20" x="247.355469"/>
      <use xlink:href="#DejaVuSans-72" x="279.142578"/>
      <use xlink:href="#DejaVuSans-61" x="320.255859"/>
      <use xlink:href="#DejaVuSans-6e" x="381.535156"/>
      <use xlink:href="#DejaVuSans-67" x="444.914062"/>
      <use xlink:href="#DejaVuSans-65" x="508.390625"/>
      <use xlink:href="#DejaVuSans-20" x="569.914062"/>
      <use xlink:href="#DejaVuSans-30" x="601.701172"/>
      <use xlink:href="#DejaVuSans-2e" x="665.324219"/>
      <use xlink:href="#DejaVuSans-30" x="697.111328"/>
      <use xlink:href="#DejaVuSans-30" x="760.734375"/>
      <use xlink:href="#DejaVuSans-39" x="824.357422"/>
      <use xlink:href="#DejaVuSans-2c" x="887.980469"/>
      <use xlink:href="#DejaVuSans-20" x="919.767578"/>
      <use xlink:href="#DejaVuSans-6d" x="951.554688"/>
      <use xlink:href="#DejaVuSans-6f" x="1048.966797"/>
      <use xlink:href="#DejaVuSans-74" x="1110.148438"/>
      <use xlink:href="#DejaVuSans-6f" x="1149.357422"/>
      <use xlink:href="#DejaVuSans-72" x="1210.539062"/>
      <use xlink:href="#DejaVuSans-5f" x="1251.652344"/>
      <use xlink:href="#DejaVuSans-72" x="1301.652344"/>
      <use xlink:href="#DejaVuSans-20" x="1342.765625"/>
      <use xlink:href="#DejaVuSans-30" x="1374.552734"/>
      <use xlink:href="#DejaVuSans-2e" x="1438.175781"/>
      <use xlink:href="#DejaVuSans-30" x="1469.962891"/>
      <use xlink:href="#DejaVuSans-33" x="1533.585938"/>
      <use xlink:href="#DejaVuSans-35" x="1597.208984"/>
     </g>
    </g>
   </g>
  </g>
 </g>
 <defs>
  <clipPath id="pe68548aefc">
   <rect x="90" y="86.4" width="558" height="252"/>
  </clipPath>
  <clipPath id="p02ae51eb9e">
   <rect x="90" y="388.8" width="558" height="252"/>
  </clipPath>
 </defs>
</svg>
